<svg xmlns="http://www.w3.org/2000/svg" width="16.811" height="12.805" viewBox="0 0 16.811 12.805">
  <path id="Trazado_36827" data-name="Trazado 36827" d="M15.333,61H1.478A1.48,1.48,0,0,0,0,62.478v9.85a1.48,1.48,0,0,0,1.478,1.478H15.333a1.48,1.48,0,0,0,1.478-1.478v-9.85A1.48,1.48,0,0,0,15.333,61Zm-.2.985L8.437,68.678l-6.75-6.693ZM.985,72.124V62.677l4.744,4.7Zm.7.7,4.747-4.747,1.663,1.649a.492.492,0,0,0,.695,0L10.408,68.1l4.721,4.721Zm14.144-.7L11.1,67.4l4.721-4.721Z" transform="translate(0 -61)" fill="#93ea20"/>
</svg>
