<svg xmlns="http://www.w3.org/2000/svg" width="302" height="316.96" viewBox="0 0 302 316.96">
  <g id="Grupo_35125" data-name="Grupo 35125" transform="translate(106 -3724.5)" opacity="0.241">
    <path id="Trazado_36927" data-name="Trazado 36927" d="M1435.853-868.486h-5.644a1.209,1.209,0,0,0-1.209,1.209v5.644a1.209,1.209,0,0,0,1.209,1.209h5.644a1.21,1.21,0,0,0,1.209-1.209v-5.644A1.209,1.209,0,0,0,1435.853-868.486Zm-2.822,4.838a.806.806,0,0,1-.806-.806.806.806,0,0,1,.806-.806.806.806,0,0,1,.806.806A.806.806,0,0,1,1433.031-863.648Z" transform="translate(-1451.018 4592.986)" fill="#93ea20"/>
    <path id="Trazado_36927-2" data-name="Trazado 36927" d="M1435.853-868.486h-5.644a1.209,1.209,0,0,0-1.209,1.209v5.644a1.209,1.209,0,0,0,1.209,1.209h5.644a1.21,1.21,0,0,0,1.209-1.209v-5.644A1.209,1.209,0,0,0,1435.853-868.486Zm-2.822,4.838a.806.806,0,0,1-.806-.806.806.806,0,0,1,.806-.806.806.806,0,0,1,.806.806A.806.806,0,0,1,1433.031-863.648Z" transform="translate(-1409.027 4592.986)" fill="#93ea20"/>
    <path id="Trazado_36927-3" data-name="Trazado 36927" d="M1435.853-868.486h-5.644a1.209,1.209,0,0,0-1.209,1.209v5.644a1.209,1.209,0,0,0,1.209,1.209h5.644a1.21,1.21,0,0,0,1.209-1.209v-5.644A1.209,1.209,0,0,0,1435.853-868.486Zm-2.822,4.838a.806.806,0,0,1-.806-.806.806.806,0,0,1,.806-.806.806.806,0,0,1,.806.806A.806.806,0,0,1,1433.031-863.648Z" transform="translate(-1367.036 4592.986)" fill="#93ea20"/>
    <path id="Trazado_36927-4" data-name="Trazado 36927" d="M1435.853-868.486h-5.644a1.209,1.209,0,0,0-1.209,1.209v5.644a1.209,1.209,0,0,0,1.209,1.209h5.644a1.21,1.21,0,0,0,1.209-1.209v-5.644A1.209,1.209,0,0,0,1435.853-868.486Zm-2.822,4.838a.806.806,0,0,1-.806-.806.806.806,0,0,1,.806-.806.806.806,0,0,1,.806.806A.806.806,0,0,1,1433.031-863.648Z" transform="translate(-1325.045 4592.986)" fill="#93ea20"/>
    <path id="Trazado_36927-5" data-name="Trazado 36927" d="M1435.853-868.486h-5.644a1.209,1.209,0,0,0-1.209,1.209v5.644a1.209,1.209,0,0,0,1.209,1.209h5.644a1.21,1.21,0,0,0,1.209-1.209v-5.644A1.209,1.209,0,0,0,1435.853-868.486Zm-2.822,4.838a.806.806,0,0,1-.806-.806.806.806,0,0,1,.806-.806.806.806,0,0,1,.806.806A.806.806,0,0,1,1433.031-863.648Z" transform="translate(-1283.796 4592.986)" fill="#93ea20"/>
    <path id="Trazado_36927-6" data-name="Trazado 36927" d="M1435.853-868.486h-5.644a1.209,1.209,0,0,0-1.209,1.209v5.644a1.209,1.209,0,0,0,1.209,1.209h5.644a1.21,1.21,0,0,0,1.209-1.209v-5.644A1.209,1.209,0,0,0,1435.853-868.486Zm-2.822,4.838a.806.806,0,0,1-.806-.806.806.806,0,0,1,.806-.806.806.806,0,0,1,.806.806A.806.806,0,0,1,1433.031-863.648Z" transform="translate(-1241.063 4592.986)" fill="#93ea20"/>
    <path id="Trazado_36927-7" data-name="Trazado 36927" d="M1435.853-868.486h-5.644a1.209,1.209,0,0,0-1.209,1.209v5.644a1.209,1.209,0,0,0,1.209,1.209h5.644a1.21,1.21,0,0,0,1.209-1.209v-5.644A1.209,1.209,0,0,0,1435.853-868.486Zm-2.822,4.838a.806.806,0,0,1-.806-.806.806.806,0,0,1,.806-.806.806.806,0,0,1,.806.806A.806.806,0,0,1,1433.031-863.648Z" transform="translate(-1451.018 4624.431)" fill="#93ea20"/>
    <path id="Trazado_36927-8" data-name="Trazado 36927" d="M1435.853-868.486h-5.644a1.209,1.209,0,0,0-1.209,1.209v5.644a1.209,1.209,0,0,0,1.209,1.209h5.644a1.21,1.21,0,0,0,1.209-1.209v-5.644A1.209,1.209,0,0,0,1435.853-868.486Zm-2.822,4.838a.806.806,0,0,1-.806-.806.806.806,0,0,1,.806-.806.806.806,0,0,1,.806.806A.806.806,0,0,1,1433.031-863.648Z" transform="translate(-1409.027 4624.431)" fill="#93ea20"/>
    <path id="Trazado_36927-9" data-name="Trazado 36927" d="M1435.853-868.486h-5.644a1.209,1.209,0,0,0-1.209,1.209v5.644a1.209,1.209,0,0,0,1.209,1.209h5.644a1.21,1.21,0,0,0,1.209-1.209v-5.644A1.209,1.209,0,0,0,1435.853-868.486Zm-2.822,4.838a.806.806,0,0,1-.806-.806.806.806,0,0,1,.806-.806.806.806,0,0,1,.806.806A.806.806,0,0,1,1433.031-863.648Z" transform="translate(-1367.036 4624.431)" fill="#93ea20"/>
    <path id="Trazado_36927-10" data-name="Trazado 36927" d="M1435.853-868.486h-5.644a1.209,1.209,0,0,0-1.209,1.209v5.644a1.209,1.209,0,0,0,1.209,1.209h5.644a1.21,1.21,0,0,0,1.209-1.209v-5.644A1.209,1.209,0,0,0,1435.853-868.486Zm-2.822,4.838a.806.806,0,0,1-.806-.806.806.806,0,0,1,.806-.806.806.806,0,0,1,.806.806A.806.806,0,0,1,1433.031-863.648Z" transform="translate(-1325.045 4624.431)" fill="#93ea20"/>
    <path id="Trazado_36927-11" data-name="Trazado 36927" d="M1435.853-868.486h-5.644a1.209,1.209,0,0,0-1.209,1.209v5.644a1.209,1.209,0,0,0,1.209,1.209h5.644a1.21,1.21,0,0,0,1.209-1.209v-5.644A1.209,1.209,0,0,0,1435.853-868.486Zm-2.822,4.838a.806.806,0,0,1-.806-.806.806.806,0,0,1,.806-.806.806.806,0,0,1,.806.806A.806.806,0,0,1,1433.031-863.648Z" transform="translate(-1283.796 4624.431)" fill="#93ea20"/>
    <path id="Trazado_36927-12" data-name="Trazado 36927" d="M1435.853-868.486h-5.644a1.209,1.209,0,0,0-1.209,1.209v5.644a1.209,1.209,0,0,0,1.209,1.209h5.644a1.21,1.21,0,0,0,1.209-1.209v-5.644A1.209,1.209,0,0,0,1435.853-868.486Zm-2.822,4.838a.806.806,0,0,1-.806-.806.806.806,0,0,1,.806-.806.806.806,0,0,1,.806.806A.806.806,0,0,1,1433.031-863.648Z" transform="translate(-1241.063 4624.431)" fill="#93ea20"/>
    <path id="Trazado_36927-13" data-name="Trazado 36927" d="M1435.853-868.486h-5.644a1.209,1.209,0,0,0-1.209,1.209v5.644a1.209,1.209,0,0,0,1.209,1.209h5.644a1.21,1.21,0,0,0,1.209-1.209v-5.644A1.209,1.209,0,0,0,1435.853-868.486Zm-2.822,4.838a.806.806,0,0,1-.806-.806.806.806,0,0,1,.806-.806.806.806,0,0,1,.806.806A.806.806,0,0,1,1433.031-863.648Z" transform="translate(-1451.018 4654.766)" fill="#93ea20"/>
    <path id="Trazado_36927-14" data-name="Trazado 36927" d="M1435.853-868.486h-5.644a1.209,1.209,0,0,0-1.209,1.209v5.644a1.209,1.209,0,0,0,1.209,1.209h5.644a1.21,1.21,0,0,0,1.209-1.209v-5.644A1.209,1.209,0,0,0,1435.853-868.486Zm-2.822,4.838a.806.806,0,0,1-.806-.806.806.806,0,0,1,.806-.806.806.806,0,0,1,.806.806A.806.806,0,0,1,1433.031-863.648Z" transform="translate(-1409.027 4654.766)" fill="#93ea20"/>
    <path id="Trazado_36927-15" data-name="Trazado 36927" d="M1435.853-868.486h-5.644a1.209,1.209,0,0,0-1.209,1.209v5.644a1.209,1.209,0,0,0,1.209,1.209h5.644a1.21,1.21,0,0,0,1.209-1.209v-5.644A1.209,1.209,0,0,0,1435.853-868.486Zm-2.822,4.838a.806.806,0,0,1-.806-.806.806.806,0,0,1,.806-.806.806.806,0,0,1,.806.806A.806.806,0,0,1,1433.031-863.648Z" transform="translate(-1367.036 4654.766)" fill="#93ea20"/>
    <path id="Trazado_36927-16" data-name="Trazado 36927" d="M1435.853-868.486h-5.644a1.209,1.209,0,0,0-1.209,1.209v5.644a1.209,1.209,0,0,0,1.209,1.209h5.644a1.21,1.21,0,0,0,1.209-1.209v-5.644A1.209,1.209,0,0,0,1435.853-868.486Zm-2.822,4.838a.806.806,0,0,1-.806-.806.806.806,0,0,1,.806-.806.806.806,0,0,1,.806.806A.806.806,0,0,1,1433.031-863.648Z" transform="translate(-1325.045 4654.766)" fill="#93ea20"/>
    <path id="Trazado_36927-17" data-name="Trazado 36927" d="M1435.853-868.486h-5.644a1.209,1.209,0,0,0-1.209,1.209v5.644a1.209,1.209,0,0,0,1.209,1.209h5.644a1.21,1.21,0,0,0,1.209-1.209v-5.644A1.209,1.209,0,0,0,1435.853-868.486Zm-2.822,4.838a.806.806,0,0,1-.806-.806.806.806,0,0,1,.806-.806.806.806,0,0,1,.806.806A.806.806,0,0,1,1433.031-863.648Z" transform="translate(-1283.796 4654.766)" fill="#93ea20"/>
    <path id="Trazado_36927-18" data-name="Trazado 36927" d="M1435.853-868.486h-5.644a1.209,1.209,0,0,0-1.209,1.209v5.644a1.209,1.209,0,0,0,1.209,1.209h5.644a1.21,1.21,0,0,0,1.209-1.209v-5.644A1.209,1.209,0,0,0,1435.853-868.486Zm-2.822,4.838a.806.806,0,0,1-.806-.806.806.806,0,0,1,.806-.806.806.806,0,0,1,.806.806A.806.806,0,0,1,1433.031-863.648Z" transform="translate(-1241.063 4654.766)" fill="#93ea20"/>
    <path id="Trazado_36927-19" data-name="Trazado 36927" d="M1435.853-868.486h-5.644a1.209,1.209,0,0,0-1.209,1.209v5.644a1.209,1.209,0,0,0,1.209,1.209h5.644a1.21,1.21,0,0,0,1.209-1.209v-5.644A1.209,1.209,0,0,0,1435.853-868.486Zm-2.822,4.838a.806.806,0,0,1-.806-.806.806.806,0,0,1,.806-.806.806.806,0,0,1,.806.806A.806.806,0,0,1,1433.031-863.648Z" transform="translate(-1451.018 4685.655)" fill="#93ea20"/>
    <path id="Trazado_36927-20" data-name="Trazado 36927" d="M1435.853-868.486h-5.644a1.209,1.209,0,0,0-1.209,1.209v5.644a1.209,1.209,0,0,0,1.209,1.209h5.644a1.21,1.21,0,0,0,1.209-1.209v-5.644A1.209,1.209,0,0,0,1435.853-868.486Zm-2.822,4.838a.806.806,0,0,1-.806-.806.806.806,0,0,1,.806-.806.806.806,0,0,1,.806.806A.806.806,0,0,1,1433.031-863.648Z" transform="translate(-1409.027 4685.655)" fill="#93ea20"/>
    <path id="Trazado_36927-21" data-name="Trazado 36927" d="M1435.853-868.486h-5.644a1.209,1.209,0,0,0-1.209,1.209v5.644a1.209,1.209,0,0,0,1.209,1.209h5.644a1.21,1.21,0,0,0,1.209-1.209v-5.644A1.209,1.209,0,0,0,1435.853-868.486Zm-2.822,4.838a.806.806,0,0,1-.806-.806.806.806,0,0,1,.806-.806.806.806,0,0,1,.806.806A.806.806,0,0,1,1433.031-863.648Z" transform="translate(-1367.036 4685.655)" fill="#93ea20"/>
    <path id="Trazado_36927-22" data-name="Trazado 36927" d="M1435.853-868.486h-5.644a1.209,1.209,0,0,0-1.209,1.209v5.644a1.209,1.209,0,0,0,1.209,1.209h5.644a1.21,1.21,0,0,0,1.209-1.209v-5.644A1.209,1.209,0,0,0,1435.853-868.486Zm-2.822,4.838a.806.806,0,0,1-.806-.806.806.806,0,0,1,.806-.806.806.806,0,0,1,.806.806A.806.806,0,0,1,1433.031-863.648Z" transform="translate(-1325.045 4685.655)" fill="#93ea20"/>
    <path id="Trazado_36927-23" data-name="Trazado 36927" d="M1435.853-868.486h-5.644a1.209,1.209,0,0,0-1.209,1.209v5.644a1.209,1.209,0,0,0,1.209,1.209h5.644a1.21,1.21,0,0,0,1.209-1.209v-5.644A1.209,1.209,0,0,0,1435.853-868.486Zm-2.822,4.838a.806.806,0,0,1-.806-.806.806.806,0,0,1,.806-.806.806.806,0,0,1,.806.806A.806.806,0,0,1,1433.031-863.648Z" transform="translate(-1283.796 4685.655)" fill="#93ea20"/>
    <path id="Trazado_36927-24" data-name="Trazado 36927" d="M1435.853-868.486h-5.644a1.209,1.209,0,0,0-1.209,1.209v5.644a1.209,1.209,0,0,0,1.209,1.209h5.644a1.21,1.21,0,0,0,1.209-1.209v-5.644A1.209,1.209,0,0,0,1435.853-868.486Zm-2.822,4.838a.806.806,0,0,1-.806-.806.806.806,0,0,1,.806-.806.806.806,0,0,1,.806.806A.806.806,0,0,1,1433.031-863.648Z" transform="translate(-1241.063 4685.655)" fill="#93ea20"/>
    <path id="Trazado_36927-25" data-name="Trazado 36927" d="M1435.853-868.486h-5.644a1.209,1.209,0,0,0-1.209,1.209v5.644a1.209,1.209,0,0,0,1.209,1.209h5.644a1.21,1.21,0,0,0,1.209-1.209v-5.644A1.209,1.209,0,0,0,1435.853-868.486Zm-2.822,4.838a.806.806,0,0,1-.806-.806.806.806,0,0,1,.806-.806.806.806,0,0,1,.806.806A.806.806,0,0,1,1433.031-863.648Z" transform="translate(-1451.018 4716.545)" fill="#93ea20"/>
    <path id="Trazado_36927-26" data-name="Trazado 36927" d="M1435.853-868.486h-5.644a1.209,1.209,0,0,0-1.209,1.209v5.644a1.209,1.209,0,0,0,1.209,1.209h5.644a1.21,1.21,0,0,0,1.209-1.209v-5.644A1.209,1.209,0,0,0,1435.853-868.486Zm-2.822,4.838a.806.806,0,0,1-.806-.806.806.806,0,0,1,.806-.806.806.806,0,0,1,.806.806A.806.806,0,0,1,1433.031-863.648Z" transform="translate(-1409.027 4716.545)" fill="#93ea20"/>
    <path id="Trazado_36927-27" data-name="Trazado 36927" d="M1435.853-868.486h-5.644a1.209,1.209,0,0,0-1.209,1.209v5.644a1.209,1.209,0,0,0,1.209,1.209h5.644a1.21,1.21,0,0,0,1.209-1.209v-5.644A1.209,1.209,0,0,0,1435.853-868.486Zm-2.822,4.838a.806.806,0,0,1-.806-.806.806.806,0,0,1,.806-.806.806.806,0,0,1,.806.806A.806.806,0,0,1,1433.031-863.648Z" transform="translate(-1367.036 4716.545)" fill="#93ea20"/>
    <path id="Trazado_36927-28" data-name="Trazado 36927" d="M1435.853-868.486h-5.644a1.209,1.209,0,0,0-1.209,1.209v5.644a1.209,1.209,0,0,0,1.209,1.209h5.644a1.21,1.21,0,0,0,1.209-1.209v-5.644A1.209,1.209,0,0,0,1435.853-868.486Zm-2.822,4.838a.806.806,0,0,1-.806-.806.806.806,0,0,1,.806-.806.806.806,0,0,1,.806.806A.806.806,0,0,1,1433.031-863.648Z" transform="translate(-1325.045 4716.545)" fill="#93ea20"/>
    <path id="Trazado_36927-29" data-name="Trazado 36927" d="M1435.853-868.486h-5.644a1.209,1.209,0,0,0-1.209,1.209v5.644a1.209,1.209,0,0,0,1.209,1.209h5.644a1.21,1.21,0,0,0,1.209-1.209v-5.644A1.209,1.209,0,0,0,1435.853-868.486Zm-2.822,4.838a.806.806,0,0,1-.806-.806.806.806,0,0,1,.806-.806.806.806,0,0,1,.806.806A.806.806,0,0,1,1433.031-863.648Z" transform="translate(-1283.796 4716.545)" fill="#93ea20"/>
    <path id="Trazado_36927-30" data-name="Trazado 36927" d="M1435.853-868.486h-5.644a1.209,1.209,0,0,0-1.209,1.209v5.644a1.209,1.209,0,0,0,1.209,1.209h5.644a1.21,1.21,0,0,0,1.209-1.209v-5.644A1.209,1.209,0,0,0,1435.853-868.486Zm-2.822,4.838a.806.806,0,0,1-.806-.806.806.806,0,0,1,.806-.806.806.806,0,0,1,.806.806A.806.806,0,0,1,1433.031-863.648Z" transform="translate(-1241.063 4716.545)" fill="#93ea20"/>
    <path id="Trazado_36927-31" data-name="Trazado 36927" d="M1435.853-868.486h-5.644a1.209,1.209,0,0,0-1.209,1.209v5.644a1.209,1.209,0,0,0,1.209,1.209h5.644a1.21,1.21,0,0,0,1.209-1.209v-5.644A1.209,1.209,0,0,0,1435.853-868.486Zm-2.822,4.838a.806.806,0,0,1-.806-.806.806.806,0,0,1,.806-.806.806.806,0,0,1,.806.806A.806.806,0,0,1,1433.031-863.648Z" transform="translate(-1451.018 4747.435)" fill="#93ea20"/>
    <path id="Trazado_36927-32" data-name="Trazado 36927" d="M1435.853-868.486h-5.644a1.209,1.209,0,0,0-1.209,1.209v5.644a1.209,1.209,0,0,0,1.209,1.209h5.644a1.21,1.21,0,0,0,1.209-1.209v-5.644A1.209,1.209,0,0,0,1435.853-868.486Zm-2.822,4.838a.806.806,0,0,1-.806-.806.806.806,0,0,1,.806-.806.806.806,0,0,1,.806.806A.806.806,0,0,1,1433.031-863.648Z" transform="translate(-1409.027 4747.435)" fill="#93ea20"/>
    <path id="Trazado_36927-33" data-name="Trazado 36927" d="M1435.853-868.486h-5.644a1.209,1.209,0,0,0-1.209,1.209v5.644a1.209,1.209,0,0,0,1.209,1.209h5.644a1.21,1.21,0,0,0,1.209-1.209v-5.644A1.209,1.209,0,0,0,1435.853-868.486Zm-2.822,4.838a.806.806,0,0,1-.806-.806.806.806,0,0,1,.806-.806.806.806,0,0,1,.806.806A.806.806,0,0,1,1433.031-863.648Z" transform="translate(-1367.036 4747.435)" fill="#93ea20"/>
    <path id="Trazado_36927-34" data-name="Trazado 36927" d="M1435.853-868.486h-5.644a1.209,1.209,0,0,0-1.209,1.209v5.644a1.209,1.209,0,0,0,1.209,1.209h5.644a1.21,1.21,0,0,0,1.209-1.209v-5.644A1.209,1.209,0,0,0,1435.853-868.486Zm-2.822,4.838a.806.806,0,0,1-.806-.806.806.806,0,0,1,.806-.806.806.806,0,0,1,.806.806A.806.806,0,0,1,1433.031-863.648Z" transform="translate(-1325.045 4747.435)" fill="#93ea20"/>
    <path id="Trazado_36927-35" data-name="Trazado 36927" d="M1435.853-868.486h-5.644a1.209,1.209,0,0,0-1.209,1.209v5.644a1.209,1.209,0,0,0,1.209,1.209h5.644a1.21,1.21,0,0,0,1.209-1.209v-5.644A1.209,1.209,0,0,0,1435.853-868.486Zm-2.822,4.838a.806.806,0,0,1-.806-.806.806.806,0,0,1,.806-.806.806.806,0,0,1,.806.806A.806.806,0,0,1,1433.031-863.648Z" transform="translate(-1283.796 4747.435)" fill="#93ea20"/>
    <path id="Trazado_36927-36" data-name="Trazado 36927" d="M1435.853-868.486h-5.644a1.209,1.209,0,0,0-1.209,1.209v5.644a1.209,1.209,0,0,0,1.209,1.209h5.644a1.21,1.21,0,0,0,1.209-1.209v-5.644A1.209,1.209,0,0,0,1435.853-868.486Zm-2.822,4.838a.806.806,0,0,1-.806-.806.806.806,0,0,1,.806-.806.806.806,0,0,1,.806.806A.806.806,0,0,1,1433.031-863.648Z" transform="translate(-1241.063 4747.435)" fill="#93ea20"/>
    <path id="Trazado_36927-37" data-name="Trazado 36927" d="M1435.853-868.486h-5.644a1.209,1.209,0,0,0-1.209,1.209v5.644a1.209,1.209,0,0,0,1.209,1.209h5.644a1.21,1.21,0,0,0,1.209-1.209v-5.644A1.209,1.209,0,0,0,1435.853-868.486Zm-2.822,4.838a.806.806,0,0,1-.806-.806.806.806,0,0,1,.806-.806.806.806,0,0,1,.806.806A.806.806,0,0,1,1433.031-863.648Z" transform="translate(-1451.018 4778.325)" fill="#93ea20"/>
    <path id="Trazado_36927-38" data-name="Trazado 36927" d="M1435.853-868.486h-5.644a1.209,1.209,0,0,0-1.209,1.209v5.644a1.209,1.209,0,0,0,1.209,1.209h5.644a1.21,1.21,0,0,0,1.209-1.209v-5.644A1.209,1.209,0,0,0,1435.853-868.486Zm-2.822,4.838a.806.806,0,0,1-.806-.806.806.806,0,0,1,.806-.806.806.806,0,0,1,.806.806A.806.806,0,0,1,1433.031-863.648Z" transform="translate(-1409.027 4778.325)" fill="#93ea20"/>
    <path id="Trazado_36927-39" data-name="Trazado 36927" d="M1435.853-868.486h-5.644a1.209,1.209,0,0,0-1.209,1.209v5.644a1.209,1.209,0,0,0,1.209,1.209h5.644a1.21,1.21,0,0,0,1.209-1.209v-5.644A1.209,1.209,0,0,0,1435.853-868.486Zm-2.822,4.838a.806.806,0,0,1-.806-.806.806.806,0,0,1,.806-.806.806.806,0,0,1,.806.806A.806.806,0,0,1,1433.031-863.648Z" transform="translate(-1367.036 4778.325)" fill="#93ea20"/>
    <path id="Trazado_36927-40" data-name="Trazado 36927" d="M1435.853-868.486h-5.644a1.209,1.209,0,0,0-1.209,1.209v5.644a1.209,1.209,0,0,0,1.209,1.209h5.644a1.21,1.21,0,0,0,1.209-1.209v-5.644A1.209,1.209,0,0,0,1435.853-868.486Zm-2.822,4.838a.806.806,0,0,1-.806-.806.806.806,0,0,1,.806-.806.806.806,0,0,1,.806.806A.806.806,0,0,1,1433.031-863.648Z" transform="translate(-1325.045 4778.325)" fill="#93ea20"/>
    <path id="Trazado_36927-41" data-name="Trazado 36927" d="M1435.853-868.486h-5.644a1.209,1.209,0,0,0-1.209,1.209v5.644a1.209,1.209,0,0,0,1.209,1.209h5.644a1.21,1.21,0,0,0,1.209-1.209v-5.644A1.209,1.209,0,0,0,1435.853-868.486Zm-2.822,4.838a.806.806,0,0,1-.806-.806.806.806,0,0,1,.806-.806.806.806,0,0,1,.806.806A.806.806,0,0,1,1433.031-863.648Z" transform="translate(-1283.796 4778.325)" fill="#93ea20"/>
    <path id="Trazado_36927-42" data-name="Trazado 36927" d="M1435.853-868.486h-5.644a1.209,1.209,0,0,0-1.209,1.209v5.644a1.209,1.209,0,0,0,1.209,1.209h5.644a1.21,1.21,0,0,0,1.209-1.209v-5.644A1.209,1.209,0,0,0,1435.853-868.486Zm-2.822,4.838a.806.806,0,0,1-.806-.806.806.806,0,0,1,.806-.806.806.806,0,0,1,.806.806A.806.806,0,0,1,1433.031-863.648Z" transform="translate(-1241.063 4778.325)" fill="#93ea20"/>
    <path id="Trazado_36927-43" data-name="Trazado 36927" d="M1435.853-868.486h-5.644a1.209,1.209,0,0,0-1.209,1.209v5.644a1.209,1.209,0,0,0,1.209,1.209h5.644a1.21,1.21,0,0,0,1.209-1.209v-5.644A1.209,1.209,0,0,0,1435.853-868.486Zm-2.822,4.838a.806.806,0,0,1-.806-.806.806.806,0,0,1,.806-.806.806.806,0,0,1,.806.806A.806.806,0,0,1,1433.031-863.648Z" transform="translate(-1451.018 4809.215)" fill="#93ea20"/>
    <path id="Trazado_36927-44" data-name="Trazado 36927" d="M1435.853-868.486h-5.644a1.209,1.209,0,0,0-1.209,1.209v5.644a1.209,1.209,0,0,0,1.209,1.209h5.644a1.21,1.21,0,0,0,1.209-1.209v-5.644A1.209,1.209,0,0,0,1435.853-868.486Zm-2.822,4.838a.806.806,0,0,1-.806-.806.806.806,0,0,1,.806-.806.806.806,0,0,1,.806.806A.806.806,0,0,1,1433.031-863.648Z" transform="translate(-1409.027 4809.215)" fill="#93ea20"/>
    <path id="Trazado_36927-45" data-name="Trazado 36927" d="M1435.853-868.486h-5.644a1.209,1.209,0,0,0-1.209,1.209v5.644a1.209,1.209,0,0,0,1.209,1.209h5.644a1.21,1.21,0,0,0,1.209-1.209v-5.644A1.209,1.209,0,0,0,1435.853-868.486Zm-2.822,4.838a.806.806,0,0,1-.806-.806.806.806,0,0,1,.806-.806.806.806,0,0,1,.806.806A.806.806,0,0,1,1433.031-863.648Z" transform="translate(-1367.036 4809.215)" fill="#93ea20"/>
    <path id="Trazado_36927-46" data-name="Trazado 36927" d="M1435.853-868.486h-5.644a1.209,1.209,0,0,0-1.209,1.209v5.644a1.209,1.209,0,0,0,1.209,1.209h5.644a1.21,1.21,0,0,0,1.209-1.209v-5.644A1.209,1.209,0,0,0,1435.853-868.486Zm-2.822,4.838a.806.806,0,0,1-.806-.806.806.806,0,0,1,.806-.806.806.806,0,0,1,.806.806A.806.806,0,0,1,1433.031-863.648Z" transform="translate(-1325.045 4809.215)" fill="#93ea20"/>
    <path id="Trazado_36927-47" data-name="Trazado 36927" d="M1435.853-868.486h-5.644a1.209,1.209,0,0,0-1.209,1.209v5.644a1.209,1.209,0,0,0,1.209,1.209h5.644a1.21,1.21,0,0,0,1.209-1.209v-5.644A1.209,1.209,0,0,0,1435.853-868.486Zm-2.822,4.838a.806.806,0,0,1-.806-.806.806.806,0,0,1,.806-.806.806.806,0,0,1,.806.806A.806.806,0,0,1,1433.031-863.648Z" transform="translate(-1283.796 4809.215)" fill="#93ea20"/>
    <path id="Trazado_36927-48" data-name="Trazado 36927" d="M1435.853-868.486h-5.644a1.209,1.209,0,0,0-1.209,1.209v5.644a1.209,1.209,0,0,0,1.209,1.209h5.644a1.21,1.21,0,0,0,1.209-1.209v-5.644A1.209,1.209,0,0,0,1435.853-868.486Zm-2.822,4.838a.806.806,0,0,1-.806-.806.806.806,0,0,1,.806-.806.806.806,0,0,1,.806.806A.806.806,0,0,1,1433.031-863.648Z" transform="translate(-1241.063 4809.215)" fill="#93ea20"/>
    <path id="Trazado_36927-49" data-name="Trazado 36927" d="M1435.853-868.486h-5.644a1.209,1.209,0,0,0-1.209,1.209v5.644a1.209,1.209,0,0,0,1.209,1.209h5.644a1.21,1.21,0,0,0,1.209-1.209v-5.644A1.209,1.209,0,0,0,1435.853-868.486Zm-2.822,4.838a.806.806,0,0,1-.806-.806.806.806,0,0,1,.806-.806.806.806,0,0,1,.806.806A.806.806,0,0,1,1433.031-863.648Z" transform="translate(-1451.018 4840.104)" fill="#93ea20"/>
    <path id="Trazado_36927-50" data-name="Trazado 36927" d="M1435.853-868.486h-5.644a1.209,1.209,0,0,0-1.209,1.209v5.644a1.209,1.209,0,0,0,1.209,1.209h5.644a1.21,1.21,0,0,0,1.209-1.209v-5.644A1.209,1.209,0,0,0,1435.853-868.486Zm-2.822,4.838a.806.806,0,0,1-.806-.806.806.806,0,0,1,.806-.806.806.806,0,0,1,.806.806A.806.806,0,0,1,1433.031-863.648Z" transform="translate(-1409.027 4840.104)" fill="#93ea20"/>
    <path id="Trazado_36927-51" data-name="Trazado 36927" d="M1435.853-868.486h-5.644a1.209,1.209,0,0,0-1.209,1.209v5.644a1.209,1.209,0,0,0,1.209,1.209h5.644a1.21,1.21,0,0,0,1.209-1.209v-5.644A1.209,1.209,0,0,0,1435.853-868.486Zm-2.822,4.838a.806.806,0,0,1-.806-.806.806.806,0,0,1,.806-.806.806.806,0,0,1,.806.806A.806.806,0,0,1,1433.031-863.648Z" transform="translate(-1367.036 4840.104)" fill="#93ea20"/>
    <path id="Trazado_36927-52" data-name="Trazado 36927" d="M1435.853-868.486h-5.644a1.209,1.209,0,0,0-1.209,1.209v5.644a1.209,1.209,0,0,0,1.209,1.209h5.644a1.21,1.21,0,0,0,1.209-1.209v-5.644A1.209,1.209,0,0,0,1435.853-868.486Zm-2.822,4.838a.806.806,0,0,1-.806-.806.806.806,0,0,1,.806-.806.806.806,0,0,1,.806.806A.806.806,0,0,1,1433.031-863.648Z" transform="translate(-1325.045 4840.104)" fill="#93ea20"/>
    <path id="Trazado_36927-53" data-name="Trazado 36927" d="M1435.853-868.486h-5.644a1.209,1.209,0,0,0-1.209,1.209v5.644a1.209,1.209,0,0,0,1.209,1.209h5.644a1.21,1.21,0,0,0,1.209-1.209v-5.644A1.209,1.209,0,0,0,1435.853-868.486Zm-2.822,4.838a.806.806,0,0,1-.806-.806.806.806,0,0,1,.806-.806.806.806,0,0,1,.806.806A.806.806,0,0,1,1433.031-863.648Z" transform="translate(-1283.796 4840.104)" fill="#93ea20"/>
    <path id="Trazado_36927-54" data-name="Trazado 36927" d="M1435.853-868.486h-5.644a1.209,1.209,0,0,0-1.209,1.209v5.644a1.209,1.209,0,0,0,1.209,1.209h5.644a1.21,1.21,0,0,0,1.209-1.209v-5.644A1.209,1.209,0,0,0,1435.853-868.486Zm-2.822,4.838a.806.806,0,0,1-.806-.806.806.806,0,0,1,.806-.806.806.806,0,0,1,.806.806A.806.806,0,0,1,1433.031-863.648Z" transform="translate(-1241.063 4840.104)" fill="#93ea20"/>
    <path id="Trazado_36927-55" data-name="Trazado 36927" d="M1435.853-868.486h-5.644a1.209,1.209,0,0,0-1.209,1.209v5.644a1.209,1.209,0,0,0,1.209,1.209h5.644a1.21,1.21,0,0,0,1.209-1.209v-5.644A1.209,1.209,0,0,0,1435.853-868.486Zm-2.822,4.838a.806.806,0,0,1-.806-.806.806.806,0,0,1,.806-.806.806.806,0,0,1,.806.806A.806.806,0,0,1,1433.031-863.648Z" transform="translate(-1451.018 4870.439)" fill="#93ea20"/>
    <path id="Trazado_36927-56" data-name="Trazado 36927" d="M1435.853-868.486h-5.644a1.209,1.209,0,0,0-1.209,1.209v5.644a1.209,1.209,0,0,0,1.209,1.209h5.644a1.21,1.21,0,0,0,1.209-1.209v-5.644A1.209,1.209,0,0,0,1435.853-868.486Zm-2.822,4.838a.806.806,0,0,1-.806-.806.806.806,0,0,1,.806-.806.806.806,0,0,1,.806.806A.806.806,0,0,1,1433.031-863.648Z" transform="translate(-1409.027 4870.439)" fill="#93ea20"/>
    <path id="Trazado_36927-57" data-name="Trazado 36927" d="M1435.853-868.486h-5.644a1.209,1.209,0,0,0-1.209,1.209v5.644a1.209,1.209,0,0,0,1.209,1.209h5.644a1.21,1.21,0,0,0,1.209-1.209v-5.644A1.209,1.209,0,0,0,1435.853-868.486Zm-2.822,4.838a.806.806,0,0,1-.806-.806.806.806,0,0,1,.806-.806.806.806,0,0,1,.806.806A.806.806,0,0,1,1433.031-863.648Z" transform="translate(-1367.036 4870.439)" fill="#93ea20"/>
    <path id="Trazado_36927-58" data-name="Trazado 36927" d="M1435.853-868.486h-5.644a1.209,1.209,0,0,0-1.209,1.209v5.644a1.209,1.209,0,0,0,1.209,1.209h5.644a1.21,1.21,0,0,0,1.209-1.209v-5.644A1.209,1.209,0,0,0,1435.853-868.486Zm-2.822,4.838a.806.806,0,0,1-.806-.806.806.806,0,0,1,.806-.806.806.806,0,0,1,.806.806A.806.806,0,0,1,1433.031-863.648Z" transform="translate(-1325.045 4870.439)" fill="#93ea20"/>
    <path id="Trazado_36927-59" data-name="Trazado 36927" d="M1435.853-868.486h-5.644a1.209,1.209,0,0,0-1.209,1.209v5.644a1.209,1.209,0,0,0,1.209,1.209h5.644a1.21,1.21,0,0,0,1.209-1.209v-5.644A1.209,1.209,0,0,0,1435.853-868.486Zm-2.822,4.838a.806.806,0,0,1-.806-.806.806.806,0,0,1,.806-.806.806.806,0,0,1,.806.806A.806.806,0,0,1,1433.031-863.648Z" transform="translate(-1283.796 4870.439)" fill="#93ea20"/>
    <path id="Trazado_36927-60" data-name="Trazado 36927" d="M1435.853-868.486h-5.644a1.209,1.209,0,0,0-1.209,1.209v5.644a1.209,1.209,0,0,0,1.209,1.209h5.644a1.21,1.21,0,0,0,1.209-1.209v-5.644A1.209,1.209,0,0,0,1435.853-868.486Zm-2.822,4.838a.806.806,0,0,1-.806-.806.806.806,0,0,1,.806-.806.806.806,0,0,1,.806.806A.806.806,0,0,1,1433.031-863.648Z" transform="translate(-1241.063 4870.439)" fill="#93ea20"/>
    <path id="Trazado_36927-61" data-name="Trazado 36927" d="M1435.853-868.486h-5.644a1.209,1.209,0,0,0-1.209,1.209v5.644a1.209,1.209,0,0,0,1.209,1.209h5.644a1.21,1.21,0,0,0,1.209-1.209v-5.644A1.209,1.209,0,0,0,1435.853-868.486Zm-2.822,4.838a.806.806,0,0,1-.806-.806.806.806,0,0,1,.806-.806.806.806,0,0,1,.806.806A.806.806,0,0,1,1433.031-863.648Z" transform="translate(-1451.018 4901.884)" fill="#93ea20"/>
    <path id="Trazado_36927-62" data-name="Trazado 36927" d="M1435.853-868.486h-5.644a1.209,1.209,0,0,0-1.209,1.209v5.644a1.209,1.209,0,0,0,1.209,1.209h5.644a1.21,1.21,0,0,0,1.209-1.209v-5.644A1.209,1.209,0,0,0,1435.853-868.486Zm-2.822,4.838a.806.806,0,0,1-.806-.806.806.806,0,0,1,.806-.806.806.806,0,0,1,.806.806A.806.806,0,0,1,1433.031-863.648Z" transform="translate(-1409.027 4901.884)" fill="#93ea20"/>
    <path id="Trazado_36927-63" data-name="Trazado 36927" d="M1435.853-868.486h-5.644a1.209,1.209,0,0,0-1.209,1.209v5.644a1.209,1.209,0,0,0,1.209,1.209h5.644a1.21,1.21,0,0,0,1.209-1.209v-5.644A1.209,1.209,0,0,0,1435.853-868.486Zm-2.822,4.838a.806.806,0,0,1-.806-.806.806.806,0,0,1,.806-.806.806.806,0,0,1,.806.806A.806.806,0,0,1,1433.031-863.648Z" transform="translate(-1367.036 4901.884)" fill="#93ea20"/>
    <path id="Trazado_36927-64" data-name="Trazado 36927" d="M1435.853-868.486h-5.644a1.209,1.209,0,0,0-1.209,1.209v5.644a1.209,1.209,0,0,0,1.209,1.209h5.644a1.21,1.21,0,0,0,1.209-1.209v-5.644A1.209,1.209,0,0,0,1435.853-868.486Zm-2.822,4.838a.806.806,0,0,1-.806-.806.806.806,0,0,1,.806-.806.806.806,0,0,1,.806.806A.806.806,0,0,1,1433.031-863.648Z" transform="translate(-1325.045 4901.884)" fill="#93ea20"/>
    <path id="Trazado_36927-65" data-name="Trazado 36927" d="M1435.853-868.486h-5.644a1.209,1.209,0,0,0-1.209,1.209v5.644a1.209,1.209,0,0,0,1.209,1.209h5.644a1.21,1.21,0,0,0,1.209-1.209v-5.644A1.209,1.209,0,0,0,1435.853-868.486Zm-2.822,4.838a.806.806,0,0,1-.806-.806.806.806,0,0,1,.806-.806.806.806,0,0,1,.806.806A.806.806,0,0,1,1433.031-863.648Z" transform="translate(-1283.796 4901.884)" fill="#93ea20"/>
    <path id="Trazado_36927-66" data-name="Trazado 36927" d="M1435.853-868.486h-5.644a1.209,1.209,0,0,0-1.209,1.209v5.644a1.209,1.209,0,0,0,1.209,1.209h5.644a1.21,1.21,0,0,0,1.209-1.209v-5.644A1.209,1.209,0,0,0,1435.853-868.486Zm-2.822,4.838a.806.806,0,0,1-.806-.806.806.806,0,0,1,.806-.806.806.806,0,0,1,.806.806A.806.806,0,0,1,1433.031-863.648Z" transform="translate(-1241.063 4901.884)" fill="#93ea20"/>
    <path id="Trazado_36927-67" data-name="Trazado 36927" d="M1435.853-868.486h-5.644a1.209,1.209,0,0,0-1.209,1.209v5.644a1.209,1.209,0,0,0,1.209,1.209h5.644a1.21,1.21,0,0,0,1.209-1.209v-5.644A1.209,1.209,0,0,0,1435.853-868.486Zm-2.822,4.838a.806.806,0,0,1-.806-.806.806.806,0,0,1,.806-.806.806.806,0,0,1,.806.806A.806.806,0,0,1,1433.031-863.648Z" transform="translate(-1535 4592.986)" fill="#93ea20"/>
    <path id="Trazado_36927-68" data-name="Trazado 36927" d="M1435.853-868.486h-5.644a1.209,1.209,0,0,0-1.209,1.209v5.644a1.209,1.209,0,0,0,1.209,1.209h5.644a1.21,1.21,0,0,0,1.209-1.209v-5.644A1.209,1.209,0,0,0,1435.853-868.486Zm-2.822,4.838a.806.806,0,0,1-.806-.806.806.806,0,0,1,.806-.806.806.806,0,0,1,.806.806A.806.806,0,0,1,1433.031-863.648Z" transform="translate(-1492.267 4592.986)" fill="#93ea20"/>
    <path id="Trazado_36927-69" data-name="Trazado 36927" d="M1435.853-868.486h-5.644a1.209,1.209,0,0,0-1.209,1.209v5.644a1.209,1.209,0,0,0,1.209,1.209h5.644a1.21,1.21,0,0,0,1.209-1.209v-5.644A1.209,1.209,0,0,0,1435.853-868.486Zm-2.822,4.838a.806.806,0,0,1-.806-.806.806.806,0,0,1,.806-.806.806.806,0,0,1,.806.806A.806.806,0,0,1,1433.031-863.648Z" transform="translate(-1535 4624.431)" fill="#93ea20"/>
    <path id="Trazado_36927-70" data-name="Trazado 36927" d="M1435.853-868.486h-5.644a1.209,1.209,0,0,0-1.209,1.209v5.644a1.209,1.209,0,0,0,1.209,1.209h5.644a1.21,1.21,0,0,0,1.209-1.209v-5.644A1.209,1.209,0,0,0,1435.853-868.486Zm-2.822,4.838a.806.806,0,0,1-.806-.806.806.806,0,0,1,.806-.806.806.806,0,0,1,.806.806A.806.806,0,0,1,1433.031-863.648Z" transform="translate(-1492.267 4624.431)" fill="#93ea20"/>
    <path id="Trazado_36927-71" data-name="Trazado 36927" d="M1435.853-868.486h-5.644a1.209,1.209,0,0,0-1.209,1.209v5.644a1.209,1.209,0,0,0,1.209,1.209h5.644a1.21,1.21,0,0,0,1.209-1.209v-5.644A1.209,1.209,0,0,0,1435.853-868.486Zm-2.822,4.838a.806.806,0,0,1-.806-.806.806.806,0,0,1,.806-.806.806.806,0,0,1,.806.806A.806.806,0,0,1,1433.031-863.648Z" transform="translate(-1535 4654.766)" fill="#93ea20"/>
    <path id="Trazado_36927-72" data-name="Trazado 36927" d="M1435.853-868.486h-5.644a1.209,1.209,0,0,0-1.209,1.209v5.644a1.209,1.209,0,0,0,1.209,1.209h5.644a1.21,1.21,0,0,0,1.209-1.209v-5.644A1.209,1.209,0,0,0,1435.853-868.486Zm-2.822,4.838a.806.806,0,0,1-.806-.806.806.806,0,0,1,.806-.806.806.806,0,0,1,.806.806A.806.806,0,0,1,1433.031-863.648Z" transform="translate(-1492.267 4654.766)" fill="#93ea20"/>
    <path id="Trazado_36927-73" data-name="Trazado 36927" d="M1435.853-868.486h-5.644a1.209,1.209,0,0,0-1.209,1.209v5.644a1.209,1.209,0,0,0,1.209,1.209h5.644a1.21,1.21,0,0,0,1.209-1.209v-5.644A1.209,1.209,0,0,0,1435.853-868.486Zm-2.822,4.838a.806.806,0,0,1-.806-.806.806.806,0,0,1,.806-.806.806.806,0,0,1,.806.806A.806.806,0,0,1,1433.031-863.648Z" transform="translate(-1535 4685.655)" fill="#93ea20"/>
    <path id="Trazado_36927-74" data-name="Trazado 36927" d="M1435.853-868.486h-5.644a1.209,1.209,0,0,0-1.209,1.209v5.644a1.209,1.209,0,0,0,1.209,1.209h5.644a1.21,1.21,0,0,0,1.209-1.209v-5.644A1.209,1.209,0,0,0,1435.853-868.486Zm-2.822,4.838a.806.806,0,0,1-.806-.806.806.806,0,0,1,.806-.806.806.806,0,0,1,.806.806A.806.806,0,0,1,1433.031-863.648Z" transform="translate(-1492.267 4685.655)" fill="#93ea20"/>
    <path id="Trazado_36927-75" data-name="Trazado 36927" d="M1435.853-868.486h-5.644a1.209,1.209,0,0,0-1.209,1.209v5.644a1.209,1.209,0,0,0,1.209,1.209h5.644a1.21,1.21,0,0,0,1.209-1.209v-5.644A1.209,1.209,0,0,0,1435.853-868.486Zm-2.822,4.838a.806.806,0,0,1-.806-.806.806.806,0,0,1,.806-.806.806.806,0,0,1,.806.806A.806.806,0,0,1,1433.031-863.648Z" transform="translate(-1535 4716.545)" fill="#93ea20"/>
    <path id="Trazado_36927-76" data-name="Trazado 36927" d="M1435.853-868.486h-5.644a1.209,1.209,0,0,0-1.209,1.209v5.644a1.209,1.209,0,0,0,1.209,1.209h5.644a1.21,1.21,0,0,0,1.209-1.209v-5.644A1.209,1.209,0,0,0,1435.853-868.486Zm-2.822,4.838a.806.806,0,0,1-.806-.806.806.806,0,0,1,.806-.806.806.806,0,0,1,.806.806A.806.806,0,0,1,1433.031-863.648Z" transform="translate(-1492.267 4716.545)" fill="#93ea20"/>
    <path id="Trazado_36927-77" data-name="Trazado 36927" d="M1435.853-868.486h-5.644a1.209,1.209,0,0,0-1.209,1.209v5.644a1.209,1.209,0,0,0,1.209,1.209h5.644a1.21,1.21,0,0,0,1.209-1.209v-5.644A1.209,1.209,0,0,0,1435.853-868.486Zm-2.822,4.838a.806.806,0,0,1-.806-.806.806.806,0,0,1,.806-.806.806.806,0,0,1,.806.806A.806.806,0,0,1,1433.031-863.648Z" transform="translate(-1535 4747.435)" fill="#93ea20"/>
    <path id="Trazado_36927-78" data-name="Trazado 36927" d="M1435.853-868.486h-5.644a1.209,1.209,0,0,0-1.209,1.209v5.644a1.209,1.209,0,0,0,1.209,1.209h5.644a1.21,1.21,0,0,0,1.209-1.209v-5.644A1.209,1.209,0,0,0,1435.853-868.486Zm-2.822,4.838a.806.806,0,0,1-.806-.806.806.806,0,0,1,.806-.806.806.806,0,0,1,.806.806A.806.806,0,0,1,1433.031-863.648Z" transform="translate(-1492.267 4747.435)" fill="#93ea20"/>
    <path id="Trazado_36927-79" data-name="Trazado 36927" d="M1435.853-868.486h-5.644a1.209,1.209,0,0,0-1.209,1.209v5.644a1.209,1.209,0,0,0,1.209,1.209h5.644a1.21,1.21,0,0,0,1.209-1.209v-5.644A1.209,1.209,0,0,0,1435.853-868.486Zm-2.822,4.838a.806.806,0,0,1-.806-.806.806.806,0,0,1,.806-.806.806.806,0,0,1,.806.806A.806.806,0,0,1,1433.031-863.648Z" transform="translate(-1535 4778.325)" fill="#93ea20"/>
    <path id="Trazado_36927-80" data-name="Trazado 36927" d="M1435.853-868.486h-5.644a1.209,1.209,0,0,0-1.209,1.209v5.644a1.209,1.209,0,0,0,1.209,1.209h5.644a1.21,1.21,0,0,0,1.209-1.209v-5.644A1.209,1.209,0,0,0,1435.853-868.486Zm-2.822,4.838a.806.806,0,0,1-.806-.806.806.806,0,0,1,.806-.806.806.806,0,0,1,.806.806A.806.806,0,0,1,1433.031-863.648Z" transform="translate(-1492.267 4778.325)" fill="#93ea20"/>
    <path id="Trazado_36927-81" data-name="Trazado 36927" d="M1435.853-868.486h-5.644a1.209,1.209,0,0,0-1.209,1.209v5.644a1.209,1.209,0,0,0,1.209,1.209h5.644a1.21,1.21,0,0,0,1.209-1.209v-5.644A1.209,1.209,0,0,0,1435.853-868.486Zm-2.822,4.838a.806.806,0,0,1-.806-.806.806.806,0,0,1,.806-.806.806.806,0,0,1,.806.806A.806.806,0,0,1,1433.031-863.648Z" transform="translate(-1535 4809.215)" fill="#93ea20"/>
    <path id="Trazado_36927-82" data-name="Trazado 36927" d="M1435.853-868.486h-5.644a1.209,1.209,0,0,0-1.209,1.209v5.644a1.209,1.209,0,0,0,1.209,1.209h5.644a1.21,1.21,0,0,0,1.209-1.209v-5.644A1.209,1.209,0,0,0,1435.853-868.486Zm-2.822,4.838a.806.806,0,0,1-.806-.806.806.806,0,0,1,.806-.806.806.806,0,0,1,.806.806A.806.806,0,0,1,1433.031-863.648Z" transform="translate(-1492.267 4809.215)" fill="#93ea20"/>
    <path id="Trazado_36927-83" data-name="Trazado 36927" d="M1435.853-868.486h-5.644a1.209,1.209,0,0,0-1.209,1.209v5.644a1.209,1.209,0,0,0,1.209,1.209h5.644a1.21,1.21,0,0,0,1.209-1.209v-5.644A1.209,1.209,0,0,0,1435.853-868.486Zm-2.822,4.838a.806.806,0,0,1-.806-.806.806.806,0,0,1,.806-.806.806.806,0,0,1,.806.806A.806.806,0,0,1,1433.031-863.648Z" transform="translate(-1535 4840.104)" fill="#93ea20"/>
    <path id="Trazado_36927-84" data-name="Trazado 36927" d="M1435.853-868.486h-5.644a1.209,1.209,0,0,0-1.209,1.209v5.644a1.209,1.209,0,0,0,1.209,1.209h5.644a1.21,1.21,0,0,0,1.209-1.209v-5.644A1.209,1.209,0,0,0,1435.853-868.486Zm-2.822,4.838a.806.806,0,0,1-.806-.806.806.806,0,0,1,.806-.806.806.806,0,0,1,.806.806A.806.806,0,0,1,1433.031-863.648Z" transform="translate(-1492.267 4840.104)" fill="#93ea20"/>
    <path id="Trazado_36927-85" data-name="Trazado 36927" d="M1435.853-868.486h-5.644a1.209,1.209,0,0,0-1.209,1.209v5.644a1.209,1.209,0,0,0,1.209,1.209h5.644a1.21,1.21,0,0,0,1.209-1.209v-5.644A1.209,1.209,0,0,0,1435.853-868.486Zm-2.822,4.838a.806.806,0,0,1-.806-.806.806.806,0,0,1,.806-.806.806.806,0,0,1,.806.806A.806.806,0,0,1,1433.031-863.648Z" transform="translate(-1535 4870.439)" fill="#93ea20"/>
    <path id="Trazado_36927-86" data-name="Trazado 36927" d="M1435.853-868.486h-5.644a1.209,1.209,0,0,0-1.209,1.209v5.644a1.209,1.209,0,0,0,1.209,1.209h5.644a1.21,1.21,0,0,0,1.209-1.209v-5.644A1.209,1.209,0,0,0,1435.853-868.486Zm-2.822,4.838a.806.806,0,0,1-.806-.806.806.806,0,0,1,.806-.806.806.806,0,0,1,.806.806A.806.806,0,0,1,1433.031-863.648Z" transform="translate(-1492.267 4870.439)" fill="#93ea20"/>
    <path id="Trazado_36927-87" data-name="Trazado 36927" d="M1435.853-868.486h-5.644a1.209,1.209,0,0,0-1.209,1.209v5.644a1.209,1.209,0,0,0,1.209,1.209h5.644a1.21,1.21,0,0,0,1.209-1.209v-5.644A1.209,1.209,0,0,0,1435.853-868.486Zm-2.822,4.838a.806.806,0,0,1-.806-.806.806.806,0,0,1,.806-.806.806.806,0,0,1,.806.806A.806.806,0,0,1,1433.031-863.648Z" transform="translate(-1535 4901.884)" fill="#93ea20"/>
    <path id="Trazado_36927-88" data-name="Trazado 36927" d="M1435.853-868.486h-5.644a1.209,1.209,0,0,0-1.209,1.209v5.644a1.209,1.209,0,0,0,1.209,1.209h5.644a1.21,1.21,0,0,0,1.209-1.209v-5.644A1.209,1.209,0,0,0,1435.853-868.486Zm-2.822,4.838a.806.806,0,0,1-.806-.806.806.806,0,0,1,.806-.806.806.806,0,0,1,.806.806A.806.806,0,0,1,1433.031-863.648Z" transform="translate(-1492.267 4901.884)" fill="#93ea20"/>
  </g>
</svg>
