<svg xmlns="http://www.w3.org/2000/svg" width="112.814" height="113.137" viewBox="0 0 112.814 113.137">
  <g id="logo" transform="translate(-142.6 -226.509) rotate(45)">
    <g id="Grupo_34871" data-name="Grupo 34871" transform="translate(300.771 46.333)">
      <path id="Trazado_36869" data-name="Trazado 36869" d="M3363.865,2263.634h-18.138a3.893,3.893,0,0,0-3.887,3.9v18.2a3.893,3.893,0,0,0,3.887,3.9h18.138a3.894,3.894,0,0,0,3.887-3.9v-18.2A3.893,3.893,0,0,0,3363.865,2263.634Zm-9.069,15.6a2.6,2.6,0,1,1,2.591-2.6A2.6,2.6,0,0,1,3354.8,2279.234Z" transform="translate(-3315.039 -2263.634)" fill="#3cb147"/>
      <path id="Trazado_36887" data-name="Trazado 36887" d="M3363.865,2263.634h-18.138a3.893,3.893,0,0,0-3.887,3.9v18.2a3.893,3.893,0,0,0,3.887,3.9h18.138a3.894,3.894,0,0,0,3.887-3.9v-18.2A3.893,3.893,0,0,0,3363.865,2263.634Z" transform="translate(-3341.84 -2263.634)" fill="#3cb147"/>
      <path id="Trazado_36886" data-name="Trazado 36886" d="M3363.865,2263.634h-18.138a3.893,3.893,0,0,0-3.887,3.9v18.2a3.893,3.893,0,0,0,3.887,3.9h18.138a3.894,3.894,0,0,0,3.887-3.9v-18.2A3.893,3.893,0,0,0,3363.865,2263.634Z" transform="translate(-3287.752 -2263.634)" fill="#3cb147"/>
    </g>
    <g id="Grupo_34873" data-name="Grupo 34873" transform="translate(301 73.333)">
      <path id="Trazado_36887-2" data-name="Trazado 36887" d="M3363.865,2263.634h-18.138a3.893,3.893,0,0,0-3.887,3.9v18.2a3.893,3.893,0,0,0,3.887,3.9h18.138a3.894,3.894,0,0,0,3.887-3.9v-18.2A3.893,3.893,0,0,0,3363.865,2263.634Z" transform="translate(-3341.84 -2263.634)" fill="#004550"/>
      <path id="Trazado_36886-2" data-name="Trazado 36886" d="M3363.865,2263.634h-18.138a3.893,3.893,0,0,0-3.887,3.9v18.2a3.893,3.893,0,0,0,3.887,3.9h18.138a3.894,3.894,0,0,0,3.887-3.9v-18.2A3.893,3.893,0,0,0,3363.865,2263.634Z" transform="translate(-3287.752 -2263.634)" fill="#004550"/>
      <path id="Trazado_36889" data-name="Trazado 36889" d="M3363.865,2263.634h-18.138a3.893,3.893,0,0,0-3.887,3.9v18.2a3.893,3.893,0,0,0,3.887,3.9h18.138a3.894,3.894,0,0,0,3.887-3.9v-18.2A3.893,3.893,0,0,0,3363.865,2263.634Z" transform="translate(-3315.019 -2263.634)" fill="#004550"/>
    </g>
    <g id="Grupo_34872" data-name="Grupo 34872" transform="translate(300.771 19.561)">
      <path id="Trazado_36887-3" data-name="Trazado 36887" d="M3363.865,2263.634h-18.138a3.893,3.893,0,0,0-3.887,3.9v18.2a3.893,3.893,0,0,0,3.887,3.9h18.138a3.894,3.894,0,0,0,3.887-3.9v-18.2A3.893,3.893,0,0,0,3363.865,2263.634Z" transform="translate(-3341.84 -2263.634)" fill="#93ea20"/>
      <path id="Trazado_36886-3" data-name="Trazado 36886" d="M3363.865,2263.634h-18.138a3.893,3.893,0,0,0-3.887,3.9v18.2a3.893,3.893,0,0,0,3.887,3.9h18.138a3.894,3.894,0,0,0,3.887-3.9v-18.2A3.893,3.893,0,0,0,3363.865,2263.634Z" transform="translate(-3287.752 -2263.634)" fill="#93ea20"/>
      <path id="Trazado_36888" data-name="Trazado 36888" d="M3363.865,2263.634h-18.138a3.893,3.893,0,0,0-3.887,3.9v18.2a3.893,3.893,0,0,0,3.887,3.9h18.138a3.894,3.894,0,0,0,3.887-3.9v-18.2A3.893,3.893,0,0,0,3363.865,2263.634Z" transform="translate(-3314.638 -2263.634)" fill="#93ea20"/>
    </g>
  </g>
</svg>
