<svg id="phone" xmlns="http://www.w3.org/2000/svg" width="18.169" height="18.195" viewBox="0 0 18.169 18.195">
  <g id="Grupo_34842" data-name="Grupo 34842" transform="translate(0)">
    <path id="Trazado_36828" data-name="Trazado 36828" d="M14.711,37.625a1.79,1.79,0,0,0-1.3-.6,1.851,1.851,0,0,0-1.313.591l-1.214,1.21c-.1-.054-.2-.1-.3-.154-.138-.069-.269-.134-.38-.2a13.189,13.189,0,0,1-3.16-2.88,7.781,7.781,0,0,1-1.037-1.636c.315-.288.607-.588.891-.876.108-.108.215-.219.323-.326a1.762,1.762,0,0,0,0-2.657L6.178,29.05c-.119-.119-.242-.242-.357-.365-.23-.238-.472-.484-.722-.714a1.818,1.818,0,0,0-1.286-.565,1.881,1.881,0,0,0-1.306.565l-.008.008L1.194,29.3A2.809,2.809,0,0,0,.36,31.081a6.732,6.732,0,0,0,.492,2.849,16.535,16.535,0,0,0,2.938,4.9,18.072,18.072,0,0,0,6.018,4.712,9.376,9.376,0,0,0,3.379,1c.081,0,.165.008.242.008a2.894,2.894,0,0,0,2.216-.952c0-.008.012-.012.015-.019a8.731,8.731,0,0,1,.672-.7c.165-.157.334-.323.5-.5a1.916,1.916,0,0,0,.58-1.329,1.846,1.846,0,0,0-.591-1.317Zm1.375,4.044s0,0,0,0c-.15.161-.3.307-.469.469a10.1,10.1,0,0,0-.741.768,1.851,1.851,0,0,1-1.444.611c-.058,0-.119,0-.177,0a8.329,8.329,0,0,1-3-.9,17.058,17.058,0,0,1-5.668-4.439,15.59,15.59,0,0,1-2.765-4.6,5.483,5.483,0,0,1-.43-2.4,1.763,1.763,0,0,1,.53-1.141l1.31-1.31a.873.873,0,0,1,.584-.273.821.821,0,0,1,.561.269l.012.012c.234.219.457.445.691.687.119.123.242.246.365.372L6.5,30.831a.733.733,0,0,1,0,1.19c-.111.111-.219.223-.33.33-.323.33-.63.637-.964.937-.008.008-.015.012-.019.019a.783.783,0,0,0-.2.872L5,34.215a8.417,8.417,0,0,0,1.24,2.024l0,0a14.1,14.1,0,0,0,3.41,3.1,5.244,5.244,0,0,0,.472.257c.138.069.269.134.38.2.015.008.031.019.046.027a.832.832,0,0,0,.38.1.821.821,0,0,0,.584-.265l1.313-1.313a.869.869,0,0,1,.58-.288.782.782,0,0,1,.553.28l.008.008,2.116,2.116A.759.759,0,0,1,16.086,41.668Z" transform="translate(-0.344 -26.354)" fill="#93ea20"/>
    <path id="Trazado_36829" data-name="Trazado 36829" d="M245.37,86.954a4.942,4.942,0,0,1,4.025,4.025.515.515,0,0,0,.511.43.685.685,0,0,0,.088-.008.519.519,0,0,0,.426-.6,5.976,5.976,0,0,0-4.869-4.869.521.521,0,0,0-.6.422A.513.513,0,0,0,245.37,86.954Z" transform="translate(-235.551 -82.626)" fill="#93ea20"/>
    <path id="Trazado_36830" data-name="Trazado 36830" d="M257.4,8.026A9.84,9.84,0,0,0,249.378.008a.518.518,0,1,0-.169,1.021A8.789,8.789,0,0,1,256.374,8.2a.515.515,0,0,0,.511.43.685.685,0,0,0,.088-.008A.509.509,0,0,0,257.4,8.026Z" transform="translate(-239.235 0)" fill="#93ea20"/>
  </g>
</svg>
