<?xml version="1.0" standalone="no"?>
<!DOCTYPE svg PUBLIC "-//W3C//DTD SVG 1.1//EN" "http://www.w3.org/Graphics/SVG/1.1/DTD/svg11.dtd">
<svg xmlns="http://www.w3.org/2000/svg">
<metadata></metadata>
<defs>
<font id="cy" horiz-adv-x="1000" >
<font-face font-family="cy" font-weight="400" font-stretch="normal" units-per-em="1000" ascent="850" descent="-150" />
<missing-glyph horiz-adv-x="1000" />
<glyph glyph-name="account-user" unicode="&#xe800;" d="M1000 350c0 276-224 500-500 500-276 0-500-224-500-500 0-274 222-500 500-500 277 0 500 225 500 500z m-500 441c243 0 441-198 441-441 0-89-26-175-75-247-197 212-534 212-732 0-49 72-75 158-75 247 0 243 198 441 441 441z m-329-735c175 197 483 197 658 0-176-197-482-197-658 0z m0 0m329 265c97 0 176 79 176 176v58c0 97-79 176-176 176s-176-79-176-176v-58c0-97 79-176 176-176z m-117 234c0 65 52 117 117 117s117-52 117-117v-58c0-65-52-118-117-118s-117 53-117 118z m0 0" horiz-adv-x="1000" />

<glyph glyph-name="alarm-clock" unicode="&#xe801;" d="M591 382c-8 9-22 9-31 0l-42-42c-5 2-11 4-18 4-6 0-13-2-18-4l-86 86c-9 8-23 8-31 0-9-9-9-23 0-32l85-85c-2-6-3-12-3-19 0-29 24-53 53-53 29 0 53 24 53 53 0 7-1 13-3 19l41 42c9 8 9 22 0 31z m-91-105c-7 0-13 6-13 14s6 13 13 13c7 0 13-6 13-13 0-8-6-14-13-14z m262 349l25 36 100-70c4-3 9-4 13-4 1 0 3 0 4 0 6 1 11 4 14 9 51 73 33 173-39 224-73 51-173 33-224-39-7-10-4-24 6-31l89-63-25-36c-65 41-142 65-225 65-83 0-160-24-225-65l-25 36 90 63c10 7 12 21 5 31-51 72-151 90-224 39-72-51-90-151-39-224 3-5 8-8 14-9 1 0 3 0 4 0 4 0 9 1 13 4l100 70 25-35c-100-79-164-200-164-337 0-148 76-279 191-355l-35-50c-7-10-4-24 6-31 4-3 8-4 12-4 7 0 14 3 19 9l37 53c59-30 125-48 196-48 71 0 138 18 196 48l37-53c5-6 12-9 19-9 4 0 8 1 12 4 10 7 13 21 6 31l-35 50c115 76 191 207 191 355 0 137-64 258-164 336z m-56 147c39 38 101 44 147 12 47-33 62-93 40-143l-187 131z m-599-131c-22 50-7 110 40 143 20 14 43 21 66 21 30 0 59-12 81-33l-187-131z m393-733c-210 0-382 171-382 381s172 382 382 382 382-171 382-382-171-381-382-381z m0 695c-173 0-313-141-313-314s140-313 313-313 313 141 313 313-140 314-313 314z m208-490l-15 15c-8 8-22 8-31 0-9-9-9-23 0-32l15-15c-42-36-96-59-155-64v21c0 13-10 22-22 22-12 0-22-9-22-22v-21c-59 5-112 28-155 64l15 15c9 9 9 23 0 32-9 8-23 8-31 0l-15-15c-36 42-60 96-64 154h21c12 0 22 10 22 22 0 13-10 23-22 23h-21c4 58 28 112 64 154l15-15c4-4 10-6 15-6s12 2 16 6c9 9 9 23 0 32l-15 15c43 36 96 59 155 64v-21c0-13 10-22 22-22 12 0 22 9 22 22v21c59-5 113-28 155-64l-15-15c-9-9-9-23 0-32 4-4 10-6 16-6s11 2 15 6l15 15c36-42 60-96 65-154h-22c-12 0-22-10-22-23s10-22 22-22h22c-5-58-29-112-65-154z" horiz-adv-x="1000" />

<glyph glyph-name="android" unicode="&#xe802;" d="M718 783c6 11 6 24 2 36-4 11-12 21-23 26-23 12-51 2-62-21l-47-95c-39 21-84 33-132 33s-93-12-132-33l-47 95c-11 23-39 33-62 21-11-5-19-15-23-26-4-12-4-25 2-36l55-112c-47-50-76-118-76-192 0-8 7-14 15-14h536c8 0 15 6 15 14 0 74-29 142-76 192z m-56 28c4 8 14 12 22 8 8-4 12-14 8-23l-51-103c-9 7-18 14-27 21z m-434 8c8 4 18 0 22-8l48-97c-9-7-18-14-27-21l-51 103c-4 9 0 19 8 23z m-25-325c8 133 118 238 253 238 135 0 245-105 253-238z m0 0m639-63c-39 0-70-31-70-70v-236c0-39 31-70 70-70 39 0 70 31 70 70v236c0 39-31 70-70 70z m40-306c0-22-18-41-40-41-22 0-40 19-40 41v236c0 22 18 41 40 41 22 0 40-19 40-41z m0 0m-158 306h-77c-8 0-15-7-15-15 0-8 7-14 15-14h62v-349h-64c-8 0-15-7-15-15v-118c0-22-18-41-40-41-22 0-40 19-40 41v118c0 8-7 15-15 15h-158c-8 0-15-7-15-15v-118c0-22-18-41-40-41-22 0-40 19-40 41v118c0 8-7 15-15 15h-64v349h372c8 0 15 6 15 14 0 8-7 15-15 15h-387c-8 0-15-7-15-15v-378c0-8 7-15 15-15h64v-103c0-39 32-70 70-70 39 0 70 31 70 70v103h128v-103c0-39 31-70 70-70 38 0 70 31 70 70v103h64c8 0 15 7 15 15v378c0 8-7 15-15 15z m0 0m-654 0c-39 0-70-31-70-70v-236c0-39 31-70 70-70 39 0 70 31 70 70v236c0 39-31 70-70 70z m40-306c0-22-18-41-40-41-22 0-40 19-40 41v236c0 22 18 41 40 41 22 0 40-19 40-41z m0 0m220 495c-26 0-46-21-46-46s20-46 46-46 46 20 46 46-21 46-46 46z m0-63c-9 0-17 8-17 17s8 17 17 17c9 0 17-8 17-17s-8-17-17-17z m0 0m252 63c-25 0-46-21-46-46s21-46 46-46c26 0 46 20 46 46s-20 46-46 46z m0-63c-9 0-17 8-17 17s8 17 17 17c9 0 17-8 17-17s-8-17-17-17z m0 0" horiz-adv-x="1000" />

<glyph glyph-name="atomic" unicode="&#xe803;" d="M526 457c-71 0-129-58-129-129 0-71 58-128 129-128 71 0 129 57 129 128 0 71-58 129-129 129z m0-209c-44 0-80 36-80 80s36 80 80 80c44 0 80-36 80-80s-36-80-80-80z m471 303c9 69-2 129-32 173 5 10 8 22 8 35 0 48-39 87-87 87-32 0-60-18-75-44-82 4-181-26-285-86-176 102-336 114-419 31-36-36-55-87-55-149-30-14-52-44-52-80 0-48 39-87 87-87 0 0 1 0 1 0 13-33 30-68 50-103-102-176-114-336-31-419 37-37 88-55 150-55 77 0 171 29 269 86 99-57 192-86 270-86 61 0 113 18 149 55 83 83 71 243-31 419 45 78 73 155 83 223z m-111 246c21 0 38-17 38-38 0-21-17-38-38-38s-38 17-38 38 17 38 38 38z m-86-44c3-45 41-80 86-80 17 0 32 4 46 12 18-32 23-76 16-128-7-55-29-117-63-181-39 59-86 116-141 170-54 55-111 102-170 141 83 44 161 67 226 66z m-713-273c-21 0-38 17-38 38 0 21 17 38 38 38 21 0 38-17 38-38 0-21-17-38-38-38z m48-34c23 16 38 42 38 72 0 43-31 78-72 85 1 47 15 84 40 110 63 62 193 51 338-26-60-39-117-86-171-141-54-54-101-111-140-170-13 23-24 47-33 70z m6-503c-62 63-51 193 27 338 39-60 86-117 140-171 54-54 111-101 171-140-145-78-275-89-338-27z m201 201c-58 59-107 120-147 184 40 64 89 126 147 184 58 58 120 108 184 147 64-39 126-89 184-147 58-58 108-120 147-184-39-64-89-125-147-184-58-58-120-107-184-147-64 40-126 89-184 147z m569-201c-62-62-192-51-337 27 59 39 116 86 170 140 55 54 102 111 141 171 77-145 88-275 26-338z" horiz-adv-x="1000" />

<glyph glyph-name="bar-chart" unicode="&#xe804;" d="M976-42h-952c-13 0-24-10-24-23 0-14 11-24 24-24h952c13 0 24 10 24 24 0 13-11 23-24 23z m-61 720h-166c-13 0-24-11-24-24v-161h-118v272c0 14-11 24-24 24h-166c-13 0-24-10-24-24v-447h-118v201c0 13-11 24-24 24h-166c-13 0-23-11-23-24v-452c0-13 10-24 23-24h166 166 166 166 166c13 0 23 11 23 24v587c0 13-10 24-23 24z m-687-587h-119v405h119v-405z m165 0h-118v180h118v-180z m166 379v-379h-118v651h118v-272z m166-379h-118v355h118v-355z m166 0h-118v379 160h118v-539z" horiz-adv-x="1000" />

<glyph glyph-name="battery-low" unicode="&#xe805;" d="M956 466h-51v78c0 37-29 66-65 66h-774c-37 0-66-29-66-66v-388c0-36 29-66 66-66h774c36 0 65 30 65 66v78h51c24 0 44 19 44 43v146c0 24-20 43-44 43z m-735-332h-155c-13 0-22 10-22 22v388c0 13 9 22 22 22h155v-432z m641 22c0-12-10-22-22-22h-575v432h575c12 0 22-9 22-22v-388z m94 121h-51v146h51l0-146c0 0 0 0 0 0z m-246 102c-6 10-19 13-30 7l-95-61v89c0 8-4 16-11 20-7 3-16 3-22-1l-129-82c-10-6-13-20-7-30 7-10 20-13 30-7l96 61v-89c0-8 4-16 11-19 3-2 7-3 10-3 4 0 8 1 12 3l129 82c10 6 13 20 6 30z" horiz-adv-x="1000" />

<glyph glyph-name="battery" unicode="&#xe806;" d="M956 466h-51v78c0 37-29 66-65 66h-774c-37 0-66-29-66-66v-388c0-36 29-66 66-66h774c36 0 65 30 65 66v78h51c24 0 44 19 44 43v146c0 24-20 43-44 43z m-267-332h-623c-13 0-22 10-22 22v388c0 13 9 22 22 22h623v-432z m151 0h-107v432h107c12 0 22-9 22-22v-99-189-100h0c0-12-10-22-22-22z m116 143h-51v146h51l0-146c0 0 0 0 0 0z" horiz-adv-x="1000" />

<glyph glyph-name="bell" unicode="&#xe807;" d="M856 39l-49 92v226c0 140-94 258-222 295v113c0 47-38 85-85 85-47 0-85-38-85-85v-113c-128-37-222-155-222-295v-226l-49-92c-9-17-9-38 2-55 10-18 28-28 48-28h194c3-59 52-106 112-106 60 0 109 47 113 106h193c20 0 38 10 49 28 10 17 10 38 1 55z m-396 726c0 22 18 40 40 40s40-18 40-40v-104c-13 2-26 3-40 3-14 0-27-1-40-3v104z m-222-408c0 144 118 262 262 262s262-118 262-262v-208h-524v208z m262-462c-35 0-64 27-67 61h134c-3-34-32-61-67-61z m316 112c-1-2-4-6-10-6h-612c-6 0-9 4-10 6-1 2-3 6 0 11l46 86h540l46-86c3-5 1-9 0-11z m-316 552c-111 0-202-91-202-202 0-13 10-23 23-23 12 0 22 10 22 23 0 86 71 157 157 157 13 0 23 10 23 22 0 13-10 23-23 23z" horiz-adv-x="1000" />

<glyph glyph-name="bluetooth" unicode="&#xe808;" d="M682 206l-171 147 171 141c6 5 10 13 10 21 0 8-4 16-10 22l-181 151c-8 7-19 8-29 4-10-5-17-15-17-26v-266l-115 98c-9 8-23 7-31-2-7-9-6-23 3-30l132-113-132-108c-9-8-10-21-3-30 8-10 21-11 31-3l115 95v-273c0-11 7-21 17-25 3-2 8-3 12-3 6 0 12 2 17 6l181 152c6 5 10 13 10 21 0 8-3 16-10 21z m-183 428l141-119-141-117v236z m0-568v241l142-122-142-119z m355 638c-95 94-220 146-354 146s-259-52-354-146c-94-95-146-220-146-354s52-259 146-354c95-94 220-146 354-146s259 52 354 146c94 95 146 220 146 354s-52 259-146 354z m-354-811c-252 0-457 205-457 457s205 457 457 457 457-205 457-457-205-457-457-457z" horiz-adv-x="1000" />

<glyph glyph-name="book" unicode="&#xe809;" d="M841 850h-580c-68 0-124-56-124-124v-752c0-68 56-124 124-124h580c12 0 22 10 22 22 0 1 0 1 0 2 0 0 0 0 0 1v749 204c0 12-10 22-22 22z m-602-952c-33 9-57 40-57 76v657c16-14 35-23 57-27v-706z m22 748c-44 0-79 36-79 80s35 80 79 80h485c-18-22-29-50-29-80s11-58 29-80h-50-124-311z m413-44v-130l-26 19c-8 6-19 6-27 0l-27-20v131h80z m145-708h-536v708h267v-175c0-8 5-16 12-20 3-1 7-2 10-2 5 0 9 1 13 4l49 37 49-36c7-5 16-6 23-2 8 3 13 11 13 19v175h100v-708z m0 756c-33 9-58 40-58 76s25 67 58 76v-152z m-159-332h-218c-12 0-22-10-22-22 0-13 10-23 22-23h218c12 0 22 10 22 23s-10 22-22 22z m62-139h-342c-12 0-22-10-22-23s10-22 22-22h342c12 0 22 10 22 22s-10 23-22 23z" horiz-adv-x="1000" />

<glyph glyph-name="box" unicode="&#xe80a;" d="M956 748h-912c-24 0-44-20-44-45v-99c0-24 20-44 44-44h10v-563c0-25 20-45 44-45h804c24 0 44 20 44 45v563h10c24 0 44 20 44 44v99c0 25-20 45-44 45z m-54-751h-804v563h804l0-563c0 0 0 0 0 0z m54 607h-32-848-32v99h912l0-99c0 0 0 0 0 0z m-382-335v48c0 41-33 74-74 74s-74-33-74-74v-48c-28-7-49-32-49-63v-76c0-35 29-64 64-64h118c35 0 64 29 64 64v76c0 31-21 56-49 63z m-108 48c0 19 15 34 34 34 19 0 34-15 34-34v-46h-68v46z m117-187c0-13-11-24-24-24h-118c-13 0-24 11-24 24v76c0 14 11 25 24 25h118c13 0 24-11 24-25v-76z m-211 363h-192c-11 0-20-9-20-20s9-20 20-20h192c11 0 20 9 20 20 0 11-9 20-20 20z m-96-87h-96c-11 0-20-9-20-20s9-20 20-20h96c11 0 20 9 20 20s-9 20-20 20z" horiz-adv-x="1000" />

<glyph glyph-name="calculator" unicode="&#xe80b;" d="M878 850h-756c-32 0-59-27-59-59v-882c0-32 27-59 59-59h756c32 0 59 27 59 59v882c0 32-27 59-59 59z m-768-59c0 6 6 12 12 12h756c6 0 12-6 12-12v-205h-780v205z m229-894h-217c-6 0-12 6-12 12v285h229v-297z m0 345h-229v296h229v-296z m275-345h-228v297h228v-297z m0 345h-228v296h228v-296z m276-333c0-6-6-12-12-12h-217v641h229v-629z m-607 505h-35v34c0 14-10 24-23 24s-24-10-24-24v-34h-35c-13 0-24-11-24-24s11-24 24-24h35v-35c0-13 10-23 24-23s23 10 23 23v35h35c13 0 24 11 24 24s-11 24-24 24z m277 0h-120c-13 0-23-11-23-24s10-24 23-24h120c13 0 23 11 23 24s-10 24-23 24z m-302-368l29 28c9 10 9 25 0 34-10 9-25 9-34 0l-28-29-29 29c-9 9-24 9-34 0-9-9-9-24 0-34l29-28-29-29c-9-9-9-24 0-33 5-5 11-7 17-7 6 0 12 2 17 7l29 28 28-28c5-5 11-7 17-7s12 2 17 7c9 9 9 24 0 33l-29 29z m304 62c-9 9-24 9-33 0l-91-91c-9-9-9-24 0-33 5-5 11-7 17-7s12 2 16 7l91 90c9 10 9 25 0 34z m273 175h-121c-13 0-23-11-23-24 0-13 10-24 23-24h121c13 0 24 11 24 24 0 13-11 24-24 24z m0-83h-121c-13 0-23-10-23-24 0-13 10-23 23-23h121c13 0 24 10 24 23 0 14-11 24-24 24z" horiz-adv-x="1000" />

<glyph glyph-name="calendar" unicode="&#xe80c;" d="M418 400h-145c-11 0-21-10-21-21v-145c0-12 10-21 21-21h145c12 0 21 9 21 21v145c0 11-9 21-21 21z m-20-146h-104v104h104v-104z m533 422h-152v27c0 12-10 22-23 22-12 0-23-10-23-22v-27h-125v27c0 12-10 22-22 22-13 0-23-10-23-22v-27h-125v27c0 12-11 22-23 22s-23-10-23-22v-27h-125v27c0 12-11 22-23 22s-23-10-23-22v-27h-152c-38 0-69-31-69-69v-563c0-38 31-69 69-69h862c38 0 69 31 69 69v563c0 38-31 69-69 69z m0-655h-862c-13 0-23 10-23 22v564c0 13 10 23 23 23h152v-26c0-13 10-23 23-23 12 0 23 10 23 23v26h125v-26c0-13 10-23 23-23s23 10 23 23v26h125v-26c0-13 10-23 23-23 12 0 22 10 22 23v26h125v-26c0-13 11-23 23-23 13 0 23 10 23 23v26h152c13 0 23-10 23-23v-563h0c0-13-10-23-23-23z" horiz-adv-x="1000" />

<glyph glyph-name="car" unicode="&#xe80d;" d="M211 265c-15 0-27-13-27-27 0-15 12-28 27-28 15 0 27 13 27 28 0 14-12 27-27 27z m721 207l-190 77c-32 13-65 19-100 19h-116c-42 0-84-10-121-29l-173-88-124-18c-30-4-57-19-77-42-20-23-31-53-31-83v-73c0-11 9-20 20-20h88c5-20 15-39 30-53 19-19 46-30 73-30 28 0 54 11 74 30 15 15 25 33 29 53h367c4-20 14-39 29-53 20-19 46-30 73-30 28 0 54 11 74 30 15 14 25 33 29 53h94c11 0 20 9 20 20v137c0 45-27 84-68 100z m-206 39l148-59h-111l-49 64c4-2 8-3 12-5z m-181 16h97c4 0 8 0 11 0l58-75h-166v75z m-122-24c25 12 53 20 81 23v-74h-180l99 51z m-312-111c-9-28-34-50-64-53 11 27 35 48 64 53z m100-219c-36 0-64 29-64 65 0 35 28 64 64 64s65-29 65-64c0-36-29-65-65-65z m572 0c-35 0-64 29-64 65 0 35 29 64 64 64 36 0 65-29 65-64 0-36-29-65-65-65z m176 82h-72c-8 50-52 88-104 88-52 0-95-38-103-88h-365c-9 50-52 88-104 88-52 0-95-38-104-88h-66v43c58 1 106 44 113 100l86 13h513c0 0 0 0 0 0 0 0 0 0 0 0h129v-27c0-37 30-67 68-67h9v-62z m0 102h-9c-15 0-27 13-27 27v27h24c8-11 12-24 12-39v-15z m-176-92c-15 0-27-13-27-27 0-15 12-28 27-28 15 0 28 13 28 28 0 14-13 27-28 27z m-216 89h-136c-11 0-20-9-20-21s9-20 20-20h136c11 0 20 9 20 20s-9 21-20 21z m-356-89c-15 0-27-13-27-27 0-15 12-28 27-28 15 0 27 13 27 28 0 14-12 27-27 27z m572 0c-15 0-27-13-27-27 0-15 12-28 27-28 15 0 28 13 28 28 0 14-13 27-28 27z m-572 0c-15 0-27-13-27-27 0-15 12-28 27-28 15 0 27 13 27 28 0 14-12 27-27 27z m572 0c-15 0-27-13-27-27 0-15 12-28 27-28 15 0 28 13 28 28 0 14-13 27-28 27z" horiz-adv-x="1000" />

<glyph glyph-name="chat" unicode="&#xe80e;" d="M918 789h-836c-45 0-82-37-82-82v-489c0-45 37-82 82-82h47v-201c0-10 6-18 15-22 3-1 6-2 9-2 6 0 12 3 16 7l218 218h531c45 0 82 37 82 82v489c0 45-37 82-82 82z m0-606h-541c-6 0-11-3-15-6-1 0-1-1-1-1 0 0 0 0 0 0l-185-185v168c0 1 0 2 0 3-1 11-11 21-23 21h-71c-20 0-35 15-35 35v489c0 19 15 35 35 35h836c20 0 36-16 36-35v-489h0c0-20-16-35-36-35z m-578 436h-136c-13 0-23-11-23-24 0-12 10-23 23-23h136c13 0 23 11 23 23 0 13-10 24-23 24z m242-133h-378c-13 0-23-11-23-24 0-12 10-23 23-23h378c12 0 23 10 23 23 0 13-11 24-23 24z m214 133h-320c-13 0-24-11-24-24 0-12 11-23 24-23h320c13 0 23 11 23 23 0 13-10 24-23 24z m0-133h-84c-13 0-24-11-24-24 0-13 11-23 24-23h84c13 0 23 10 23 23 0 13-10 24-23 24z m-381-134h-211c-13 0-23-10-23-23 0-13 10-23 23-23h211c13 0 23 10 23 23 0 13-10 23-23 23z m381 0h-258c-12 0-23-10-23-23 0-13 11-23 23-23h258c13 0 23 10 23 23 0 13-10 23-23 23z" horiz-adv-x="1000" />

<glyph glyph-name="chats" unicode="&#xe80f;" d="M727 751h-671c-31 0-56-25-56-56v-403c0-31 25-56 56-56h44v-150c0-10 6-18 14-22 3-1 6-2 9-2 7 0 13 3 17 7l167 167h33c13 0 24 10 24 23 0 13-11 24-24 24 0 0-44 0-45 0-5 0-11-3-15-7l-133-133c0 0 0 118 0 119-1 12-11 21-24 21h-67c-5 0-9 4-9 9v403c0 5 4 9 9 9h671c5 0 9-4 9-9v-155c0-13 11-23 24-23s23 10 23 23v155c0 31-25 56-56 56z m217-289h-470c-31 0-56-25-56-56v-274c0-32 25-57 56-57h294l119-119c5-5 11-7 17-7 3 0 6 1 9 2 9 4 15 12 15 22v102h16c31 0 56 25 56 57v274c0 31-25 56-56 56z m9-330c0-6-4-10-9-10h-40c-12 0-23-9-24-21 0-1 0-71 0-71l-85 85c0 0 0 1-1 1 0 0 0 0-1 1-4 3-9 5-15 5h-304c-5 0-9 4-9 10v274c0 5 4 9 9 9h470c5 0 9-4 9-9v-274z m-244 160c-13 0-24-10-24-23 0-13 11-24 24-24 13 0 24 11 24 24 0 13-11 23-24 23z m-103 303c0 0-429 0-429 0-13 0-23-11-23-24s10-23 23-23h429c13 0 24 10 24 23s-11 24-24 24z m-266-156h-163c-13 0-23-11-23-24 0-13 10-23 23-23h163c13 0 24 10 24 23s-11 24-24 24z m259-147c-13 0-23-10-23-23 0-13 10-24 23-24 13 0 24 11 24 24 0 13-11 23-24 23z m220 0c-13 0-24-10-24-23 0-13 11-24 24-24 13 0 23 11 23 24 0 13-10 23-23 23z" horiz-adv-x="1000" />

<glyph glyph-name="checked" unicode="&#xe810;" d="M878 382c-1 14-13 25-28 24-15-1-26-14-25-28 1-9 1-19 1-28 0-213-173-386-386-386-213 0-387 173-387 386s174 386 387 386c84 0 164-26 231-77 12-9 29-6 38 5 9 12 6 29-5 38-77 57-168 88-264 88-243 0-440-197-440-440s197-440 440-440 440 198 440 440c0 11-1 21-2 32z m92 347c-41 41-107 41-148 0l-385-385-136 137c-41 41-107 41-148 0-40-41-40-107 0-148l235-235c14-13 31-20 49-20 18 0 36 7 49 20l484 484c40 41 40 107 0 147z m-38-109l-484-484c-6-6-16-6-22 0l-235 235c-20 20-20 52 0 72 10 10 23 15 36 15s26-5 36-15l140-140c9-9 21-14 34-14 13 0 25 5 34 14l389 389c20 19 52 19 72 0 20-20 20-52 0-72z" horiz-adv-x="1000" />

<glyph glyph-name="chess" unicode="&#xe811;" d="M708 461c50 0 91 40 91 90s-37 84-91 103c-38 14-60 37-77 65-17 29-54 74-102 74-20 0-67 0-67 0v57c-359-134-243-617-243-617h72v-47h-21c-15 0-29-12-29-27v-4c0-11 7-20 17-24-29-51-5-100 3-113h-18c-15 0-29-12-29-27v-61c0-14 13-26 27-26v-54h443v54c13 2 23 13 23 26v61c0 15-10 27-25 27h-14c7 13 30 62 1 113 9 4 15 13 15 24v4c0 15-10 27-25 27h-26v47h81c-55 181-222 278-222 278h135c14-30 45-50 81-50z" horiz-adv-x="1000" />

<glyph glyph-name="cloud-computing-down" unicode="&#xe812;" d="M793 484c-2 152-127 276-280 276-68 0-133-25-184-70-46-40-77-94-89-152-1 0-2 0-3 0-131 0-237-107-237-237s106-237 237-237h87c12 0 21 9 21 21 0 12-9 21-21 21h-87c-107 0-194 87-194 195s87 194 194 194c6 0 12 0 18-1 12-1 22 7 24 18 7 57 35 108 78 146 43 38 99 59 156 59 131 0 237-106 237-237 0-5-1-17-1-17 0-6 2-12 7-17 4-4 11-6 17-6 6 1 11 1 17 1 92 0 167-75 167-167 0-93-75-168-167-168h-96c-11 0-21-9-21-21s10-21 21-21h96c116 0 210 94 210 210 0 115-93 208-207 210z m-280 176c-89 0-165-67-177-155-2-12 6-23 18-25 12-1 22 8 24 19 9 67 67 118 135 118 12 0 22 9 22 21 0 12-10 22-22 22z m99-611c-8 8-21 9-30 1l-51-45v262c0 12-10 21-22 21-12 0-21-9-21-21v-262l-51 45c-9 8-23 7-31-1-7-9-7-23 2-30l78-70c6-6 15-9 23-9 9 0 17 3 24 9l77 70c9 7 10 21 2 30z" horiz-adv-x="1000" />

<glyph glyph-name="cloud-computing-up" unicode="&#xe813;" d="M793 469c-2 152-127 276-280 276-68 0-133-25-184-70-46-40-77-94-89-152-1 0-2 0-3 0-131 0-237-107-237-237s106-237 237-237h166c11 0 21 9 21 21 0 12-10 21-21 21h-166c-107 0-194 87-194 195 0 107 87 194 194 194 6 0 12 0 18-1 12-1 22 7 24 18 7 57 35 108 78 146 43 38 99 59 156 59 131 0 237-106 237-237 0-5 0-9 0-15l-1-2c0-6 2-12 7-17 4-4 11-6 17-6 6 1 11 1 17 1 92 0 167-75 167-167 0-93-75-168-167-168h-174c-12 0-22-9-22-21 0-12 10-21 22-21h174c116 0 210 94 210 210 0 115-93 208-207 210z m-280 176c-89 0-165-67-177-155-2-12 6-23 18-24 1-1 2-1 3-1 10 0 19 8 21 19 9 67 67 118 135 118 12 0 22 9 22 21 0 12-10 22-22 22z m97-420l-77 69c-14 12-34 12-47 0l-78-69c-9-8-9-21-2-30 8-9 22-10 31-2l51 46v-263c0-11 9-21 21-21 12 0 22 10 22 21v263l51-46c4-3 9-5 14-5 6 0 12 2 16 7 8 9 7 22-2 30z" horiz-adv-x="1000" />

<glyph glyph-name="cloud" unicode="&#xe814;" d="M793 422c-2 153-127 276-280 276-68 0-133-25-184-70-46-40-77-93-89-152-1 0-2 0-3 0-131 0-237-106-237-237s106-237 237-237h553c116 0 210 94 210 210 0 115-93 209-207 210z m-3-377h-553c-107 0-194 87-194 194 0 107 87 194 194 194 6 0 12 0 18-1 12-1 22 7 24 19 7 56 35 108 78 145 43 39 99 60 156 60 131 0 237-107 237-238 0-4 0-9 0-14l-1-2c0-7 2-13 7-17 4-5 11-7 17-6 6 0 11 1 17 1 92 0 167-75 167-168s-75-167-167-167z m-277 553c-89 0-165-67-177-155-2-12 6-23 18-24 1 0 2 0 3 0 10 0 19 7 21 18 9 67 67 118 135 118 12 0 22 10 22 22 0 11-10 21-22 21z" horiz-adv-x="1000" />

<glyph glyph-name="compass" unicode="&#xe815;" d="M500 590c-173 0-313-140-313-312s140-314 313-314 313 141 313 314c0 172-140 312-313 312z m20-584v26c0 11-9 20-20 20-11 0-20-9-20-20v-26c-134 10-242 117-252 251h26c12 0 21 9 21 20 0 12-9 21-21 21h-26c10 134 118 241 252 251v-26c0-11 9-20 20-20 11 0 20 9 20 20v26c134-10 242-117 252-251h-26c-12 0-21-9-21-21 0-11 9-20 21-20h26c-10-134-118-241-252-251z m0 698v27h33c11 0 20 9 20 20v79c0 11-9 20-20 20h-106c-11 0-20-9-20-20v-79c0-11 9-20 20-20h33v-27c-227-10-407-198-407-426 0-236 191-428 427-428s428 192 428 428c0 228-181 416-408 426z m-53 67v39h66v-39h-66z m33-878c-212 0-385 172-385 385s173 384 385 384 385-172 385-385c0-212-173-384-385-384z m149 534c-6 6-15 7-22 4l-186-84c0-1 0-1 0-1-1 0-1 0-1 0-1 0-1 0-1-1 0 0-1 0-1 0 0 0-1-1-1-1 0 0 0 0 0 0-1-1-2-2-3-3 0 0 0 0-1-1 0 0 0 0 0-1 0 0-1 0-1 0 0-1 0-1 0-1 0 0-1-1-1-1 0 0 0 0 0-1l-84-185c-4-8-2-17 4-23 4-4 9-6 14-6 3 0 6 1 9 2l185 84c0 1 0 1 0 1 1 0 1 0 1 0 1 0 1 0 1 1 0 0 1 0 1 0 0 0 1 1 1 1 0 0 0 0 1 0 1 1 1 2 2 3 0 0 1 0 1 1 0 0 0 0 0 1 1 0 1 0 1 0 0 1 0 1 0 1 1 0 1 1 1 1 0 0 0 0 0 1l84 185c4 8 2 17-4 23z m-243-244l50 110 60-60-110-50z m138 79l-60 60 110 50-50-110z" horiz-adv-x="1000" />

<glyph glyph-name="credit-card" unicode="&#xe816;" d="M917 507h-102v144c0 46-38 83-84 83h-647c-46 0-84-37-84-83v-375c0-46 38-83 84-83h101v-144c0-46 38-83 84-83h648c46 0 83 37 83 83v375c0 46-37 83-83 83z m-869 144c0 20 16 36 36 36h647c20 0 36-16 36-36v-33h-719v33z m137-227v-183h-101c-20 0-36 16-36 35v183h145c-5-10-8-22-8-35z m-137 83v63h719v-63h-498c-2 0-3 0-5 0h-216z m869-494h-648c-20 0-36 16-36 36v375c0 19 14 34 33 35h525c1 0 2 0 3 1h123c19 0 35-16 35-36v-375h0c0-20-16-36-35-36z m-252 338c-28 0-53-9-72-25-20 16-46 25-72 25-64 0-115-51-115-115 0-63 51-115 115-115 26 0 52 9 72 26 19-16 44-25 72-25 63 0 115 51 115 114 0 64-52 115-115 115z m-103-167c-11-10-26-15-41-15-37 0-67 30-67 67 0 38 30 68 67 68 15 0 30-5 41-15-8-15-12-33-12-53 0-19 4-37 12-52z m103-15c-38 0-68 30-68 67 0 38 30 68 68 68 37 0 67-30 67-68 0-37-30-67-67-67z" horiz-adv-x="1000" />

<glyph glyph-name="cursor" unicode="&#xe817;" d="M984 834c0 0 0 0 0 0s0 0 0 0c-16 16-38 20-59 12l-890-348c-24-9-38-32-35-57 3-26 22-45 47-48l436-59c0 0 1 0 1-1l59-436c3-25 22-44 48-47 2 0 4 0 6 0 23 0 43 13 51 35l348 890c8 21 4 43-12 59z m-930-389c-1 0-1 0-1 2 0 1 0 1 1 2l833 326-389-390c-3 1-444 60-444 60z m545-541c-1-1-1-1-2-1-2 0-2 0-2 1 0 0-59 441-60 444l390 389-326-833z" horiz-adv-x="1000" />

<glyph glyph-name="cutlery" unicode="&#xe818;" d="M276 788c-30 40-71 62-115 62-44 0-85-22-115-62-29-39-44-89-44-143 0-53 15-104 44-142 17-23 37-39 59-50l-34-507c-1-25 8-50 24-68 17-18 41-28 66-28 25 0 49 10 66 28 17 18 25 43 24 68l-34 507c22 10 42 27 59 50 29 38 44 89 44 142s-15 104-44 143z m-83-878c-8-9-20-14-32-14-12 0-24 5-32 14-8 9-13 20-12 33l33 498c4-1 7-1 11-1 4 0 7 0 11 1l33-498c1-13-3-24-12-33z m-32 576c-8 0-16 1-24 4-1 0-1 0-2 0-50 17-87 80-87 155 0 88 50 159 113 159 63 0 114-71 114-159 0-88-51-159-114-159z m837-233v571l0 0c1 5 0 10-3 15-7 11-21 14-32 8-93-58-149-158-149-268 0 0 0 0 0 0v-301c0-26 21-48 47-48v-311c0-38 31-69 69-69 38 0 68 31 68 69v333c0 0 0 1 0 1z m-135 22c-2 0-3 2-3 3v301c0 0 0 0 0 0 0 79 34 152 93 203v-507h-90z m90-356c0-13-11-23-23-23-13 0-23 10-23 23v311h46v-311z m-303 931c-13 0-23-10-23-23v-260h-58v260c0 13-11 23-23 23-13 0-23-10-23-23v-260h-59v260c0 13-10 23-23 23s-23-10-23-23v-332c0-37 31-68 68-68h4l-32-483c-1-25 7-49 24-66 16-18 40-28 64-28 24 0 47 10 64 28 16 17 25 41 23 66l-32 483h4c38 0 68 31 68 68v332c0 13-10 23-23 23z m-74-941c-8-8-19-13-30-13s-23 5-31 13c-8 9-12 20-11 31l32 487h19l33-487c0-11-4-22-12-31z m51 586c0-12-10-22-22-22h-91c0 0 0 0 0 0h-28c-12 0-22 10-22 22v26h163v-26z" horiz-adv-x="1000" />

<glyph glyph-name="download" unicode="&#xe819;" d="M975 186c-14 0-26-11-26-25v-98c0-56-46-102-102-102h-694c-56 0-102 46-102 102v98c0 14-11 25-25 25-15 0-26-11-26-25v-98c0-84 69-152 153-152h694c85 0 153 68 153 152v98c0 14-11 25-25 25z m-155-100h-640c-14 0-25-12-25-26s11-25 25-25h640c14 0 25 11 25 25 0 14-11 26-25 26z m-62 358c-10 10-26 11-36 2l-196-175v493c0 14-12 25-26 25-14 0-25-11-25-25v-493l-197 175c-10 9-26 8-36-2-9-11-8-27 2-36l214-190c12-11 27-17 42-17 15 0 30 6 42 17l214 190c10 9 11 25 2 36z" horiz-adv-x="1000" />

<glyph glyph-name="dropbox" unicode="&#xe81a;" d="M995 295l-187 155 187 155c7 7 7 20-2 25l-179 117c-8 4-17 2-22-5-5-7-3-17 5-22l161-104-175-146-257 166 176 146 43-28c7-5 17-3 21 4 5 8 3 17-4 22l-53 34c-6 4-13 3-19-1l-190-159-190 159c-6 4-13 5-19 1l-284-184c-9-5-9-18-1-25l186-155-186-155c-8-6-8-19 1-25l193-125c0-1 0-1 0-2v-77c0-5 3-11 8-13l54-32c8-5 18-2 22 7 4 7 1 16-6 20l-46 27v50l59-39c6-3 13-3 19 1l190 159 190-159c6-4 13-4 19-1l59 39v-50l-268-158-173 102c-7 4-17 2-21-6-5-7-2-17 5-21l181-107c5-2 11-2 16 0l284 168c5 2 8 8 8 13v76c0 1 0 2-1 3l194 125c9 6 10 19 2 25z m-953 321l256 166 176-146-257-166-175 146z m256-497l-256 166 175 146 257-166-176-146z m-53 331l255 165 255-165-255-165-255 165z m457-331l-176 146 257 166 175-146-256-166z" horiz-adv-x="1000" />

<glyph glyph-name="edit" unicode="&#xe81b;" d="M777 697c13 0 24 11 24 24v76c0 29-24 53-53 53h-510c-7 0-13-2-17-7l-200-200c-5-4-7-11-7-17v-723c0-29 23-53 52-53h682c29 0 53 24 53 53v368c0 14-11 24-24 24-13 0-24-10-24-24v-368c0-3-2-5-5-5h-682c-2 0-4 2-4 5v699h147c29 0 53 23 53 53v147h486c3 0 5-2 5-5v-76c0-13 11-24 24-24z m-564-42c0-3-2-5-4-5h-113l117 118v-113z m750-1l-29 28c-32 32-83 32-115 0l-226-225h-391c-13 0-24-11-24-24 0-14 11-24 24-24h343l-145-146h-198c-13 0-24-10-24-24s11-24 24-24h150l-1 0c-3-3-5-7-6-11l-37-134h-106c-13 0-24-11-24-24s11-24 24-24h124c0 0 5 0 6 0 0 0 152 43 152 43 4 1 8 3 11 6l468 467c32 32 32 84 0 116z m-602-574l19 71 52-51-71-20z m117 42l-76 76 386 386 76-76-386-386z m451 451l-31-31-76 76 31 30c13 13 34 13 47 0l29-28c13-13 13-34 0-47z" horiz-adv-x="1000" />

<glyph glyph-name="envelope" unicode="&#xe81c;" d="M999 603c0 28-23 51-51 51 0 0 0 0 0 0l-897-1c-13 0-26-6-36-15-10-10-15-23-15-37l1-504c0-13 5-26 15-36 9-9 22-15 36-15 0 0 0 0 0 0l897 1c28 1 51 24 51 52l-1 504z m-107 0l-392-273-392 271 784 2z m-226-324l232-180-797-1 234 181c11 8 13 25 5 36-9 11-25 13-36 4l-252-195-1 454 435-300c4-3 9-5 14-5 5 0 10 2 15 5l433 301 1-455-252 195c-11 9-27 7-36-4-8-11-6-28 5-36z" horiz-adv-x="1000" />

<glyph glyph-name="eraser" unicode="&#xe81d;" d="M118 32h-64c-14 0-25-11-25-24s11-25 25-25h64c13 0 24 11 24 25 0 13-11 24-24 24z m105-95c-10 10-25 10-35 0l-45-45c-9-10-9-25 0-35 5-5 11-7 18-7 6 0 12 2 17 7l45 45c10 10 10 25 0 35z m723 83h-432l442 443c20 19 20 50 0 70l-303 303c-19 19-50 19-69 0l-485-485c-28-28-43-65-43-104 0-40 15-77 43-105l146-146c16-16 38-25 61-25h640c14 0 25 11 25 24 0 14-11 25-25 25z m-640 0c-10 0-19 4-26 11l-146 146c-38 38-38 101 0 139l79 80 261-261c5-5 11-7 17-7s13 2 18 7c9 10 9 25 0 35l-261 260 371 371 303-303-478-478h-138z" horiz-adv-x="1000" />

<glyph glyph-name="eye" unicode="&#xe81e;" d="M984 397c-56 72-129 132-210 172-83 42-173 63-266 64-3 0-13 0-16 0-93-1-182-22-266-64-81-40-154-100-210-172-21-28-21-66 0-94 56-72 129-132 210-172 84-42 173-63 266-64 3 0 13 0 16 0 93 1 183 22 266 64 81 40 154 100 210 172 21 28 21 66 0 94z m-739-230c-76 38-144 94-197 161-10 13-10 31 0 44 53 67 121 123 197 161 21 11 43 20 66 28-58-52-94-127-94-211 0-84 36-159 94-211-23 8-45 17-66 28z m255-60c-134 0-243 109-243 243s109 243 243 243 243-109 243-243-109-243-243-243z m452 221c-53-67-121-123-197-161-21-11-43-20-66-28 58 52 95 127 95 211 0 84-37 159-95 211 23-8 45-17 66-28 76-38 144-94 197-161 10-13 10-31 0-44z m-452 126c-57 0-104-47-104-104s47-104 104-104 104 47 104 104c0 57-47 104-104 104z m0-167c-35 0-63 28-63 63 0 35 28 63 63 63 35 0 63-28 63-63 0-35-28-63-63-63z" horiz-adv-x="1000" />

<glyph glyph-name="facebook-square" unicode="&#xe81f;" d="M147-150h326v356h-117v117h117v146c0 81 65 147 146 147h147v-118h-118c-32 0-58-26-58-58v-117h170l-19-117h-151v-356h264c80 0 146 66 146 146v708c0 80-66 146-146 146h-707c-81 0-147-66-147-146v-708c0-80 66-146 147-146z m-88 854c0 48 39 87 88 87h707c48 0 87-39 87-87v-708c0-48-39-87-87-87h-206v238h142l40 234h-182v59h176v234h-205c-113 0-205-92-205-205v-88h-117v-234h117v-238h-267c-49 0-88 39-88 87z m0 0" horiz-adv-x="1000" />

<glyph glyph-name="facebook" unicode="&#xe820;" d="M352-150h-161c-26 0-48 22-48 48v362h-93c-27 0-49 22-49 48v155c0 27 22 49 49 49h93v77c0 77 24 142 70 189 46 47 110 72 185 72l122 0c27 0 49-22 49-49v-143c0-27-22-49-49-49l-82 0c-25 0-32-5-33-6-2-3-5-10-5-30v-61h114c9 0 17-3 24-7 15-8 25-24 25-42l0-155c0-26-22-48-49-48h-114v-362c0-26-22-48-48-48z m-150 59h139v377c0 18 15 32 33 32h130l0 135h-130c-18 0-33 14-33 32v88c0 23 3 49 20 68 21 24 54 27 77 27l72 0v123l-112 0c-121 0-196-77-196-202v-104c0-18-15-32-33-32h-109v-135h109c18 0 33-14 33-32z m318 882h0z m0 0" horiz-adv-x="998" />

<glyph glyph-name="fast-forward" unicode="&#xe821;" d="M933 600c-67 116-175 198-304 233-129 34-263 17-379-50-115-67-198-175-233-304-34-129-17-263 50-379 67-116 175-198 304-233 43-11 86-17 130-17 86 0 172 23 249 67 116 67 198 175 233 304 34 129 17 263-50 379z m0-366c-31-115-106-212-209-272s-224-75-340-45c-115 31-212 106-272 209-60 104-75 224-44 340 31 115 105 212 208 272s224 75 340 45c115-31 212-106 272-209 60-104 75-224 45-340z m-102 157l-239 138c-15 9-33 9-48 0-14-8-23-24-23-41v-103c-3 2-5 4-8 6l-240 138c-14 9-32 9-47 0-15-8-24-24-24-41v-276c0-17 9-33 24-41 7-4 16-7 24-7 8 0 16 3 23 7l240 138c3 2 5 4 8 6v-103c0-17 9-33 23-41 8-4 16-7 24-7 8 0 16 3 24 7l239 138c15 9 24 24 24 41 0 17-9 32-24 41z m-576-171v260l225-130-225-130z m318 0v260l225-130-225-130z" horiz-adv-x="1000" />

<glyph glyph-name="favorite-heart" unicode="&#xe822;" d="M500-94c-21 18-32 28-144 124-214 182-356 303-356 478 0 157 112 286 266 286 106 0 185-65 234-158 49 93 128 158 234 158 154 0 266-129 266-286 0-175-141-296-356-478-113-96-122-105-144-124z m-234 830c-118 0-207-98-207-228 0-148 133-262 335-433 34-29 69-59 106-92 37 33 72 63 106 92 202 171 335 285 335 433 0 130-89 228-207 228-106 0-181-96-206-184l0 0c-29 0-26 0-56 0l0 0c-22 78-92 184-206 184z" horiz-adv-x="1000" />

<glyph glyph-name="favorite-start" unicode="&#xe823;" d="M999 487c-7 23-30 39-62 44l-259 38-116 235c-14 29-36 45-61 45s-47-16-61-45l-116-235-259-38c-32-5-55-21-62-44-8-23 1-50 24-72l188-183-45-258c-5-33 4-53 13-64 11-13 27-20 44-20 13 0 28 4 42 12l232 122 232-122c15-8 29-12 42-12h0c17 0 33 7 44 20 9 11 18 31 13 64l-45 258 188 183c23 22 32 49 24 72z m-65-30l-199-194c-7-6-10-16-8-26l47-273c1-8 1-13 0-15-2 0-6 1-14 5l-245 129c-5 2-9 3-14 3s-9-1-14-3l-245-129c-7-4-12-5-14-5-1 2-1 7 0 15l47 273c2 10-1 20-8 26l-199 194c-6 6-8 10-9 12 2 1 6 3 14 4l275 40c9 1 18 7 22 16l123 249c3 7 6 10 8 12 2-2 5-5 8-12l123-249c4-9 13-15 22-16l275-40c8-1 12-3 14-4-1-2-3-6-9-12z m0 0" horiz-adv-x="1000" />

<glyph glyph-name="favorites" unicode="&#xe824;" d="M922 456c18 18 25 44 17 68-8 24-28 41-53 45l-219 31c-4 1-8 4-10 8l-98 198c-11 23-34 37-59 37-25 0-48-14-59-37l-98-198c-2-4-6-7-10-8l-219-31c-25-4-45-21-53-45-8-24-1-50 17-68l158-154c3-3 5-8 4-12l-37-218c-5-25 5-49 26-64 20-15 47-17 69-5l196 103c4 2 8 2 12 0l196-103c10-6 20-8 31-8 13 0 27 4 38 13 21 15 31 39 27 64l-38 218c-1 4 1 9 4 12l158 154z m-214-175l38-218c1-7-4-11-6-13-2-1-7-4-14-1l-195 103c-10 5-20 8-31 8-10 0-21-3-31-8l-195-103c-7-3-12 0-14 1-2 2-7 6-5 13l37 218c4 22-4 43-19 59l-158 154c-6 5-4 11-4 13 1 3 4 8 11 9l219 32c21 3 40 17 49 36l98 198c4 7 10 8 12 8 3 0 9-1 12-8v0l98-198c9-19 28-33 49-36l219-32c8-1 10-6 11-9 1-2 2-8-3-13l-159-154c-15-16-22-37-19-59z m100 525c-12 8-28 6-37-6l-28-39c-8-11-6-28 6-36 5-4 10-5 16-5 8 0 16 3 21 10l28 39c9 12 6 28-6 37z m-551-44l-28 38c-9 12-25 15-37 6-12-9-15-25-6-37l28-38c5-7 13-11 21-11 6 0 11 1 16 5 12 8 14 25 6 37z m-160-511c-5 14-20 21-33 17l-46-15c-14-5-21-19-17-33 4-11 14-18 25-18 3 0 6 0 9 1l45 15c14 4 21 19 17 33z m403-293c-15 0-26-12-26-27v-47c0-15 11-27 26-27 15 0 26 12 26 27v47c0 15-11 27-26 27z m482 295l-45 15c-14 4-29-3-34-17-4-14 3-29 17-34l46-14c2-1 5-2 8-2 11 0 21 8 25 19 4 14-3 28-17 33z" horiz-adv-x="1000" />

<glyph glyph-name="file-broke" unicode="&#xe825;" d="M707 530h-414c-13 0-24-11-24-24 0-13 11-23 24-23h414c13 0 24 10 24 23 0 13-11 24-24 24z m0-142h-414c-13 0-24-10-24-23 0-13 11-23 24-23h414c13 0 24 10 24 23s-11 23-24 23z m168 260c0 6-3 12-7 16l-179 179c-4 4-10 7-17 7h-498c-27 0-49-22-49-49l0-585c0 0 0 0 0-1 0-11 7-22 17-28l81-51c26-16 59-16 86 0l55 35c12 7 26 7 37 0l56-35c13-8 28-12 43-12 15 0 30 4 43 12l56 35c11 7 25 7 37 0l55-35c27-16 60-16 87 0l80 51c10 6 17 17 17 28 0 1 0 1 0 1l0 431c0 1 0 1 0 1z m-179 122h0l99-99h-97c-1 0-2 1-2 2v97z m132-547l-75-47c-12-7-26-7-37 0l-56 35c-26 16-59 16-86 0l-55-35c-12-7-26-7-37 0l-56 35c-27 16-60 16-86 0l-56-35c-11-7-25-7-37 0l-75 47 0 578c0 1 1 2 2 2h475v-130c0-27 22-49 49-49h130l0-401z m47-146c0 0 0 0 0 0s0 0 0 0c0 13-7 25-18 31-11 6-25 6-36-1l-69-43c-11-7-24-7-35 0l-57 35c-27 17-59 17-85 0l-57-35c-11-7-25-7-36 0l-57 35c-26 17-58 17-85 0l-57-35c-10-7-24-7-35 0l-69 43c-11 7-25 7-36 1-11-6-18-18-18-31 0 0 0 0 0 0 0 0 0 0 0 0l0-178c0-27 22-49 49-49h652c27 0 49 22 49 49l0 178z m-49-180h-652c-1 0-2 1-2 2l0 157 51-32c26-16 59-16 85 0l57 36c11 6 25 6 36 0l57-36c13-8 27-12 42-12 15 0 29 4 42 12l57 36c11 6 25 6 36 0l57-36c26-16 59-16 85 0l51 32 0-157c0-1-1-2-2-2z" horiz-adv-x="1000" />

<glyph glyph-name="file-data" unicode="&#xe826;" d="M875 648c0 6-2 12-7 16l-179 179c0 0 0 0 0 0-4 4-10 7-17 7h-498c-27 0-49-22-49-49v-902c0-27 22-49 49-49h652c27 0 49 22 49 49v748c0 0 0 1 0 1z m-179 122l99-99h-97c-1 0-2 1-2 2v97z m132-871c0-1-1-2-2-2h-652c-1 0-2 1-2 2v902c0 1 1 2 2 2h475v-130c0-27 22-49 49-49h130v-725z m-121 631h-414c-13 0-24-11-24-24 0-13 11-23 24-23h414c13 0 24 10 24 23 0 13-11 24-24 24z m0-142h-414c-13 0-24-10-24-23 0-13 11-23 24-23h414c13 0 24 10 24 23 0 13-11 23-24 23z m0-141h-414c-13 0-24-10-24-23 0-13 11-24 24-24h414c13 0 24 11 24 24 0 13-11 23-24 23z m-207-141h-207c-13 0-24-11-24-24 0-12 11-23 24-23h207c13 0 23 11 23 23 0 13-10 24-23 24z" horiz-adv-x="1000" />

<glyph glyph-name="file-empty" unicode="&#xe827;" d="M826 850h-533c-36 0-65-29-65-64v-55h-73c-25 0-45-20-45-46v-789c0-26 20-46 45-46h571c25 0 46 20 46 46v73h54c36 0 64 29 64 64v753c0 35-28 64-64 64z m-101-954h-569v789h367v-150c0-29 24-52 53-52h149v-587z m-155 756l123-123h-117c-4 0-6 3-6 6v117z m256-637h-54v491c0 0 0 0 0 1-1 5-3 11-7 15l-202 202c0 0 0 0 0 0-4 5-10 7-16 7h-272v55c0 10 8 18 18 18h533c10 0 18-8 18-18v-753h0c0-10-8-18-18-18z" horiz-adv-x="1000" />

<glyph glyph-name="filter" unicode="&#xe828;" d="M938 761h-876c-34 0-62-28-62-63v-73c0-34 28-62 62-62h29l322-321v-282c0-8 5-16 13-19 2-1 5-2 7-2 6 0 11 3 15 6l134 135c4 3 6 9 6 14v148l322 321h28c34 0 62 28 62 62v73c0 35-28 63-62 63z m-385-496c-4-4-6-10-6-15v-147l-93-93v240c0 5-2 11-6 15l-298 298h701l-298-298z m406 360c0-11-10-21-21-21h-876c-11 0-20 10-20 21v73c0 12 9 21 20 21h876c11 0 21-9 21-21v-73z" horiz-adv-x="1000" />

<glyph glyph-name="fire-tinder" unicode="&#xe829;" d="M814 625c-69 101-166 178-278 223-2 1-4 1-6 2-4 0-9 0-13-1-4-1-7-3-11-5-3-2-5-5-7-9-2-3-4-8-4-12 0-2 0-4 0-6 1-11 2-22 2-33 0-118-64-225-166-280-10 29-16 60-17 91 0 0 0 1 0 1 2 7 0 15-4 22l-1 1c-7 11-20 16-32 12-6-2-11-5-15-10-115-79-184-209-184-349 0-113 44-219 124-298 79-80 185-124 298-124s219 44 299 124c79 79 123 185 123 298v4c0 126-37 246-108 349z m50-353c0-200-163-363-364-363s-364 163-364 363c0 106 46 205 124 274 5-33 15-65 29-95 7-13 23-20 37-15 0 0 1 0 2 1 135 58 224 190 227 338 189-94 309-285 309-499v-4z" horiz-adv-x="1000" />

<glyph glyph-name="fire" unicode="&#xe82a;" d="M947 205c21 43 17 94-13 131-50 64-139-3-180-55 5 35 8 71 16 105 7 25 15 48 25 70 6 11 13 21 21 31 6 7 5 14 1 19 0 2-1 4-2 6 0 4-2 8-7 11-60 33-115 17-158-20-11-6-21-13-30-22-1 48-13 96-15 144-3 74 44 138 88 190 11 13 5 36-14 35-163-10-436-231-366-414-25 16-52 29-82 37-13 3-25-6-25-19 0-10 0-20 1-30-5-36-2-73 7-109-62 33-157 16-173-61-13-67 66-148 134-154-13-9-26-19-38-30-42-30-70-69-59-115 3-22 15-43 41-63 0 0 0 0 0 0 3-2 5-4 8-6 64-45 136-2 190 39 34 25 64 54 94 82-6-66 8-145 83-156 35-5 65 8 82 37 25 23 41 56 38 86 95-54 205-103 274-58 2 0 4 1 5 1 52 23 68 66 35 114-15 23-36 39-60 50 8 13 15 28 24 39 20 28 41 54 55 85z m-619 182c12-11 21-21 25-26 7-8 23-2 21 9-18 174 67 369 243 411-6-9-11-18-16-28-24-31-40-67-44-112-7-80 22-162 22-242 0-11 15-15 20-6 2 4 5 9 7 13 5 1 9 4 13 9 31 54 87 76 146 72-7-13-12-26-18-40-1 0-2 0-3 0-66-3-115-49-150-102-59 78-90 171-97 270-1 13-16 16-23 6-1-1-2-3-3-4-8 7-22 9-28-3-53-102-41-214-35-325-43 13-83 33-121 56-9 6-18-1-19-11-1-10-1-21-1-31-15 39-22 82-23 123 29-12 56-25 84-39z m-24-100c41-14 77-32 122-34 9-1 17 8 17 17 0 76-10 154 1 228 4 16 9 31 16 47 27-90 51-183 119-252 8-8 19-7 26-1 7 0 13 4 15 10 5 11 11 22 17 32 25 32 55 61 95 68-27-91-40-187-107-255-73-74-202-30-270 27-18 15-33 32-47 51 0 0 0 1 0 1 0 1 0 1 0 1-4 20-5 40-4 60z m-217-49c-5 25 12 45 34 52 38 12 73-9 108-18 18-41 43-79 74-110-24-5-53-17-82-33-55 24-120 43-134 109z m96-328c-14 1-28 6-41 17-22 20-24 43-17 65 3 0 6 0 9-1 9-2 17-5 26-9 18-8 34-28 38-49-1-5-2-10 0-15 0-1 1-2 2-3l0 0c0 0 0 0 0 0-6-2-11-3-17-5z m249 169c-20-11-38-30-50-41-2-1-3-3-5-4-45-38-89-78-141-104-2 19-11 36-24 50-6 9-13 17-21 23-15 12-34 19-52 17 5 7 11 14 17 20 2 4 6 6 9 9 5 3 9 6 14 9 53 29 114 45 171 64 25-18 53-31 83-40-1-1-1-2-1-3z m124-134c-6-34-19-62-60-56-12 2-22 8-30 16 1 1 1 2 1 3 1 7 2 13 4 19 19 22 45 32 74 35 4 0 8-1 12-2 0-5-1-10-1-15z m9 51c-44 3-100-20-117-61-1 3-2 6-3 10-7 28-6 61-3 90 8 9 17 18 23 27 26-13 62-36 103-61-1-1-2-3-3-5z m245-60c-59 6-130 47-167 65-27 14-54 29-82 43-17 10-35 21-53 26 47-1 97 9 139 31 34-13 116-30 177-54-35-28-36-76-14-111z m69 19c-10-10-22-15-36-18-7 12-11 24-12 37 1 5 2 11 4 16 6 17 16 27 29 37 31-19 44-43 15-72z m-79 147c-16 3-34 5-50 7-25 7-49 12-68 16 13 11 24 23 33 38 10 15 17 32 23 49 20 32 50 69 83 91 12 7 25 13 37 16 9 2 19 3 29 1 13-3 24-13 30-31 16-43-11-82-35-115-25-27-55-48-82-72z" horiz-adv-x="1000" />

<glyph glyph-name="flag" unicode="&#xe82b;" d="M707 503l130 175c5 7 6 17 2 24s-12 13-20 13h-562v29c19 9 32 28 32 51 0 30-25 55-55 55s-56-25-56-55c0-23 14-42 33-51v-848h-30c-12 0-23-10-23-23s11-23 23-23h105c13 0 23 10 23 23s-10 23-23 23h-29v396h561c9 0 17 5 21 13 3 8 3 17-3 24l-129 174z m-473 278c-8 0-14 6-14 14 0 7 6 14 14 14s13-7 13-14c0-8-6-14-13-14z m23-443v0 77h73c13 0 23 10 23 23s-10 23-23 23h-73v85h115c12 0 23 11 23 23 0 13-11 23-23 23h-115v77h516l-114-152c-6-8-6-19 0-28l113-151h-515z" horiz-adv-x="1000" />

<glyph glyph-name="folder" unicode="&#xe82c;" d="M948 694h-378c-7 0-15 2-20 7l-70 60c-13 11-30 18-48 18h-248c-29 0-52-24-52-53v-70h-79c-29 0-53-24-53-53v-629c0-29 24-53 53-53h763c29 0 52 24 52 53v70h80c28 0 52 24 52 53v544c0 29-24 53-52 53z m-122-720c0-6-5-11-10-11h-763c-6 0-11 5-11 11v432h784v-432z m0 474h-784v155c0 6 5 11 11 11h248c7 0 14-3 20-8l69-59c14-12 31-18 48-18h378c5 0 10-5 10-11v-70z m132-351c0-6-5-11-10-11h-80v432c0 29-23 53-52 53h-378c-7 0-15 3-20 7l-69 60c-14 12-31 18-48 18h-127v70c0 6 5 11 10 11h248c8 0 15-3 21-8l69-60c14-11 31-17 48-17h378c5 0 10-5 10-11v-544z m-434 109h-69v69c0 11-9 21-21 21-11 0-21-10-21-21v-69h-69c-12 0-21-10-21-21s9-21 21-21h69v-70c0-11 10-21 21-21 12 0 21 10 21 21v70h69c12 0 21 9 21 21 0 11-9 21-21 21z" horiz-adv-x="1000" />

<glyph glyph-name="gamepad" unicode="&#xe82d;" d="M995 267l-64 228c-12 44-43 81-84 102-40 21-88 23-131 7-31-11-58-32-77-59 0 0 0 0 0 0h-277c0 0 0 0 0 0-19 27-46 48-77 59-43 16-91 14-131-7-41-21-72-58-84-102l-64-228c-21-75 12-147 79-172 16-7 34-10 51-10 57 0 114 32 138 82l30 64c19-25 49-41 82-41 44 0 83 29 97 71h35c14-42 53-71 97-71 33 0 63 16 82 41l30-64c16-32 43-58 76-71 33-14 70-14 104-1 34 12 61 37 78 69 16 32 19 69 10 103z m-47-84c-12-23-31-41-55-50-24-9-51-9-75 1-23 10-42 28-53 51l-43 89c-5 10-15 16-26 15-11 0-20-7-24-17-8-24-31-41-57-41-29 0-54 21-59 49-3 13-14 22-27 22h-57c-13 0-24-9-27-22-5-28-30-49-59-49-26 0-49 17-57 41-4 10-13 17-24 17-11 1-21-5-26-15l-42-89c-23-47-87-71-138-52-47 18-68 68-53 123l64 228c9 34 31 61 62 76 18 9 37 14 56 14 14 0 29-3 43-8 23-9 43-24 57-45 8-11 21-18 34-18h277c13 0 26 7 34 18 14 21 34 36 57 45 33 12 68 10 99-6 31-15 53-42 62-76l64-228c7-24 4-51-7-73z m-660 261h-37v36c0 11-9 21-21 21-11 0-20-10-20-21v-36h-37c-11 0-20-10-20-21 0-11 9-21 20-21h37v-36c0-11 9-21 20-21 12 0 21 10 21 21v36h37c11 0 20 10 20 21 0 11-9 21-20 21z m165 0h-22c-12 0-21-10-21-21 0-11 9-21 21-21h22c12 0 21 10 21 21 0 11-9 21-21 21z m117 0h-22c-12 0-21-10-21-21 0-11 9-21 21-21h22c12 0 21 10 21 21 0 11-9 21-21 21z m-184-111c-23 0-42-18-42-41 0-23 19-41 42-41 23 0 41 18 41 41 0 23-18 41-41 41z m0-52c-6 0-11 5-11 11 0 6 5 11 11 11 6 0 10-5 10-11 0-6-4-11-10-11z m229 52c-23 0-41-18-41-41 0-23 18-41 41-41 23 0 42 18 42 41 0 23-19 41-42 41z m0-52c-6 0-10 5-10 11 0 6 4 11 10 11s11-5 11-11c0-6-5-11-11-11z" horiz-adv-x="1000" />

<glyph glyph-name="github" unicode="&#xe82e;" d="M500 850c-275 0-500-227-500-502 0-273 223-498 500-498 277 0 500 225 500 498 0 275-225 502-500 502z m88-933c-28-6-58-8-88-8s-60 2-88 8v138c0 32 9 44 21 60 6 7 9 13 36 53l-45 7c-116 17-162 78-180 124-23 63-11 142 31 191 6 8 12 21 7 34-9 27-8 70-2 87 31-5 63-27 90-43 12-7 19-5 25-6 21 4 54 15 106 15 31 0 65-4 97-14 6 0 16-5 32 5 28 17 59 38 90 43 6-17 7-60-2-87-5-13 1-26 7-34 42-49 55-128 31-191-18-46-64-107-180-124l-45-7c28-42 31-47 36-53 12-16 21-28 21-60z m59 17v121c0 33-7 55-17 72 89 24 152 76 181 152 29 80 16 175-34 240 9 39 9 102-12 131-9 13-22 20-39 20 0 0 0 0 0 0-46-2-82-25-120-48-35 9-71 14-107 14-36 0-72-5-104-14-41 24-76 46-123 48-15 0-27-7-37-20-21-29-21-92-12-131-50-65-63-161-33-240 28-76 91-128 180-152-7-13-13-30-15-52-18-6-34-8-48-4-16 5-28 15-38 32-23 40-63 71-108 67l5-58c21 2 42-20 53-38 17-30 41-50 71-59 22-6 42-6 64-2v-79c-171 60-295 223-295 414 0 243 198 443 441 443s441-200 441-443c0-191-124-354-294-414z m0 0" horiz-adv-x="1000" />

<glyph glyph-name="hashtag" unicode="&#xe82f;" d="M599 485h-182c-15 0-28-11-29-26l-16-183c-1-8 2-16 7-22 6-6 14-9 22-9h182c15 0 28 11 29 26l16 183c1 8-2 16-7 22-6 6-14 9-22 9z m-43-182h-123l11 124h123z m0 0m332 124c28 0 54 10 75 30 21 19 34 45 37 73 2 28-7 55-26 76-18 20-44 31-73 31h-105l10 105c2 29-7 56-26 76-18 21-44 32-73 32-28 0-54-11-75-30-21-19-34-45-37-73l-9-110h-124l9 105c3 29-6 56-25 76-19 21-45 32-73 32-28 0-55-11-76-30-21-19-34-45-36-73l-10-110h-110c-27 0-54-10-75-30-21-19-34-45-36-72-3-29 6-56 25-77 19-20 45-31 73-31h105l-11-124h-110c-27 0-54-11-75-30-21-19-34-45-37-73-2-28 7-55 26-76 18-20 44-31 73-31h105l-9-105c-3-29 6-56 25-77 18-20 45-31 73-31 28 0 55 10 76 30 21 19 33 45 36 72 0 1 0 1 0 1l9 110 124 0-9-105c-3-29 6-56 25-77 19-20 45-31 73-31 28 0 55 10 76 30 21 19 34 45 36 73 0 0 0 0 0 0l10 110h110c0 0 0 0 0 0 28 0 54 10 75 30 21 19 34 45 36 72 3 29-6 56-25 76-19 21-45 32-73 32h-105l11 124z m-174-173c5-6 13-9 21-9h137c12 0 22-5 30-13 8-8 11-20 10-32-2-26-27-49-53-49-1 0-1 0-1 0h-136c-15 0-28-11-29-27l-12-136c0 0 0 0 0-1-3-26-27-49-54-49-12 0-22 5-30 13-7 8-11 19-10 32l12 136c1 9-2 17-7 23-6 6-14 9-22 9l-182 0c-16 0-28-11-30-27l-12-136c0 0 0-1 0-1-2-26-26-49-53-49-12 0-23 5-30 13-8 8-11 19-10 32l12 136c1 9-2 17-8 23-5 6-13 9-21 9h-137c-12 0-23 5-30 13-8 8-11 19-10 31 2 27 27 50 53 50h137c15 0 28 11 29 26l16 183c1 8-2 16-7 22-6 6-14 9-22 9h-137c-12 0-22 5-30 13-7 8-11 19-10 32 2 26 27 49 53 49h137c15 0 28 11 29 26l12 137c3 27 27 49 54 49 12 0 22-4 30-12 7-8 11-20 10-32l-12-136c-1-9 2-17 8-23 5-6 13-9 21-9h182c16 0 28 11 30 26l12 137c2 27 26 49 53 49 12 0 23-4 30-12 8-8 11-20 10-32l-12-136c0-9 2-17 8-23 5-6 13-9 21-9h137c12 0 23-5 30-13 8-8 11-19 10-31-2-27-27-50-53-50h-137c-15 0-28-11-29-26l-16-183c-1-8 2-16 8-22z m0 0" horiz-adv-x="1000" />

<glyph glyph-name="heart" unicode="&#xe830;" d="M922 692c-53 53-123 83-198 83-74 0-144-29-196-81l-27-27-27 27c-53 52-123 81-197 81-74 0-143-29-196-81-52-53-81-122-81-196s29-144 81-196l347-347c20-20 46-30 73-30 26 0 52 10 72 30l345 344c108 109 110 285 4 393z m-41-356l-344-345c-20-20-53-20-73 0l-346 347c-43 43-67 99-67 160s24 117 67 160c42 42 99 66 159 66 61 0 117-24 160-66l27-28-41-41c-10-10-10-26 0-36 5-5 11-8 18-8 7 0 13 3 18 8l105 105c43 42 99 66 160 66 61 0 118-24 161-68 86-88 85-232-4-320z m30 173c-3 46-22 89-55 121-23 23-51 40-82 48-13 4-28-4-31-17-4-14 4-28 17-32 23-6 43-18 60-35 23-23 37-55 40-88 0-13 12-24 25-24 1 0 1 0 2 0 14 1 25 13 24 27z" horiz-adv-x="1000" />

<glyph glyph-name="home" unicode="&#xe831;" d="M976 414c0 0 0 0 0 0l-409 409c-17 17-40 27-65 27-25 0-48-10-65-27l-409-408c0-1 0-1 0-1-36-36-36-94 0-130 16-17 38-26 61-27 1 0 2 0 3 0h16v-301c0-60 49-108 108-108h160c16 0 30 13 30 29v236c0 27 22 50 49 50h94c27 0 49-23 49-50v-236c0-16 14-29 30-29h160c59 0 108 48 108 108v301h15c24 0 47 9 65 27 36 36 36 94 0 130z m-42-89c-6-6-14-9-23-9h-45c-16 0-29-14-29-30v-330c0-27-22-49-49-49h-131v206c0 60-48 108-108 108h-94c-60 0-108-48-108-108v-206h-131c-27 0-49 22-49 49v330c0 16-13 30-29 30h-44c0 0-1 0-1 0-9 0-17 3-23 9-14 13-14 35 0 48 0 0 0 0 0 0l0 0 408 409c7 6 15 9 24 9 9 0 17-3 24-9l408-409c0 0 0 0 0 0 13-13 13-35 0-48z m0 0" horiz-adv-x="1000" />

<glyph glyph-name="id-card" unicode="&#xe832;" d="M936 676h-872c-35 0-64-29-64-64v-524c0-35 29-64 64-64h872c35 0 64 29 64 64v524c0 35-29 64-64 64z m22-588c0-12-10-21-22-21h-872c-12 0-21 9-21 21v524c0 12 9 22 21 22h872c12 0 22-10 22-22v-524z m-134 402h-227c-12 0-22-10-22-22 0-11 10-21 22-21h227c12 0 22 10 22 21 0 12-10 22-22 22z m0-119h-227c-12 0-22-9-22-21 0-12 10-21 22-21h227c12 0 22 9 22 21 0 12-10 21-22 21z m0-118h-227c-12 0-22-10-22-21 0-12 10-22 22-22h227c12 0 22 10 22 22 0 11-10 21-22 21z m-432 30c0 0-39-1-50 41 15 11 26 26 35 45 1 0 1 0 2 0 6 0 11 2 15 7 18 23 27 53 26 84-2 64-47 115-102 116-2 0-3 0-4 0 0 0 0 0 0 0-14 5-28 8-42 8-31-1-60-17-81-44-20-26-30-59-29-95 0-5 1-11 2-16 2-15 6-30 12-43 3-6 9-11 16-11 2 0 4 0 6 0 9-21 22-39 37-51-10-42-49-41-49-41-42-1-76-36-76-78v-77c0-11 9-19 19-19h319c11 0 19 8 19 19v77c0 42-33 77-75 78z m-190 149c0 1 0 2 0 2-1 4-1 8-2 13 0 26 7 51 22 70 13 18 31 28 51 28 1 1 16 2 29-6 2-1 6-2 9-2 0 0 6 0 6 0 34 0 63-35 65-78 0-5 0-10-1-15-12 22-31 38-54 48-4 2-10 2-15 0-4-2-8-6-10-11-1-4-3-8-5-12-5-9-15-14-27-14-2 0-5 0-7 0-11 0-22-2-32-6-11-4-20-9-29-17z m26-27c5 3 11 6 16 8 10 4 23 4 25 4 24-1 47 11 59 30 10-7 18-17 24-29-6-43-33-75-63-75-27 0-51 25-61 62z m42-99c6-1 13-2 19-2 6 0 12 1 18 2 6-19 19-36 36-47-8-22-29-38-54-38s-46 16-55 38c17 11 30 28 36 47z m-122-159v58c0 22 18 40 40 40 1 0 8 0 11 1 13-37 49-63 90-63 41 0 77 26 90 63 3-1 10-1 11-1 21 0 39-18 39-40v-58h-281z" horiz-adv-x="1000" />

<glyph glyph-name="idea" unicode="&#xe833;" d="M112 526h-87c-13 0-24-11-24-25s11-24 24-24h87c13 0 24 11 24 24s-11 25-24 25z m863 0h-87c-13 0-24-11-24-25s11-24 24-24h87c14 0 24 11 24 24s-10 25-24 25z m-763-313c-10 9-25 9-35 0l-63-63c-9-10-9-25 0-35 5-4 11-7 17-7s13 3 17 7l64 64c9 9 9 25 0 34z m630 630c-10 9-25 9-35 0l-61-62c-10-9-10-24 0-34 5-5 11-7 17-7 6 0 12 2 17 7l62 62c9 9 9 25 0 34z m-588-62l-61 62c-10 9-25 9-35 0-9-9-9-25 0-34l62-62c5-5 11-7 17-7s12 2 17 7c10 10 10 25 0 34z m632-631l-63 63c-10 9-25 9-34 0-10-10-10-25 0-34l63-64c4-4 11-7 17-7 6 0 12 3 17 7 9 10 9 25 0 35z m-386 634c-167 0-303-142-303-317 0-81 29-169 80-240 39-55 59-116 59-176v-153c0-26 22-48 49-48h230c27 0 49 22 49 48v153c0 60 20 121 59 176 51 71 80 159 80 240 0 175-136 317-303 317z m115-886h-230v32h115c13 0 24 11 24 24s-11 24-24 24h-115v32h230l0-112c0 0 0 0 0 0z m-149 452l-32 69h132l-32-69c-1-3-2-6-2-9l-19-283h-26l-19 283c0 3-1 6-2 9z m218-95c-43-61-67-129-68-197h-55l19 275 46 100c4 7 3 16-1 23-5 7-12 11-21 11h-208c-9 0-16-4-21-11-4-7-5-16-1-23l46-100 19-275h-54c-2 68-26 136-69 197-44 62-71 142-71 212 0 148 114 269 255 269s255-121 255-269c0-70-26-150-71-212z" horiz-adv-x="1000" />

<glyph glyph-name="image" unicode="&#xe834;" d="M956 762h-912c-24 0-44-19-44-44v-736c0-25 20-44 44-44h912c24 0 44 19 44 44v736c0 25-20 44-44 44z m0-780l-912 0c0 0 0 0 0 0v736h912v-736z m-83 676h-746c-12 0-22-10-22-23v-487c0-13 10-23 22-23h746c12 0 22 10 22 23v487c0 13-10 23-22 23z m-724-45h702v-373l-139 139c-9 8-23 8-31 0l-85-85-195 194c-8 9-22 9-31 0l-221-221v346z m0-443v35l237 237 272-272h-509z m702 0h-131v0l-93 93 69 69 150-150c1-1 3-2 5-3v-9z m-257 401c-46 0-83-37-83-83s37-83 83-83 84 37 84 83-38 83-84 83z m0-122c-21 0-39 17-39 39 0 22 18 39 39 39 22 0 40-17 40-39 0-22-18-39-40-39z m-275-373h-192c-12 0-22-10-22-22 0-13 10-22 22-22h192c12 0 22 9 22 22 0 12-10 22-22 22z m151 0h-50c-12 0-22-10-22-22 0-13 10-22 22-22h50c12 0 22 9 22 22 0 12-10 22-22 22z" horiz-adv-x="1000" />

<glyph glyph-name="inbox" unicode="&#xe835;" d="M610 200h-220c-17 0-30-13-30-30v-68c0-16 13-30 30-30h220c17 0 30 14 30 30v68c0 17-13 30-30 30z m-8-89h-204v50h204v-50z m388 257l1 0-146 287c-12 23-35 38-61 38h-28v27c0 10-8 19-19 19h-474c-11 0-19-9-19-19v-27h-28c-26 0-49-15-61-38l-145-287 0 0c-6-11-10-23-10-35v-304c0-37 30-68 68-68h864c38 0 68 31 68 68v304c0 12-4 24-10 35z m-234 282h28c10 0 18-6 23-14l119-236h-81v73c0 11-9 19-19 19h-24v104c0 11-9 20-20 20h-26v34z m50-197v-53h-102c-18 0-34-10-41-26l-28-62c0 0-1-1-1-1h-268c0 0-1 1-1 1l-28 62c-7 16-23 26-41 26h-102v53h612z m-524 247h436v-84h-436v84z m481-123v-85h-526v85h526z m-570 59c5 8 13 14 23 14h28v-34h-26c-11 0-19-9-19-20v-104h-24c-11 0-20-8-20-19v-73h-81l119 236z m739-632h-864c-14 0-25 11-25 25v304c0 13 11 24 25 24h228c1 0 1 0 2-1l28-61c7-16 23-27 40-27h268c17 0 33 11 40 26l28 62v0c1 1 1 1 2 1h228c14 0 25-11 25-24v-304h0c0-14-11-25-25-25z" horiz-adv-x="1000" />

<glyph glyph-name="information" unicode="&#xe836;" d="M612 640c-19 22-49 35-83 35-59 0-112-41-118-91-3-23 4-45 20-62 19-22 49-34 82-34 61 0 113 40 119 90 3 23-4 45-20 62z m-28-56c-3-26-35-48-71-48-19 0-37 7-46 18-7 7-10 15-9 24 3 26 37 49 71 49 20 0 37-7 47-19 5-5 10-13 8-24z m5-456c-6 4-20 14-8 79 0 2 1 7 3 15 4 19 11 54 20 92 0 0 0 0 0 1 8 41 1 78-19 105-19 25-49 40-84 43-52 4-106-27-123-57-7-14-4-25-1-30 4-7 9-10 13-13 6-4 19-14 6-79-1-6-19-99-22-113 0 0 0 0 0 0-7-42 0-79 22-105 35-43 89-41 91-41 50 0 100 31 115 61 7 13 3 24 0 30-3 6-9 10-13 12z m-32 196c-9-39-16-73-20-92-3-12-3-15-4-16 0 0 0 0 0 0-12-70 1-101 18-118-5-4-11-9-19-13-16-8-34-13-49-12-21 1-38 9-49 23-13 16-17 39-12 67 2 14 21 107 21 111 0 0 0 0 0 0 14 70 3 101-14 118 5 5 11 9 20 13 16 8 33 12 48 10 22-1 39-10 49-24 13-16 16-39 11-67z m341-245c66 79 102 177 102 277 0 123-52 238-147 324-95 86-220 133-353 133s-258-47-353-133c-95-86-147-201-147-324s52-238 147-324c95-86 220-134 353-134 83 0 165 19 238 55l174-65c3-1 6-1 9-1 6 0 12 2 16 6 7 6 9 16 7 24l-46 162z m-153-77c-6 3-13 2-20-1-68-36-146-55-225-55-249 0-452 184-452 410s203 409 452 409 452-183 452-409c0-94-34-182-99-256-5-6-7-14-5-22l37-128-140 52z" horiz-adv-x="1000" />

<glyph glyph-name="instagram" unicode="&#xe837;" d="M729 850h-458c-150 0-271-121-271-271v-458c0-150 121-271 271-271h458c150 0 271 121 271 271v458c0 150-121 271-271 271z m212-729c0-117-95-212-212-212h-458c-117 0-212 95-212 212v458c0 117 95 212 212 212h458c117 0 212-95 212-212z m0 0m-441 502c-151 0-273-122-273-273s122-273 273-273 273 122 273 273-122 273-273 273z m0-488c-118 0-215 97-215 215 0 118 97 215 215 215 118 0 215-97 215-215 0-118-97-215-215-215z m0 0m280 586c-45 0-81-37-81-81 0-45 36-81 81-81s81 36 81 81-36 81-81 81z m0-103c-12 0-22 10-22 22 0 12 10 22 22 22 12 0 22-10 22-22 0-12-10-22-22-22z m0 0" horiz-adv-x="1000" />

<glyph glyph-name="key" unicode="&#xe838;" d="M654 850c-186 0-338-152-338-338 0-41 8-82 22-120l-323-323c-5-5-7-11-7-17v-177c0-14 11-25 24-25h146c7 0 13 3 18 7l49 49c4 5 7 11 7 18v60h60c14 0 25 11 25 25v24h24c14 0 25 11 25 24v53h53c6 0 12 3 17 8l78 78c39-15 79-22 120-22 187 0 338 152 338 338 0 186-151 338-338 338z m0-627c-40 0-79 8-116 25-9 4-20 1-27-5 0 0 0-1 0-1l-83-82h-67c-14 0-25-11-25-25v-53h-24c-13 0-24-11-24-25v-24h-61c-13 0-24-11-24-24v-75l-35-35h-111v35l301 301c9 9 9 23 0 32s-23 8-31 0l-270-270v44l328 328c0 0 0 0 0 0 7 7 9 18 5 27-16 37-24 76-24 116 0 159 129 289 288 289s289-130 289-289c0-159-130-289-289-289z m103 484c-51 0-92-41-92-92s41-92 92-92 92 41 92 92-41 92-92 92z m0-135c-24 0-43 19-43 43s19 43 43 43 43-19 43-43-19-43-43-43z" horiz-adv-x="1000" />

<glyph glyph-name="laptop" unicode="&#xe839;" d="M826 591h-652c-12 0-21-9-21-21v-325c0-12 9-22 21-22s22 10 22 22v303h608v-303h0c0-12 10-22 22-22s21 10 21 22v325c0 12-9 21-21 21z m155-423h-40v452c0 36-29 65-65 65h-752c-36 0-65-29-65-65v-452h-40c-10 0-19-9-19-19v-38c0-53 43-96 96-96h808c53 0 96 43 96 96v38c0 10-9 19-19 19z m-879 452c0 12 10 22 22 22h752c12 0 22-10 22-22v-452h-291c-2 0-3 0-5 0-9-2-15-10-15-19 0-17-14-30-30-30h-114c-16 0-30 13-30 30 0 10-9 19-19 19h-292v452z m859-509l0 0c0-32-25-57-57-57h-808c-32 0-57 25-57 57v18h338c9-28 35-49 66-49h114c31 0 57 21 66 49h338v-18z m-429 355c-8 9-22 9-30 0l-136-135c-8-8-8-22 0-30 4-5 10-7 15-7 6 0 11 2 16 7l135 135c8 8 8 22 0 30z m80-78c-8 8-22 8-30 0l-54-54c-9-8-9-22 0-30 4-5 10-7 15-7 6 0 11 2 15 7l54 53c9 9 9 22 0 31z" horiz-adv-x="1000" />

<glyph glyph-name="layers" unicode="&#xe83a;" d="M1000 350c0 21-12 40-31 50l-74 37 74 37c0 0 0 0 0 0 19 10 31 29 31 50 0 21-12 40-31 49l-420 210c-31 16-67 16-98 0l-420-210c-19-9-31-28-31-49 0-21 12-40 31-50l74-37-74-37c-19-10-31-29-31-50s12-40 31-50l74-37-74-37c-19-9-31-28-31-50 0-21 12-40 31-49l420-210c15-8 32-12 49-12 17 0 34 4 49 12l420 210c19 9 31 28 31 49 0 22-12 41-31 50l-74 37 74 37c19 10 31 29 31 50z m-949 165c-4 3-5 7-5 9s1 6 5 8l421 210c9 5 18 7 28 7 10 0 20-2 29-7l420-210c4-2 5-6 5-8s-1-6-5-9l-420-210c-18-9-40-9-57 0l-421 210z m898-330c4-2 5-6 5-9 0-2-1-6-5-8l-420-210c-18-9-40-9-57 0l-421 210c-4 2-5 6-5 8 0 3 1 7 5 9l106 53 294-148c15-7 32-11 49-11 17 0 34 4 49 11l295 148 105-53z m0 157l-420-211c-18-9-40-9-57 0l-421 211c-4 2-5 6-5 8 0 2 1 6 5 9l106 52 294-147c15-8 32-12 49-12 17 0 34 4 49 12l295 147 105-52c4-3 5-7 5-9 0-2-1-6-5-8z" horiz-adv-x="1000" />

<glyph glyph-name="like" unicode="&#xe83b;" d="M980 262c0 16-5 32-14 44 21 15 34 39 34 66 0 43-36 79-79 79h-209l14 29c19 44 29 90 29 137 0 0 0 58 0 58 0 45-37 82-82 82-33 0-63-20-75-51-1-2-20-58-20-58-17-49-47-93-87-127l-97-81h-56v26c0 26-22 48-48 48h-241c-27 0-49-22-49-48v-474c0-27 22-49 49-49h241c26 0 48 22 48 49v38h31l30-15c72-34 152-53 231-53h111 34 85c44 0 79 36 79 80 0 16-5 32-14 45 21 14 34 38 34 65 0 16-5 32-13 44 20 15 34 39 34 66z m-690-270h-241v474h241l0-474c0 0 0 0 0 0z m631 349h-35c-13 0-24-11-24-24 0-14 11-25 24-25h15c16 0 30-13 30-30s-14-31-30-31h-35c-13 0-24-11-24-24s11-25 24-25h14c17 0 31-13 31-30 0-17-14-31-31-31h-34c-14 0-25-11-25-24s11-25 25-25h14c17 0 31-13 31-30 0-17-14-31-31-31h-85-34-111c-72 0-145 17-210 48l-35 17c-3 2-7 3-11 3h-36v313h65c6 0 11 2 15 5l104 87c47 39 82 91 102 149 0 0 20 56 20 56 5 12 17 19 29 19 19 0 33-15 33-33 0 0 0-58 0-58 0-40-8-80-25-117l-28-63c-3-6-3-12-1-17 0-1 5-18 23-18h246c17 0 30-14 30-30 0-17-13-31-30-31z" horiz-adv-x="1000" />

<glyph glyph-name="liked" unicode="&#xe83c;" d="M137 334c-11 0-20-8-20-19 0-11 9-20 20-20s19 9 19 20c0 11-8 19-19 19z m863-68c0 28-13 52-33 68 26 21 37 53 32 83-7 42-46 74-90 74-22 0-164 0-187 0l6 17c33 99 3 205-70 268-41 35-110 23-132-35-1-4-1-9 0-13 16-51 16-86 1-119-16-35-51-72-117-122-16-13-30-20-43-27-21-11-41-22-61-47h-72v19c0 11-8 20-19 20h-195c-11 0-20-9-20-20v-508c0-11 9-19 20-19h195c11 0 19 8 19 19v59h110c57-51 130-78 206-78 45 0 195 0 245 0 49 0 88 39 88 88 0 18-6 35-15 49h5c49 0 88 39 88 87 0 21-7 40-19 55 34 12 58 44 58 82z m-805-322h-156v469h156v-469z m717 273c-19 0-167 0-187 0-11 0-20-8-20-19s9-20 20-20h148c27 0 49-22 49-49 0-27-22-48-49-48-55 0-104 0-148 0-11 0-20-9-20-20s9-19 20-19h70c27 0 49-22 49-49 0-27-22-49-49-49-51 0-203 0-245 0-69 0-135 26-185 73-4 3-9 5-13 5h-118v352h81c6 0 12 2 16 7 18 24 33 33 55 44 14 8 30 17 48 31 134 103 164 166 131 277 13 25 46 32 69 12 62-55 84-143 57-225l-10-29h-25c-10 0-19-9-19-20s9-19 19-19c30 0 222 0 253 0 25 0 48-18 51-41 5-31-19-57-48-57-20 0-168 0-187 0-11 0-20-9-20-20s9-19 20-19c19 0 167 0 187 0 27 0 49-22 49-49 0-27-22-49-49-49z m-775 39c-11 0-20-8-20-19v-195c0-11 9-20 20-20s19 9 19 20v195c0 11-8 19-19 19z" horiz-adv-x="1000" />

<glyph glyph-name="line-chart" unicode="&#xe83d;" d="M894 587c-59 0-106-48-106-106 0-22 6-41 17-58l-115-115c-16 11-36 17-58 17-22 0-42-6-59-18l-116 116c11 17 17 36 17 58 0 58-48 106-106 106-59 0-106-48-106-106 0-22 6-41 17-58l-115-115c-17 11-36 17-58 17-58 0-106-47-106-106s48-106 106-106c59 0 106 48 106 106 0 22-6 42-17 58l115 115c17-11 36-17 58-17 21 0 41 6 58 17l116-117c-10-16-16-35-16-56 0-58 48-106 106-106s107 48 107 106c0 22-7 42-18 58l115 115c17-11 37-17 58-17 58 0 106 47 106 106 0 58-48 106-106 106z m-788-430c-34 0-62 28-62 62 0 35 28 63 62 63 35 0 63-28 63-63 0-34-28-62-63-62z m262 262c-35 0-63 27-63 62 0 34 28 62 63 62 34 0 62-28 62-62 0-35-28-62-62-62z m264-262c-34 0-62 28-62 62s28 63 62 63c35 0 63-28 63-63 0-34-28-62-63-62z m262 262c-34 0-62 27-62 62 0 34 28 62 62 62 34 0 62-28 62-62 0-35-28-62-62-62z m-549-102c-8 9-22 9-31 0l-44-44c-9-9-9-23 0-31 4-5 10-7 15-7s11 2 16 7l44 44c9 9 9 23 0 31z m385 141c-8 8-22 8-31 0l-44-45c-9-9-9-23 0-31 4-4 10-7 15-7 6 0 12 3 16 7l44 45c9 8 9 22 0 31z" horiz-adv-x="1000" />

<glyph glyph-name="line" unicode="&#xe83e;" d="M321 369h-67v172c0 13-12 21-30 21s-29-8-29-21v-204c0-13 12-22 27-22h99c13 0 21 11 21 27 0 16-8 27-21 27z m0 0m65 193c-17 0-29-8-29-21v-204c0-13 12-22 29-22 17 0 29 9 29 22v204c0 13-11 21-29 21z m0 0m200 0c-18 0-29-8-29-21v-90l-44 85c-11 20-20 26-39 26-17 0-29-8-29-21v-204c0-13 12-22 29-22 17 0 30 9 30 22v91l51-95c6-12 16-18 31-18 17 0 29 9 29 22v204c0 13-12 21-29 21z m0 0m197-53c13 0 22 11 22 27 0 15-9 26-22 26h-112c-15 0-26-9-26-21v-204c0-13 11-22 26-22h112c13 0 22 11 22 27 0 15-9 27-22 27h-80v45h39c14 0 22 13 22 25 0 14-10 25-22 25h-39v45z m0 0m68 223c-94 76-219 118-351 118s-257-42-351-118c-96-78-149-182-149-293 0-105 48-204 134-281 78-68 182-113 294-126v-109c0-17 13-30 29-30 51 0 188 62 304 152 69 53 125 110 165 170 49 73 74 148 74 224 0 111-53 215-149 293z m-126-641c-51-39-111-76-168-104-30-14-54-23-70-29v100c0 16-12 28-28 30-224 16-400 170-400 351 0 194 198 352 441 352s441-158 441-352c0-150-117-272-216-348z m0 0" horiz-adv-x="1000" />

<glyph glyph-name="linkedin" unicode="&#xe83f;" d="M204 554h-169c-19 0-34-15-34-34v-636c0-19 15-34 34-34h169c19 0 34 15 34 34v636c0 19-15 34-34 34z m-25-645h-119v586h119z m0 0m-59 941c-66 0-120-54-120-119 0-66 54-120 120-120 65 0 119 54 119 120 0 65-54 119-119 119z m0-180c-34 0-61 27-61 61 0 33 27 60 61 60 33 0 60-27 60-60 0-34-27-61-60-61z m0 0m663-191c-40 34-91 52-144 51-33-1-65-8-94-23v14c0 18-14 33-32 33h-172c-18 0-33-15-33-33v-638c0-18 15-33 33-33h175c16 0 29 13 29 29v381c0 33 26 60 59 61 33 1 61-26 61-60v-382c0-16 13-29 29-29h168c16 0 29 13 29 29v371c0 89-39 172-108 229z m49-570h-108v352c0 66-53 119-119 119-65 0-118-53-118-119v-352h-120v586h120v-42h0c0-7 2-14 7-20 11-12 29-13 42-2 29 25 66 40 104 40 39 1 76-12 106-37 55-46 86-113 86-184z m0 0" horiz-adv-x="1000" />

<glyph glyph-name="loupe" unicode="&#xe840;" d="M894 744c-142 141-372 141-513 0-69-69-106-160-106-257 0-88 31-171 88-237l-43-43-44 44c-5 4-11 7-18 7-7 0-14-3-18-7l-207-207c-21-21-33-50-33-80 0-31 12-59 33-81 22-21 50-33 81-33 30 0 59 12 80 33l206 207c5 5 8 11 8 18 0 7-3 13-8 18l-44 44 44 43c68-59 152-88 237-88 93 0 186 35 257 106 68 68 106 159 106 256 0 97-38 188-106 257z m-736-824c-12-12-28-19-44-19-17 0-33 7-44 19-12 11-18 27-18 44s6 32 18 44l115 115 88-88-115-115z m151 151l-88 88 37 37 88-88-37-37z m548 196c-121-121-318-121-440 0-59 59-91 137-91 220 0 84 32 162 91 221 61 60 141 91 220 91 80 0 160-31 220-91 59-59 92-137 92-221s-33-161-92-220z m-42 398c-98 98-257 98-355 0-98-98-98-257 0-355 49-49 113-74 177-74s129 25 178 74v0c98 98 98 257 0 355z m-36-319c-78-78-205-78-283 0-78 78-78 205 0 283 39 39 90 58 141 58 51 0 103-19 142-58 77-78 77-205 0-283z m-46 237c-53 53-139 53-192 0-10-10-10-26 0-36 11-10 27-10 37 0 33 33 86 33 119 0 5-5 11-8 18-8 6 0 13 3 18 8 10 10 10 26 0 36z" horiz-adv-x="1000" />

<glyph glyph-name="mail" unicode="&#xe841;" d="M999 450c0 12-4 23-13 31-8 9-20 13-32 13 0 0 0 0 0 0l-909-1c-12 0-23-5-32-13-8-9-13-20-13-32l1-514c0-25 20-45 45-45 0 0 0 0 0 0l909 2c12 0 23 4 32 13 8 8 13 20 13 32l-1 514z m-94-1l-405-281-406 280 811 1z m-236-326l241-188-821-1 243 189c10 7 12 22 4 31-8 10-22 12-32 4l-258-200-1 470 442-306c4-3 9-4 13-4 5 0 9 1 13 4l441 307 1-471-259 200c-9 8-23 6-31-4-8-9-6-24 4-31z m-62 605l-82 73c-14 13-36 13-50 0l-81-73c-10-8-10-22-2-31 8-10 22-11 32-2l54 48v-173c0-13 10-23 22-23 12 0 23 10 23 23v173l54-48c4-4 9-6 15-6 6 0 12 3 16 8 9 9 8 23-1 31z" horiz-adv-x="1000" />

<glyph glyph-name="map" unicode="&#xe842;" d="M142 660c-32 0-58-25-58-57 0-32 26-58 58-58s57 26 57 58c0 32-26 57-57 57z m0-74c-9 0-17 8-17 17s8 16 17 16c8 0 16-7 16-16s-8-17-16-17z m819-102v147c0 28-24 51-52 51l-651 1c-5 7-11 14-17 20-27 27-63 42-101 41-77-1-139-64-140-141 0-22 5-45 16-65 0 0 33-57 33-57v-473c0-28 24-52 52-52l808 0c28 0 52 23 52 52v273c0 0 23 40 24 40 10 20 15 42 15 65 0 37-14 71-39 98z m-143 157l-100-101-101 101 201 0z m-127-127l-175-175-64 64c0 0 0 0 0 0s0 0 0 0l-48 48 175 175 112-112z m-348-247l96 96 124-124-97-96-123 124z m23-77l-108-108-87 87 108 108 87-87z m-99 348c11 20 16 42 16 65 0 13-2 26-5 38l263 0-163-164-59 59c-7 7-19 7-26 0-8-8-8-19 0-27l119-120-96-96-78 78c-7 7-19 7-26 0-8-7-8-19 0-26l41-42-162-162v271l15-25c7-13 21-20 36-20s28 7 35 20c0 0 90 151 90 151z m-215 20c-7 14-10 29-10 45 0 54 44 99 98 99 27 1 52-9 72-28 6-7 12-14 16-22 0 0 1-1 1-1 8-15 12-31 12-48 0-16-3-31-10-45l-89-150-90 150z m49-560c-5 0-10 5-10 10v80l54 54 144-144-188 0z m241 0l-57 58 108 108 165-166-216 0z m151 118l96 97 70-70-96-97-70 70z m118-118l-22 22 97 96 118-118-193 0z m298 0l-52 0-145 145 44 43c7 8 7 19 0 27-8 7-19 7-27 0l-43-44-84 83c0 0 0 0 0 0 0 0 0 0 0 0l-59 60 71 71 37-37c4-4 9-6 14-6s11 2 15 6c8 8 8 22 0 30l-37 36 228 229 38 0c5 0 10-5 10-10v-117c-19 9-40 13-62 13-77-1-139-64-140-140 0-23 5-46 16-66 0 0 90-151 90-151 7-13 21-20 36-20 14 0 28 7 35 20l25 41v-203h0c0-6-5-10-10-10z m39 343l-26-44c0 0 0 0 0 0l-63-106-90 150c-7 14-10 29-10 45 0 54 44 99 98 100 27 0 53-10 72-29 19-19 29-44 29-71 0-16-3-31-10-45z m-89 103c-32 0-58-26-58-58 0-32 26-58 58-58 31 0 57 26 57 58 0 32-26 58-57 58z m0-75c-9 0-17 8-17 17s8 16 17 16 16-7 16-16-7-17-16-17z" horiz-adv-x="1000" />

<glyph glyph-name="medal" unicode="&#xe843;" d="M994 669l-151 151c-5 4-10 6-16 6h-654c-6 0-11-2-15-6l-152-151c-7-7-8-19-2-27l316-482c-13-26-20-56-20-86 0-111 90-200 200-200s200 89 200 200c0 30-7 60-20 86l317 482c5 8 4 20-3 27z m-812 115h637l108-109h-151c0 0 0 0-1 0h-550c0 0-1 0-1 0h-151l109 109z m554-152l-236-359c0 0 0 0 0 0 0 0 0 0 0 0l-236 359h472z m-675 0h152l239-364c-42-11-80-35-107-68l-284 432z m439-716c-87 0-157 71-157 158s70 157 157 157c87 0 157-71 157-157 0-87-70-158-157-158z m155 284c-27 33-65 57-107 67l239 365h152l-284-432z m-148-48h-34c-11 0-21-10-21-22 0-11 10-21 21-21h13v-116c0-11 9-21 21-21 12 0 22 10 22 21v137c0 12-10 22-22 22z" horiz-adv-x="1000" />

<glyph glyph-name="mega" unicode="&#xe844;" d="M854 704c-95 94-220 146-354 146s-259-52-354-146c-94-95-146-220-146-354s52-259 146-354c95-94 220-146 354-146s259 52 354 146c94 95 146 220 146 354s-52 259-146 354z m-354-795c-243 0-441 198-441 441s198 441 441 441 441-198 441-441-198-441-441-441z m120 675l-120-119-120 119h-158v-468h176v203l102-103 103 103v-203h175v468h-158z m100-410h-59v286l-161-161-161 161v-286h-59v352h76l144-144 144 144h76v-352z" horiz-adv-x="1000" />

<glyph glyph-name="megaphone" unicode="&#xe845;" d="M878 581v161c0 18-9 34-24 43-16 9-34 9-50 0-148-83-310-131-480-144-1 0-155-1-155-1-38 0-70-29-75-66h-31c-35 0-63-28-63-63v-138c0-34 28-62 63-62h31c3-27 21-50 45-60l112-310c7-20 26-33 46-33h113c16 0 31 8 40 21 9 13 11 30 6 45l-97 266c158-16 307-63 445-141 8-4 16-6 25-6 8 0 17 2 25 7 15 9 24 25 24 42v161c69 9 122 68 122 139 0 71-53 130-122 139z m-784-222h-31c-8 0-15 7-15 14v138c0 8 7 14 15 14h31v-166z m64-64c-9 4-16 14-16 25v245h0c0 15 12 27 27 27h132v-299c0 0-133 0-134 0-4 0-5 0-9 2z m252-337c0-1 1-1 0-1 0 0 0 0 0 0h-113c0 0 0 0-1 0l-104 287h115l103-286z m420 184c0 0 0 0-1 0 0-1-1-1-1 0-149 83-310 132-479 148v305c169 15 330 65 479 148 0 0 1 0 1 0 1 0 1-1 1-1v-600z m48 210v180c42-8 74-45 74-90 0-44-32-81-74-90z" horiz-adv-x="1000" />

<glyph glyph-name="message-open" unicode="&#xe846;" d="M999 464c0 2 0 4-1 5-1 6-5 11-10 14l-143 100v107c0 14-11 25-25 25h-165l-140 98c-9 6-21 6-29 0l-141-98h-164c-15 0-26-11-26-25v-106l-144-99c-7-5-11-13-11-21 0 0 0 0 0 0l1-556c0-6 3-13 7-18 5-5 12-7 18-7 0 0 0 0 0 0l948 1c15 0 26 12 26 26l-1 554z m-154 57l82-57-82-57v114z m-345 239l65-45h-130l65 45z m-294-96h588v-293l-197-137-81 62c0 0 0 1 0 1-9 6-22 7-31-1l-81-62-198 136v294z m-51-142v-117l-84 59 84 58z m-104-107l310-214-309-240-1 454z m50-481l399 310 398-309-797-1z m538 267l309 215 1-455-310 240z m34 361h-346c-14 0-26-12-26-26s12-26 26-26h346c15 0 26 12 26 26s-11 26-26 26z m0-134h-346c-14 0-26-11-26-25 0-14 12-26 26-26h346c15 0 26 12 26 26 0 14-11 25-26 25z" horiz-adv-x="1000" />

<glyph glyph-name="message-send" unicode="&#xe847;" d="M999 450c0 24-20 44-45 44 0 0 0 0 0 0l-909-1c-25 0-45-20-45-45l1-514c0-25 20-45 45-45 0 0 0 0 0 0l909 2c12 0 23 4 32 13 8 8 13 20 13 32l-1 514z m-94-1l-405-281-406 280 811 1z m-236-326l241-188-821-1 243 189c10 7 12 22 4 31-8 10-22 12-32 4l-258-200-1 470 442-306c4-3 9-4 13-4 5 0 9 1 13 4l441 307 1-471-259 200c-9 8-23 6-31-4-8-9-6-24 4-31z m-62 605l-82 73c-14 13-36 13-50 0l-81-73c-10-8-10-22-2-31s22-11 32-2l54 48v-173c0-13 10-23 22-23s23 10 23 23v173l54-48c4-4 9-6 15-6 6 0 12 3 16 8 9 9 8 23-1 31z" horiz-adv-x="1000" />

<glyph glyph-name="message" unicode="&#xe848;" d="M892 849h-784c-60 0-108-48-108-108v-659c0-59 48-108 108-108h784c60 0 108 49 108 108v659c0 60-48 108-108 108z m0-59c3 0 5 0 7 0l-364-365c-19-19-51-19-70 0l-364 365c2 0 4 0 7 0z m49-708c0-27-22-49-49-49h-784c-27 0-49 22-49 49v659c0 3 0 5 0 8l365-365c21-21 48-32 76-32s55 11 76 32l365 365c0-3 0-5 0-8z m0 0" horiz-adv-x="1000" />

<glyph glyph-name="microphone" unicode="&#xe849;" d="M805 517c-13 0-24-11-24-24v-147c0-155-126-281-281-281s-281 126-281 281v147c0 13-11 24-24 24-13 0-23-11-23-24v-147c0-173 134-315 305-327v-122h-122c-13 0-23-11-23-24 0-13 10-23 23-23h290c13 0 23 10 23 23 0 13-10 24-23 24h-121v122c170 12 304 154 304 327v147c0 13-10 24-23 24z m-289 333h-32c-107 0-194-87-194-195v-324c0-108 87-195 194-195h32c107 0 194 87 194 195v324c0 108-87 195-194 195z m147-256h-85c-13 0-23-10-23-23 0-13 10-23 23-23h85v-66h-85c-13 0-23-10-23-23s10-24 23-24h85v-65h-85c-13 0-23-11-23-24s10-23 23-23h85c-4-78-68-140-147-140h-32c-78 0-143 62-147 140h85c13 0 23 10 23 23s-10 24-23 24h-85v65h85c13 0 23 11 23 24s-10 23-23 23h-85v66h85c13 0 23 10 23 23 0 13-10 23-23 23h-85v61c0 59 34 110 83 134v-67c0-13 11-23 24-23s23 10 23 23v80c6 1 60 1 66 0v-80c0-13 10-23 23-23 13 0 24 10 24 23v67c49-24 83-75 83-134v-61z" horiz-adv-x="1000" />

<glyph glyph-name="money" unicode="&#xe84a;" d="M979 634h-957c-12 0-22-10-22-22v-524c0-12 10-22 22-22h957c11 0 21 10 21 22v524c0 12-10 22-21 22z m-936-43h109c-9-56-53-100-109-109v109z m0-482v109c56-9 100-53 109-109h-109z m914 0h-109c9 56 53 100 109 109v-109z m0 153c-79-10-143-73-152-153h-609c-10 80-73 143-153 153v176c80 10 143 73 153 153h609c9-80 73-143 152-153v-176z m0 220c-56 9-100 53-109 109h109v-109z m-181-39c-24 0-43 19-43 43 0 10-9 19-19 19h-427c-11 0-20-9-20-19 0-24-19-43-43-43-10 0-19-9-19-20v-146c0-11 9-20 19-20 24 0 43-19 43-43 0-10 9-19 20-19h427c10 0 19 9 19 19 0 24 19 43 43 43 11 0 19 9 19 20v146c0 11-8 20-19 20z m-19-149c-30-7-53-31-61-60h-392c-8 29-31 53-60 60v112c29 7 52 31 60 60h392c8-29 31-53 61-60v-112z m-330 145h-29c-11 0-20-9-20-19s9-20 20-20h9v-119c0-11 9-20 20-20 10 0 19 9 19 20v139c0 10-9 19-19 19z m174 0h-89c-10 0-19-9-19-19v-139c0-11 9-20 19-20h89c11 0 20 9 20 20v139c0 10-9 19-20 19z m-19-139h-50v100h50v-100z" horiz-adv-x="1000" />

<glyph glyph-name="monitor" unicode="&#xe84b;" d="M940 795h-880c-33 0-60-27-60-60v-607c0-33 27-60 60-60h302v-44c0-41-33-73-73-73h-67c-12 0-23-11-23-23 0-13 11-23 23-23h556c13 0 23 10 23 23 0 12-10 23-23 23h-67c-40 0-73 32-73 73v44h302c33 0 60 27 60 60v607c0 33-27 60-60 60z m-557-844c15 20 25 45 25 73v44h184v-44c0-28 10-53 25-73h-234z m571 177c0-8-6-14-14-14h-880c-7 0-14 6-14 14v121h908v-121z m0 167h-908v440c0 8 7 14 14 14h880c8 0 14-6 14-14v-440z m-414 342c-9 9-24 9-33 0l-163-163c-9-9-9-24 0-33 5-4 10-7 16-7 6 0 12 3 17 7l163 163c9 9 9 24 0 33z m96-95c-9 9-23 9-32 0l-65-65c-9-9-9-23 0-32 4-5 10-7 16-7 6 0 12 2 16 7l65 65c9 9 9 23 0 32z" horiz-adv-x="1000" />

<glyph glyph-name="music" unicode="&#xe84c;" d="M888 835c-22 16-51 19-77 10l-426-157c-33-12-55-44-55-79v-479c-24 17-55 24-89 19-39-5-77-25-108-56-30-31-50-69-56-108-6-41 5-77 31-103 21-21 49-32 82-32 7 0 14 0 21 1 39 6 77 26 107 57 31 30 51 68 57 107 0 6 1 12 1 18 0 0 0 415 0 415l503 186v-302c-25 17-56 24-90 19-38-5-77-25-107-56s-51-69-56-107c-6-41 5-78 30-104 21-21 50-32 82-32 7 0 14 1 22 2 38 5 76 25 107 56 31 30 51 69 56 107 1 6 2 549 2 549 0 27-14 53-37 69z m-558-799c0-5 0-10-1-14-4-29-19-58-43-82-24-24-53-39-81-43-27-4-50 2-65 18-15 15-21 38-17 64 4 29 19 58 43 81 23 24 52 40 81 44 5 0 10 1 15 1 20 0 37-7 49-19 13-12 19-30 19-50v0z m549 646l-503-185v112c0 16 10 30 25 36l426 157c12 4 25 3 35-5 11-7 17-19 17-31v-84z m0-444c0-5-1-10-1-14-5-29-20-58-44-82-23-23-52-39-81-43-26-4-49 3-64 18-15 15-22 38-18 64 4 29 19 58 43 82 24 23 53 39 82 43 5 0 9 1 14 1 20 0 38-7 50-19 12-12 19-30 19-50v0z" horiz-adv-x="1000" />

<glyph glyph-name="next" unicode="&#xe84d;" d="M933 600c-67 116-175 198-304 233-129 34-263 17-379-50-115-67-198-175-233-304-34-129-17-263 50-379 67-116 175-198 304-233 43-11 86-17 130-17 86 0 172 23 249 67 116 67 198 175 233 304 34 129 17 263-50 379z m0-366c-31-115-106-212-209-272-104-60-224-75-340-45-115 31-212 106-272 209-60 104-75 224-44 340 31 115 105 212 208 272 104 60 224 75 340 45 115-31 212-106 272-209 60-104 75-224 45-340z m-324 159l-271 157c-16 9-35 9-50 0-16-9-25-25-25-43v-314c0-18 9-34 25-43 7-5 16-7 25-7 8 0 17 2 25 7l271 157c16 9 25 25 25 43 0 18-9 34-25 43z m-294-196v306l265-153-265-153z m396 354c-14 0-26-12-26-26v-350c0-14 12-26 26-26s26 12 26 26v350c0 14-11 26-26 26z" horiz-adv-x="1000" />

<glyph glyph-name="padlock-close" unicode="&#xe84e;" d="M500 310c-55 0-99-45-99-100 0-27 11-53 31-72v-89c0-38 30-69 68-69s68 31 68 69v89c20 19 31 45 31 72 0 55-44 100-99 100z m35-137c-9-9-15-21-15-34v-90c0-11-9-20-20-20-11 0-20 9-20 20v90c0 13-6 25-15 34-10 10-16 23-16 37 0 29 23 52 51 52 28 0 51-23 51-52 0-14-5-27-16-37z m256 267h-72v191c0 121-98 219-219 219-121 0-219-98-219-219v-191h-72c-40 0-72-32-72-72v-446c0-40 32-72 72-72h582c40 0 72 32 72 72v446c0 40-32 72-72 72z m-462 191c0 94 77 171 171 171 94 0 171-77 171-171v-191h-342v191z m486-709l0 0c0-13-11-24-24-24h-582c-13 0-24 11-24 24v446c0 13 11 24 24 24h582c13 0 24-11 24-24v-446z" horiz-adv-x="1000" />

<glyph glyph-name="padlock-open" unicode="&#xe84f;" d="M500 310c-55 0-99-45-99-100 0-27 11-53 31-72v-89c0-38 30-69 68-69s68 31 68 69v89c20 19 31 45 31 72 0 55-44 100-99 100z m35-137c-9-9-15-21-15-34v-90c0-11-9-20-20-20-11 0-20 9-20 20v90c0 13-6 25-15 34-10 10-16 23-16 37 0 29 23 52 51 52s51-23 51-52c0-14-5-27-16-37z m256 267h-462v191c0 94 77 171 171 171s171-77 171-171v-86c0-14 11-24 24-24s24 10 24 24v86c0 121-98 219-219 219s-219-98-219-219v-191h-72c-40 0-72-32-72-72v-446c0-40 32-72 72-72h582c40 0 72 32 72 72v446c0 40-32 72-72 72z m24-518c0-13-11-24-24-24h-582c-13 0-24 11-24 24v446c0 13 11 24 24 24h582c13 0 24-11 24-24v-446z" horiz-adv-x="1000" />

<glyph glyph-name="paint-brush" unicode="&#xe850;" d="M986 812c-28 29-86 12-181-52-80-54-177-136-272-231-141-141-247-279-283-364-6 2-12 4-18 5-37 7-77-2-110-26-47-33-60-82-62-90-10-37-29-72-54-102-9-10-8-25 2-33 33-30 75-44 119-44 43 0 87 13 125 41 18 13 32 27 35 30 33 36 47 82 40 125 84 30 230 141 377 288 95 95 177 191 231 272 64 95 80 152 51 181z m-733-834c-1-1-13-13-28-24-54-39-120-43-168-13 22 31 39 66 48 102v0c1 0 1 1 1 1 0 0 8 37 43 62 22 16 49 23 74 18 20-4 36-15 47-32 21-33 13-81-17-114z m58 136c0 1-8 16-21 26 12 31 36 72 70 119l73-73c-51-37-93-61-122-72z m160 100l-82 83c14 18 29 37 46 56l93-93c-20-17-39-32-57-46z m418 432c-53-76-130-166-218-254-37-37-73-71-108-101l-98 98c31 35 65 71 101 107 88 88 179 166 255 218 94 65 126 65 132 64 1-6 1-38-64-132z m-656-605c-11 6-26 2-32-9 0-1-1-2-2-3-2-2-7-8-13-12-9-6-19-11-29-14-13-3-20-16-17-28 3-11 12-18 22-18 2 0 4 1 6 1 16 4 31 11 45 21 8 6 20 18 20 18 4 4 7 8 9 13 6 11 2 25-9 31z" horiz-adv-x="1000" />

<glyph glyph-name="pause" unicode="&#xe851;" d="M933 600c-67 116-175 198-304 233-129 34-263 17-379-50-115-67-198-175-233-304-34-129-17-263 50-379 67-116 175-198 304-233 43-11 86-17 130-17 86 0 172 23 249 67 116 67 198 175 233 304 34 129 17 263-50 379z m0-366c-31-115-106-212-209-272-104-60-224-75-340-45-115 31-212 106-272 209-59 104-75 224-44 340 31 115 105 212 208 272 69 40 146 60 223 60 39 0 78-5 117-15 115-31 212-106 272-209 60-104 75-224 45-340z m-521 356h-65c-29 0-52-23-52-52v-376c0-29 23-52 52-52h65c28 0 52 23 52 52v376c0 29-24 52-52 52z m0-428h-65v376h65l0-376c0 0 0 0 0 0z m241 428h-64c-29 0-53-23-53-52v-376c0-29 24-52 53-52h64c29 0 52 23 52 52v376c0 29-23 52-52 52z m0-428h-64v376h64l0-376c0 0 0 0 0 0z" horiz-adv-x="1000" />

<glyph glyph-name="phone-call" unicode="&#xe852;" d="M962 68l-196 196c-23 23-61 23-85 0l-51-51c-16-16-21-39-15-59l-19-20c0 0 0 0 0 0-14-13-99 8-202 110-102 103-123 188-110 202 0 0 0 0 0 0l20 19c5-1 11-2 16-2 16 0 31 6 43 17l51 51c23 24 23 62 0 85l-196 196c-12 11-27 18-43 18-16 0-31-7-42-18l-51-51c-16-16-21-39-15-59 0 0-17-16-17-17-55-61-65-156-29-269 35-111 111-229 214-331 102-103 220-179 331-214 45-14 86-21 124-21 62 0 114 19 151 56l11 11c5-2 11-3 17-3 16 0 31 6 42 18l51 51c23 23 23 61 0 85z m-787 702l196-196-51-51c0 0 0 0 0 0l0 0-98 98-98 98 51 51z m624-822c0 0 0 0 0 0-43-43-120-50-215-20-102 33-211 103-307 199-96 96-166 205-199 307-30 96-23 172 20 215l0 0 6 5 152-152-14-14c0 0 0 0 0 0-58-58 12-187 110-286 74-74 165-131 231-131 22 0 41 6 55 21 0 0 0 0 0 0l14 14 152-152-5-6z m70 26l-196 196 51 51 196-196c0 0-51-51-51-51z m-110 635c-57 58-132 89-213 89-17 0-30-14-30-30 0-17 13-30 30-30 65 0 125-25 171-71 46-46 71-106 71-171 0-17 13-30 30-30 16 0 30 13 30 30 0 81-31 156-89 213z m108 108c-86 86-200 133-321 133-17 0-30-13-30-30 0-17 13-30 30-30 105 0 204-41 279-115 74-75 115-174 115-279 0-17 13-30 30-30 17 0 30 13 30 30 0 121-47 235-133 321z m-215-215c-29 29-65 44-106 44 0 0 0 0 0 0-17 0-30-14-30-30 0-17 13-30 30-30 0 0 0 0 0 0 25 0 46-9 63-27 18-17 27-39 27-63 0-17 13-30 30-30h0c16 0 30 13 30 30 0 41-15 77-44 106z" horiz-adv-x="1000" />

<glyph glyph-name="photo-camera" unicode="&#xe853;" d="M500 552c-142 0-257-115-257-257s115-256 257-256 257 115 257 256-115 257-257 257z m0-473c-119 0-216 97-216 216 0 120 97 216 216 216 119 0 216-96 216-216 0-119-97-216-216-216z m0 377c-88 0-160-72-160-161 0-88 72-160 160-160s160 72 160 160-72 161-160 161z m0-282c-67 0-121 54-121 121 0 67 54 122 121 122s122-55 122-122c0-67-55-121-122-121z m435 453h-263l-27 73c-8 22-28 36-51 36h-188c-23 0-43-14-51-36l-27-73h-90v28c0 24-18 42-42 42h-61c-24 0-42-18-42-42v-28h-28c-36 0-65-29-65-65v-533c0-36 29-65 65-65h870c36 0 65 29 65 65v533c0 36-29 65-65 65z m-540 58c2 5 6 8 11 8h188c5 0 9-3 11-8l21-58h-252l21 58z m-262-30c0 1 1 2 2 2h61c1 0 2-1 2-2v-28h-65v28z m-90-191h64v-337h-64v337z m914-435c0-12-10-22-22-22h-870c-12 0-22 10-22 22v55h85c12 0 22 10 22 21v380c0 12-10 22-22 22h-85v55c0 12 10 22 22 22h592c0 0 0 0 0 0 0 0 0 0 0 0h278c12 0 22-10 22-22v-55h-85c-12 0-22-10-22-22v-380c0-11 10-21 22-21h85v-55z m0 98h-64v337h64v-337z m-457 248c-44 0-79-36-79-80 0-10 9-19 19-19s20 9 20 19c0 23 18 41 40 41 11 0 19 9 19 19s-8 20-19 20z" horiz-adv-x="1000" />

<glyph glyph-name="pint-map" unicode="&#xe854;" d="M349 357c-38 0-76 15-105 44-58 58-58 152 0 209 28 28 65 44 105 44s76-16 104-44c58-57 58-151 0-209-28-29-66-44-104-44z m0 238c-23 0-46-9-64-26-35-35-35-92 0-127 17-17 40-26 64-26s46 9 63 26c35 35 35 92 0 127-17 17-40 26-63 26z m0 0m0-745l-23 27c-13 15-325 385-325 625 0 192 156 348 348 348s347-156 347-348c0-229-311-609-325-625z m0 941c-160 0-289-129-289-289 0-89 53-219 154-374 53-81 105-150 134-186 29 37 83 108 135 190 101 158 155 286 155 370 0 160-130 289-289 289z m0 0" horiz-adv-x="1000" />

<glyph glyph-name="pinterest" unicode="&#xe855;" d="M854 704c-95 94-220 146-354 146s-259-52-354-146c-94-95-146-220-146-354 0-57 10-113 29-167 2-8 11-12 19-9 9 3 13 12 10 20-18 50-27 102-27 156 0 258 211 469 469 469s469-211 469-469-211-469-469-469c-170 0-327 93-410 242-4 8-14 10-21 6-8-4-11-14-6-21 88-159 255-258 437-258 134 0 259 52 354 146 94 95 146 220 146 354s-52 259-146 354z m-95-104c-44 56-107 97-179 115-71 17-143 14-206-10-59-23-110-61-147-113-77-103-85-239-21-344 16-27 50-35 76-19 27 16 35 50 20 77-41 66-35 153 15 220 54 73 142 103 236 80 83-20 166-94 152-206-7-56-32-107-70-143-31-29-67-45-97-42-24 3-45 10-61 22 17 52 29 97 37 134 16 72 16 110 1 138-11 19-28 31-48 35-20 4-58 3-94-40-23-29-40-73-47-120-7-52-1-105 16-148 3-7 7-14 10-21-33-99-67-187-67-188-6-14-5-29 1-43 6-13 17-24 30-29 7-3 14-4 21-4 0 0 0 0 0 0 23 0 44 14 52 36 1 2 25 64 52 141 25-13 54-21 85-24 63-7 131 19 187 72 56 54 92 128 103 210 10 78-10 152-57 214z m26-210c-10-75-43-142-94-191-49-47-108-70-161-64-34 4-64 14-89 29-4 3-9 4-14 2-4-2-8-5-10-10-29-84-56-155-57-158-4-10-13-16-23-16 0 0 0 0 0 0-3 0-6 1-9 2-6 2-11 7-14 13-2 6-3 13 0 19 0 1 36 93 70 196 2 4 1 9-1 13-4 7-8 15-12 23-15 38-20 85-14 131 6 42 21 80 41 105 20 25 40 30 54 30 4 0 7 0 9-1 11-2 21-9 26-19 11-20 10-55-3-116-9-38-22-86-40-142-2-5 0-12 4-16 22-20 51-32 87-36 39-4 84 15 122 51 43 41 71 98 79 161 17 132-79 217-176 240-106 27-207-8-268-91-57-78-64-178-17-255 7-12 3-27-9-34-11-7-27-4-34 8-57 95-49 216 20 310 34 46 80 81 133 101 58 22 122 25 187 9 66-16 123-52 162-103 42-55 60-121 51-191z" horiz-adv-x="1000" />

<glyph glyph-name="placeholder" unicode="&#xe856;" d="M873-115l-132 279c-3 6-7 10-13 12l-65 29 113 191c1 0 1 1 1 1 23 44 34 92 34 142 0 84-33 163-93 221-59 59-138 91-222 90-82-1-159-34-217-92-57-59-90-136-90-217 0-50 11-100 34-144 0 0 1-1 1-1l113-191-66-29c-5-2-9-7-12-12l-132-279c-4-9-2-20 5-28 7-7 18-9 28-5l165 74 165-74c6-3 14-3 20 0l165 74 165-74c4-1 7-2 10-2 7 0 13 3 18 7 7 8 9 19 5 28z m-606 536c-19 37-29 77-29 120 1 141 117 258 258 260 71 1 138-26 188-76 50-49 78-115 78-186 0-42-10-82-28-118l-213-356c-6-11-17-12-21-12-4 0-15 1-21 12l-212 356z m418-446c-6 3-13 3-20 0l-165-73-165 73c-6 3-14 3-20 0l-115-51 100 211 63 28 73-123c14-23 38-37 64-37 26 0 50 14 64 37l73 123 63-28 100-211-115 51z m-185 677c-62 0-113-51-113-113s51-113 113-113c62 0 113 51 113 113s-51 113-113 113z m0-176c-35 0-63 28-63 63 0 35 28 63 63 63 35 0 63-28 63-63s-28-63-63-63z" horiz-adv-x="1000" />

<glyph glyph-name="planet-earth" unicode="&#xe857;" d="M854 704c-95 94-220 146-354 146s-259-52-354-146c-94-95-146-220-146-354s52-259 146-354c95-94 220-146 354-146s259 52 354 146c94 95 146 220 146 354s-52 259-146 354z m-120-69l22 91c88-59 154-149 183-253l-12-3c-17-3-31-16-35-33l-4-18c0 0 0 0-1 0 0-1 0 0 0 0l-27 20c-14 10-33 12-48 4l-33-18c-16-8-26-25-24-43 1-18 12-33 29-39l1-1c0 0 1 0 1 0 0 0 0-1 0-1l-21-24c0 0-1 0-1 0l-56 36c-13 9-29 10-43 4-14-6-23-19-26-34l-4-27c-3-14 3-29 14-40l29-27c0 0 0-1 0-1l-48-72c-4-7-7-15-7-23l-4-103c0 0 0 0 0 0l-64-63c0 0 0 0-1 0l-41 24c0 0 0 1 0 1 0 0-20 90-20 92l-19 49c-6 16-21 27-38 29l-83 7c0 0 0 0 0 0l-47 82c0 0 0 0 0 0l11 79c0 0 1 0 1 0l72 55c0 0 0 0 1 0l70-29c4-2 8-3 12-3l97-11c11-1 22 2 31 8l65 46c17 13 23 36 15 55l-6 14c-7 15-22 25-39 26l-181 10c0 0 0 0 0 0 0 0 0 0 0 0v0c0 1 0 1 0 1 0 0 0 0 0 0l54 15c8 2 14 6 20 11l66 62c0 0 0 1 0 1l100 10c19 2 35 16 39 34z m-338 37l38 70c5 10 7 23 4 34l-5 25c22 3 44 5 67 5 23 0 45-2 67-5 0 0-5-6-6-7l-53-21c-7-3-14-8-20-14l-82-96c-1-1-3-2-4-2-3 0-5 1-5 2-3 3-1 8-1 9z m-194 22v-66c0-19-9-36-25-46l-48-31c-11-7-20-17-28-28l-43-63c23 92 74 174 144 234z m29-656l-6-51c-71 54-126 129-156 215h28c4 0 7-1 9-4l57-89c3-4 6-8 9-11l56-51c2-2 3-5 3-9z m269-144c-85 0-165 24-234 65l9 74c2 17-4 35-17 47 0 0-57 52-58 53l-57 89c-10 15-27 25-46 25h-41c-7 33-12 68-12 103 0 4 1 8 1 12l93 136c4 6 9 11 15 15l48 31c29 19 45 50 45 84v100c44 29 92 51 144 64l5-25c0-1 0-3-1-4l-37-70c-2-5-5-16-5-16-3-16 1-31 11-43 10-11 24-18 38-18 1 0 23-1 39 18l82 96c1 1 2 2 3 2l53 21c7 3 14 8 19 14l20 23c35-9 69-22 100-39-1-2-26-105-26-105 0-1 0-1 0-1l-100-10c-10-1-19-6-27-12l-66-63c0 0 0 0 0 0l-54-15c-18-4-31-19-33-37-3-19 6-36 22-45 6-4 13-6 20-6l181-10c0 0 0 0 0 0l6-14c0 0 0 0 0-1l-64-46c-1 0-1 0-1 0l-97 11-70 29c-15 6-32 4-45-6l-72-54c-10-7-16-18-18-29l-11-79c-2-10 0-21 5-30l47-81c8-13 21-21 35-22l83-7c0 0 1-1 1-1l18-48 19-87c2-12 10-23 21-29l41-24c7-4 15-6 23-6 11 0 23 4 31 13l64 62c8 8 13 19 13 30l4 103c0 0 0 1 0 1l48 72c12 18 9 42-7 57l-29 28c0 0 0 0 0 0l4 27c0 0 0 0 0 0 1 0 1 0 1 0l56-36c19-12 44-9 58 8l21 24c10 11 13 26 10 41-4 14-14 26-28 31l-2 1c0 0 0 0 0 0 0 0 0 0 0 1 0 0 0 0 0 0l34 17c0 0 0 0 0 0l27-20c12-9 28-11 42-6 14 5 25 17 29 31l4 18c0 1 0 1 1 1l13 2c4-25 7-52 7-79 0-251-205-456-456-456z" horiz-adv-x="1000" />

<glyph glyph-name="play-button" unicode="&#xe858;" d="M933 600c-67 116-175 198-304 233-129 34-263 17-379-50-115-67-198-175-233-304-34-129-17-263 50-379 67-116 175-198 304-233 43-11 86-17 130-17 86 0 172 23 249 67 116 67 198 175 233 304 34 129 17 263-50 379z m0-366c-31-115-106-212-209-272-104-60-224-75-340-45-115 31-212 106-272 209-60 104-75 224-44 340 31 115 105 212 208 272 69 40 146 60 223 60 39 0 78-5 117-15 115-31 212-106 272-209 60-104 75-224 45-340z m-193 163l-321 186c-18 10-38 10-55 0-17-10-27-28-27-47v-371c0-20 10-38 27-48 9-5 18-7 27-7 10 0 19 2 28 7l321 186c17 10 27 27 27 47 0 20-10 37-27 47z m-26-49l-322-186c0 0-1 0-2 0-1 1-1 2-1 3v371c0 0 0 1 1 2 1 0 1 0 1 0 1 0 1 0 1 0l322-186c0 0 1-1 1-2 0-1-1-2-1-2z m93 239c-62 80-155 134-255 148-14 2-27-8-29-22-2-15 8-28 22-30 87-12 168-58 221-127 5-7 13-10 21-10 5 0 11 1 16 5 11 9 13 25 4 36z" horiz-adv-x="1000" />

<glyph glyph-name="power-button" unicode="&#xe859;" d="M500 850c-276 0-500-224-500-500s224-500 500-500 500 224 500 500-224 500-500 500z m0-948c-247 0-448 201-448 448s201 448 448 448 448-201 448-448-201-448-448-448z m162 723c-13 8-29 3-36-9s-3-28 9-36c82-47 132-136 132-230 0-147-120-267-267-267-147 0-267 120-267 267 0 94 51 183 132 230 12 8 16 24 9 36-7 12-23 17-36 9-97-57-157-162-157-275 0-176 143-319 319-319s319 143 319 319c0 113-60 218-157 275z m-162 79c-14 0-26-12-26-26v-328c0-14 12-26 26-26 14 0 26 12 26 26v328c0 14-12 26-26 26z" horiz-adv-x="1000" />

<glyph glyph-name="presentation" unicode="&#xe85a;" d="M955 780h-433v25c0 13-10 23-22 23-12 0-22-10-22-23v-25h-433c-25 0-45-20-45-45v-41c0-25 20-45 45-45h6v-504c0-24 20-45 45-45h382v-65l-166-122c-10-7-12-21-5-31 7-10 21-13 31-5l140 102v-84c0-13 10-23 22-23 12 0 22 10 22 23v84l140-102c4-3 9-5 13-5 7 0 14 4 18 10 8 10 5 24-5 31l-166 122v65h382c25 0 45 21 45 45v504h6c25 0 45 20 45 45v41c0 25-20 45-45 45z m-51-635h-808v504h808v-504z m51 549h-910v41h910v-41z m-455-110c-12 0-21-9-21-20v-155h-154c-11 0-20-9-20-20 0-107 87-195 195-195s195 88 195 195-88 195-195 195z m0-350c-79 0-144 59-154 135h154c11 0 20 9 20 20v153c76-10 134-75 134-153 0-85-69-155-154-155z m-69 371c-81 0-147-66-147-148 0-11 9-20 20-20h127c12 0 21 9 21 20v128c0 11-9 20-21 20z m-20-128h-85c8 43 42 77 85 86v-86z" horiz-adv-x="1000" />

<glyph glyph-name="printer" unicode="&#xe85b;" d="M930 639h-187v105c0 12-10 21-21 21h-444c-11 0-21-9-21-21v-105h-187c-38 0-70-32-70-71v-337c0-39 32-71 70-71h187v-204c0-12 10-21 21-21h444c11 0 21 9 21 21v204h187c38 0 70 32 70 71v337c0 39-32 71-70 71z m-187-43h50v-59h-50v59z m-443 127h401v-186h-401v186z m-93-127h50v-59h-50v59z m494-619h-401v280h401v-280z m257 254h0c0-16-13-28-28-28h-187v54h39c11 0 21 9 21 21s-10 21-21 21h-60-444-60c-11 0-21-10-21-21s10-21 21-21h39v-54h-187c-15 0-28 12-28 28v337c0 16 13 28 28 28h94v-80c0-12 10-21 21-21h630c11 0 21 9 21 21v80h94c15 0 28-12 28-28v-337z m-464-136h-99c-12 0-21-9-21-21 0-12 9-21 21-21h99c12 0 21 9 21 21 0 12-9 21-21 21z m111 108h-210c-12 0-21-10-21-22 0-11 9-21 21-21h210c12 0 21 10 21 21 0 12-9 22-21 22z" horiz-adv-x="1000" />

<glyph glyph-name="process" unicode="&#xe85c;" d="M750-125l-1 5c-12 64-12 131 0 195l-41 8c-12-63-13-128-4-191h-404l53 160c1 4 1 8 0 11-2 12-14 18-25 16-1-1-78-19-134-1-41 14-37 117-29 164 0 2 0 3 0 4 0 11-9 21-21 21h-75c-6 0-11 1-15 4-13 9-16 25-8 38l105 154c3 5 4 11 3 16 0 1-22 120 54 213 63 77 176 116 334 116v42c-172 0-295-44-366-132-53-67-76-153-64-238l-100-148c-8-11-12-24-12-38 0-38 31-69 69-69h51c-5-51-9-163 61-186 39-11 81-14 121-7l-51-155c-1-2-1-4-1-6 0-12 9-21 21-21h458c1 0 3 0 4 0 11 2 19 13 17 25z m167 975h-271c-46 0-83-37-83-83v-21c0-46 37-83 83-83h271c46 0 83 37 83 83v21c0 46-37 83-83 83z m41-104c0-23-18-42-41-42h-271c-23 0-42 19-42 42v21c0 23 19 41 42 41h271c23 0 41-18 41-41v-21z m-270 21v21h-42v-42c0-12 9-21 21-21h146v42h-125z m187 21v-21h-21v-42h42c11 0 21 9 21 21v42h-42z m-229-146h-313c-46 0-83-38-83-84s37-83 83-83h313c11 0 21 9 21 21v125c0 11-10 21-21 21z m-21-125h-292c-23 0-41 18-41 41 0 23 18 42 41 42h292v-83z m21-63h-313c-46 0-83-37-83-83s37-83 83-83h313c11 0 21 9 21 20v125c0 12-10 21-21 21z m-21-125h-292c-23 0-41 19-41 42 0 23 18 42 41 42h292v-84z m21-62h-313c-46 0-83-38-83-84 0-46 37-83 83-83h313c11 0 21 9 21 21v125c0 11-10 21-21 21z m-21-125h-292c-23 0-41 18-41 41 0 23 18 42 41 42h292v-83z m250 416h-83c-12 0-21-9-21-20v-334c0-11 9-21 21-21h83c12 0 21 10 21 21v334c0 11-9 20-21 20z m-21-333h-41v292h41v-292z" horiz-adv-x="1000" />

<glyph glyph-name="reload" unicode="&#xe85d;" d="M942 408c0 244-198 442-442 442s-442-198-442-442c0-14 12-26 26-26s27 12 27 26c0 215 174 390 389 390s389-175 389-390c0-214-174-389-389-389h-45l65 73c9 10 8 27-2 37-11 9-28 8-37-2l-93-104c-16-17-16-43 0-60l93-104c5-6 12-9 19-9 6 0 13 2 18 7 10 9 11 26 2 37l-65 72h45c244 0 442 199 442 442z" horiz-adv-x="1000" />

<glyph glyph-name="return" unicode="&#xe85e;" d="M752 497c-2 0-681 0-681 0l143 161c9 10 8 26-2 35-11 10-27 9-36-2l-161-181c-20-22-20-55 0-77l161-181c5-5 12-8 19-8 6 0 12 2 17 6 10 10 11 26 2 36l-143 161c0 0 679 0 681 0 109 0 198-89 198-198s-89-198-198-198h-121c-14 0-25-11-25-25 0-14 11-26 25-26h121c137 0 248 112 248 249 0 137-111 248-248 248z" horiz-adv-x="1000" />

<glyph glyph-name="rss" unicode="&#xe85f;" d="M141 131c-78 0-141-63-141-141s63-140 141-140c77 0 140 63 140 140s-63 141-140 141z m0-222c-45 0-82 36-82 81 0 45 37 82 82 82 45 0 81-36 81-82 0-45-36-81-81-81z m534 29c-28 145-99 277-203 382-106 105-238 176-384 205-22 5-44-1-61-15-17-14-27-35-27-57v-73c0-35 24-64 58-72 97-22 187-71 258-142 71-71 120-161 142-258 8-34 37-58 72-58h73c22 0 43 10 57 27 14 17 20 39 15 61z m-61-24c-1-2-5-5-11-5h-73c-7 0-13 5-14 11-24 109-79 209-158 288-79 79-179 134-287 158-7 1-12 7-12 14v73c0 6 3 10 5 11 2 2 5 4 10 4 1 0 2 0 3-1 134-26 256-92 353-189 96-97 161-218 187-351 2-6-1-11-3-13z m385 19c-15 116-49 228-101 333-51 102-117 195-197 276-82 83-176 151-280 203-106 54-220 89-338 104-21 3-42-3-58-17-16-14-25-34-25-56v-72c0-36 27-67 63-72 180-26 343-107 473-235 66-64 120-138 161-219 43-83 71-172 84-265 6-36 37-63 73-63h72c22 0 42 9 56 25 14 16 20 37 17 58z m-62-19c-1-2-5-5-11-5h-72c-7 0-13 5-14 13-14 99-45 194-90 283-45 87-102 165-172 234-139 137-314 223-506 251-8 1-13 7-13 14v72c0 6 3 10 5 11 2 2 5 4 10 4 0 0 1 0 2 0 111-15 218-48 319-98 98-50 186-114 264-192 76-77 138-165 186-261 49-99 81-205 96-315 1-5-2-9-4-11z" horiz-adv-x="1000" />

<glyph glyph-name="safebox" unicode="&#xe860;" d="M929 850h-858c-39 0-71-32-71-71v-186-93-300-93-186c0-39 32-71 71-71h858c39 0 71 32 71 71v858c0 39-32 71-71 71z m-881-280h113v-46h-113v46z m0-94h68v-252h-68v252z m0-299h113v-47h-113v47z m904-256c0-13-10-23-23-23h-858c-13 0-23 10-23 23v162h68v-83c0-19 15-35 34-35h700c19 0 35 16 35 35v700c0 19-16 35-35 35h-700c-19 0-34-16-34-35v-83h-68v162c0 13 10 23 23 23h858c13 0 23-10 23-23v-858z m-768 303h-23v252h23c13 0 24 11 24 24v93c0 14-11 24-24 24h-23v72h678v-678h-678v72h23c13 0 24 11 24 24v93c0 13-11 24-24 24z m481 291c-91 91-239 91-330 0-91-91-91-239 0-330 46-45 105-68 165-68 60 0 120 23 165 68 91 91 91 239 0 330z m24-144h-60v0c-3 20-11 39-22 55l42 43c23-29 36-63 40-98z m-168 168c35-4 69-17 98-40l-43-42c-16 11-35 19-55 22v60z m-42 0v-60c-20-3-39-11-55-22l-43 42c29 23 63 36 98 40z m-128-70l42-43c-11-16-19-35-22-55h-60c4 35 17 69 40 98z m-40-140h60c3-20 11-39 22-55l-42-43c-23 29-36 63-40 98z m168-168c-35 4-69 17-98 40l43 42c16-11 35-19 55-22v-60z m-41 127c-17 16-26 38-26 62 0 24 9 46 26 62 16 17 38 26 62 26s46-9 62-26c17-16 26-38 26-62 0-24-9-46-26-62-16-17-38-26-62-26s-46 9-62 26z m83-127v60c20 3 39 11 55 22l43-42c-29-23-63-36-98-40z m128 70l-42 43c11 16 19 35 22 55h60c-4-35-17-69-40-98z" horiz-adv-x="1000" />

<glyph glyph-name="salesforce" unicode="&#xe861;" d="M766 628c-27 0-52-4-77-12-36 39-88 61-142 61-36 0-70-10-101-28-42 37-97 57-153 57-129 0-234-105-234-234 0-17 1-34 5-51-40-36-64-89-64-144 0-105 84-192 188-195 44-56 112-88 183-88 41 0 81 10 117 31 27 16 51 37 71 62 15-4 31-6 47-6 62 0 119 29 156 79 1 0 2 0 4 0 129 0 234 105 234 234s-105 234-234 234z m0-410c-6 0-11 0-16 1l-19 2-9-16c-25-41-69-65-116-65-17 0-34 3-49 9l-23 9-13-21c-32-53-88-85-150-85-57 0-111 28-144 76l-9 13-17-1c-2 0-4 0-6 0-75 0-136 61-136 137 0 43 21 84 56 110l17 13-7 19c-5 17-8 35-8 53 0 97 79 176 176 176 49 0 96-21 129-56l18-20 22 17c24 19 54 30 85 30 44 0 84-21 110-56l14-19 22 10c23 10 47 16 73 16 97 0 175-79 175-176 0-97-78-176-175-176z" horiz-adv-x="1000" />

<glyph glyph-name="setting" unicode="&#xe862;" d="M955 447c-18 2-38 5-57 8-2 0-4 2-5 4-9 32-22 63-38 92-1 2-1 5 0 7 12 15 24 31 35 46 16 20 13 50-5 68l-63 63c-18 18-48 21-68 5-15-11-31-23-46-35-2-1-5-1-7 0-29 16-60 29-92 38-2 1-4 3-4 5-3 19-6 39-8 57-4 26-26 45-52 45h-90c-25 0-48-19-52-45-2-18-5-38-8-57 0-2-1-4-4-5-32-9-63-22-92-38-2-1-5-1-6 0-16 12-31 24-47 35-20 16-50 13-68-5l-63-63c-18-18-21-48-5-68 11-16 23-31 35-46 1-2 1-5 0-7-16-29-29-60-38-92-1-2-3-4-5-4-19-3-39-6-57-8-26-4-45-26-45-52v-90c0-25 19-48 45-52 18-2 38-5 57-8 2 0 4-1 5-4 9-32 22-63 38-92 1-2 1-5 0-6-12-16-24-31-35-47-16-20-13-50 5-68l63-63c18-18 48-21 68-5 16 11 31 23 47 35 1 1 4 1 6 0 29-16 60-29 92-38 3-1 4-3 4-5 3-19 6-39 8-57 4-26 27-45 52-45h90c26 0 48 19 52 45 2 18 5 38 8 57 0 2 2 4 4 5 32 9 63 22 92 38 2 1 5 1 7 0 15-12 31-24 46-35 20-16 50-13 68 5l63 63c18 18 21 48 5 68-11 16-23 31-35 47-1 1-1 4 0 6 16 29 29 60 38 92 1 3 3 4 5 4 19 3 39 6 57 8 26 4 45 27 45 52v90c0 26-19 48-45 52z m-2-142c0-2-2-5-4-5-19-3-38-6-57-8-21-3-38-18-44-38-8-29-19-56-34-82-10-18-8-41 4-58 12-15 24-30 35-45 1-3 1-6-1-8l-63-63c-2-2-5-2-7-1-15 11-31 23-46 35-17 13-39 14-58 4-26-15-53-26-82-34-20-6-35-23-38-44-2-19-5-38-8-57 0-2-2-4-5-4h-90c-2 0-5 2-5 4-3 19-6 38-8 57-3 21-18 38-38 44-29 8-56 19-82 34-8 4-17 7-26 7-11 0-22-4-32-11-15-12-30-24-45-35-3-1-6-1-8 1l-63 63c-2 2-2 5-1 8 11 15 23 30 35 45 13 17 14 40 4 58-15 26-26 53-34 82-6 20-23 35-44 38-19 2-38 5-56 8-3 0-5 3-5 5v90c0 3 2 5 5 5 18 3 37 6 56 8 21 3 38 18 44 38 8 29 19 56 34 82 10 19 9 41-4 58-12 15-24 30-35 46-1 2-1 5 1 7l63 63c2 2 5 2 8 1 15-11 30-23 45-35 17-12 40-14 58-4 26 15 53 26 82 34 20 6 35 23 38 44 2 19 5 38 8 57 0 2 3 4 5 4h90c3 0 5-2 5-4 3-19 6-38 8-57 3-21 18-38 38-44 29-8 56-19 82-34 19-10 41-8 58 4 15 12 31 24 46 35 2 1 5 1 7-1l63-63c2-2 2-5 1-7-11-15-23-31-35-46-12-17-14-39-4-58 15-26 26-53 34-82 6-20 23-35 44-38 19-2 38-5 57-8 2 0 4-2 4-5v-90z m-453 262c-120 0-217-97-217-217s97-217 217-217 217 97 217 217-97 217-217 217z m0-387c-94 0-170 76-170 170 0 94 76 170 170 170 94 0 170-76 170-170s-76-170-170-170z" horiz-adv-x="1000" />

<glyph glyph-name="settings-app" unicode="&#xe863;" d="M974 675h-616v25c0 35-29 65-65 65h-101c-35 0-64-30-64-65v-25h-102c-14 0-26-11-26-26 0-14 12-25 26-25h102v-25c0-36 29-65 64-65h101c36 0 65 29 65 65v25h616c14 0 26 11 26 25 0 15-12 26-26 26z m-668-76c0-7-6-13-13-13h-101c-7 0-13 6-13 13v101c0 7 6 13 13 13h101c7 0 13-6 13-13v-101z m668-212h-101v24c0 36-30 65-65 65h-101c-36 0-65-29-65-65v-24h-616c-14 0-26-12-26-26 0-15 12-26 26-26h616v-25c0-35 29-64 65-64h101c35 0 65 29 65 64v25h101c14 0 26 11 26 26 0 14-12 26-26 26z m-153-77c0-7-6-13-13-13h-101c-7 0-13 6-13 13v101c0 7 6 13 13 13h101c7 0 13-6 13-13v-101z m153-233h-434v24c0 36-29 65-65 65h-100c-36 0-65-29-65-65v-24h-284c-14 0-26-12-26-26 0-15 12-26 26-26h284v-25c0-35 29-65 65-65h100c36 0 65 30 65 65v25h434c14 0 26 11 26 26 0 14-12 26-26 26z m-486-77c0-7-6-13-13-13h-100c-8 0-13 6-13 13v101c0 7 5 13 13 13h100c7 0 13-6 13-13v-101z" horiz-adv-x="1000" />

<glyph glyph-name="settings" unicode="&#xe864;" d="M642 130c-10 6-21 13-32 19 3 21 3 43 0 65 11 6 22 12 32 19 18 10 25 33 17 52 0 0 0 0 0 0l-23 55c-7 19-28 30-48 25-12-3-24-6-36-9-14 17-29 32-46 46 3 12 6 24 9 36 5 20-6 41-25 48l-55 23c-19 8-42 1-52-17-7-10-13-21-19-32-22 3-44 3-65 0-6 11-13 22-19 32-11 18-33 25-52 17l-56-23c-19-7-29-28-24-48 3-12 6-24 9-36-17-14-32-29-46-46-12 3-24 6-36 9-20 5-41-6-49-25l-23-55c-8-19 0-42 17-52 11-7 22-13 32-19-2-22-2-44 0-65-10-6-21-13-32-19-17-11-25-33-17-52l23-56c8-19 29-29 49-24 12 3 24 6 36 9 14-17 29-33 46-46-3-12-6-24-9-36-5-20 5-41 24-49l56-23c5-2 10-3 16-3 14 0 28 7 36 20 6 11 12 21 19 32 21-2 43-2 65 0 6-11 12-21 19-32 10-17 33-25 52-17l55 23c19 8 30 29 25 49-3 12-6 24-9 36 17 13 32 29 46 46 12-3 24-6 36-9 20-5 41 5 48 24l23 56c8 19 1 41-17 52z m-46-88c-11 3-23 6-35 9-16 4-33-2-44-15-11-15-25-29-41-41-13-10-19-28-14-44 3-12 6-23 9-34l-51-22c-6 11-12 21-18 31-9 15-25 23-42 21-19-2-38-2-58 0-16 2-33-6-41-21-6-10-12-21-18-31l-51 22c3 11 6 23 9 34 4 16-2 34-15 44-15 12-29 26-41 41-10 13-27 19-44 15-11-3-23-6-34-9l-22 51c11 6 21 12 31 18 15 8 23 25 21 41-2 20-2 39 0 58 2 17-6 33-21 42-10 6-20 12-31 18l22 51c11-3 23-6 34-9 17-5 34 1 44 14 12 16 26 30 41 41 13 11 19 28 15 44-3 12-6 24-9 35l51 21c6-10 12-20 18-31 8-14 25-23 41-20 20 2 39 2 58 0 17-3 33 6 42 20 6 11 12 21 18 31l51-21c-3-11-6-23-9-35-5-16 1-33 14-44 16-11 30-25 41-41 11-13 28-19 44-14 12 3 24 6 35 9l21-51c-10-6-20-12-31-18-14-9-23-25-20-42 2-19 2-38 0-58-3-16 6-33 20-41 11-6 21-12 31-18l-21-51z m-124 198c0 0 0 0 0 0-32 77-121 114-199 82-78-32-115-121-83-199 16-38 45-67 83-83 19-7 39-11 58-11s40 4 59 11c77 33 114 122 82 200z m-99-158c-27-11-56-11-83 0-27 11-47 31-58 58-23 55 3 118 58 141 14 5 27 8 41 8 42 0 83-25 100-66 23-55-4-119-58-141z m597 571c-8 1-16 2-24 3-4 14-9 27-16 39 5 6 10 13 15 19 10 14 8 34-4 46l-31 31c-12 12-32 14-46 4-6-5-13-10-19-15-12 7-25 12-39 16-1 8-2 16-3 24-3 17-18 30-35 30h-44c-17 0-32-13-35-30-1-8-2-16-3-24-14-4-27-9-39-16-6 5-13 10-19 15-14 10-34 8-46-4l-31-31c-12-12-14-32-4-46 5-6 10-13 15-19-7-12-12-25-16-39-8-1-16-2-24-3-17-3-30-18-30-35v-44c0-17 13-32 30-35 8-1 16-2 24-3 4-14 9-27 16-39-5-6-10-13-15-19-10-14-8-34 4-46l31-31c12-12 32-14 46-4 6 5 13 10 19 15 12-7 25-12 39-16 1-8 2-16 3-24 3-17 18-30 35-30h44c17 0 32 13 35 30 1 8 2 16 3 24 14 4 27 9 39 16 6-5 13-10 19-15 14-10 34-8 46 4l31 31c12 12 14 32 4 46-5 6-10 13-15 19 7 12 12 25 16 39 8 1 16 2 24 3 17 3 30 18 30 35v44c0 17-13 32-30 35z m-12-73c-7-1-15-2-22-3-14-2-26-12-29-25-4-14-9-26-16-38-7-13-6-28 3-39 4-6 8-12 13-17l-23-23c-5 5-11 9-17 13-11 9-26 10-39 3-12-7-24-12-38-16-13-3-23-15-25-29-1-7-2-15-3-22h-32c-1 7-2 15-3 22-2 14-12 26-25 29-14 4-26 9-38 16-13 7-28 6-39-3-6-4-12-8-17-13l-23 23c5 5 9 11 13 17 9 11 10 26 3 39-7 12-12 24-16 38-3 13-15 23-29 25-7 1-15 2-22 3v32c7 1 15 2 22 3 14 2 26 12 29 25 4 14 9 26 16 38 7 13 6 28-3 39-4 6-8 12-13 17l23 23c5-5 11-9 17-13 11-9 26-10 39-3 12 7 24 12 38 16 13 3 23 15 25 29 1 7 2 15 3 22h32c1-7 2-15 3-22 2-14 12-26 25-29 14-4 26-9 38-16 13-7 28-6 39 3 6 4 12 8 17 13l23-23c-5-5-9-11-13-17-9-11-10-26-3-39 7-12 12-24 16-38 3-13 15-23 29-25 7-1 15-2 22-3v-32z m-212 107c-50 0-91-41-91-91 0-50 41-91 91-91s91 41 91 91c0 50-41 91-91 91z m0-141c-28 0-50 22-50 50 0 28 22 50 50 50 28 0 50-22 50-50 0-28-22-50-50-50z" horiz-adv-x="1000" />

<glyph glyph-name="share" unicode="&#xe865;" d="M795 260c-70 0-131-35-168-88l-227 113c7 21 10 42 10 65s-3 44-10 65l227 113c37-53 98-88 168-88 113 0 205 92 205 205s-92 205-205 205-205-92-205-205c0-23 4-44 10-65l-227-113c-37 53-98 88-168 88-113 0-205-92-205-205s92-205 205-205c70 0 131 35 168 88l227-113c-6-21-10-42-10-65 0-113 92-205 205-205s205 92 205 205-92 205-205 205z m0 531c81 0 146-65 146-146s-65-147-146-147-147 66-147 147 66 146 147 146z m-590-587c-81 0-146 65-146 146s65 147 146 147 147-66 147-147-66-146-147-146z m590-295c-81 0-147 65-147 146s66 147 147 147 146-66 146-147-65-146-146-146z" horiz-adv-x="1000" />

<glyph glyph-name="shield" unicode="&#xe866;" d="M864 748l-325 96c-26 8-52 8-78 0l-325-96c-24-7-41-29-41-54v-270c0-124 37-245 107-347 69-100 165-177 277-223 6-3 14-4 21-4s15 1 22 4c112 46 207 123 276 223 70 102 107 223 107 347v270c0 25-17 47-41 54z m-5-324c0-115-34-226-99-321-63-93-152-164-256-207-2-1-5-1-8 0-104 43-192 114-256 207-65 95-99 206-99 321v270c0 5 3 9 8 11l325 96c9 2 17 4 26 4 9 0 17-2 26-4l325-96c5-2 8-6 8-11v-270z m-107 224l-242 71c-7 2-13 2-20 0l-242-71c-15-4-25-18-25-33v-191c0-100 31-197 88-279 45-64 105-116 173-152 5-3 11-4 16-4 5 0 11 1 16 4 68 36 128 88 173 152 57 82 88 179 88 279v191c0 15-10 29-25 33z m-21-224c0-91-27-179-80-253-39-56-91-103-151-135-60 32-112 79-151 135-53 74-80 162-80 253v183l231 68 231-68v-183z" horiz-adv-x="1000" />

<glyph glyph-name="shopping-cart" unicode="&#xe867;" d="M419 63c-48 0-88-39-88-88 0-48 40-88 88-88s88 40 88 88c0 49-39 88-88 88z m0-127c-21 0-38 18-38 39 0 22 17 39 38 39s39-17 39-39c0-21-17-39-39-39z m309 127c-49 0-88-39-88-88 0-48 39-88 88-88s88 40 88 88c0 49-40 88-88 88z m0-127c-22 0-39 18-39 39 0 22 17 39 39 39 21 0 39-17 39-39 0-21-18-39-39-39z m21 590h-351c-14 0-25-11-25-24 0-14 11-25 25-25h351c14 0 25 11 25 25 0 13-11 24-25 24z m-19-127h-313c-14 0-25-11-25-25s11-24 25-24h313c14 0 25 11 25 24 0 14-11 25-25 25z m259 237c-9 11-23 18-38 18h-765l-15 75c-4 15-14 29-29 35l-108 47c-12 5-27-1-32-13-5-13 0-27 13-32l108-47 118-577c5-23 25-39 48-39h589c13 0 24 11 24 25 0 13-11 24-24 24h-589l-14 70h607c23 0 44 17 48 39l69 334c3 14-1 29-10 41z m-107-365h-617l-69 334 755 0-69-334z" horiz-adv-x="1000" />

<glyph glyph-name="site" unicode="&#xe868;" d="M705 526c0 113-92 207-205 207-113 0-205-94-205-207 0-113 92-205 205-205s205 92 205 205z m-351 0c0 82 65 148 146 148s147-66 147-148c0-81-66-147-147-147s-146 66-146 147z m468 0c0 178-144 324-322 324-168 0-322-134-322-324 0-119 116-298 185-396-77-15-185-55-185-134 0-112 208-146 322-146 114 0 322 34 322 146 0 79-108 119-185 134 69 98 185 277 185 396z m-586 0c0 164 137 265 264 265 145 0 264-119 264-265 0-124-174-369-264-483-90 114-264 359-264 483z m528-530c0-49-144-87-264-87-120 0-264 39-264 87 0 24 53 64 165 81 42-58 74-97 76-99 6-7 14-11 23-11s17 4 23 11c2 2 34 41 77 99 111-17 164-57 164-81z" horiz-adv-x="1000" />

<glyph glyph-name="skype" unicode="&#xe869;" d="M973 250c7 33 10 67 10 100 0 129-50 251-141 342-91 91-213 141-342 141-33 0-67-3-100-10-37 18-79 27-120 27-155 0-280-125-280-280 0-41 9-82 27-120-7-33-10-66-10-100 0-129 50-250 141-342 92-91 213-141 342-141 33 0 67 3 100 10 38-18 79-27 120-27 155 0 280 125 280 280 0 41-9 82-27 120z m-253-341c-36 0-70 8-102 25-5 2-9 3-14 3-2 0-4 0-7 0-32-8-64-12-97-12-234 0-425 191-425 425 0 33 4 65 12 97 1 7 0 14-3 21-17 32-25 66-25 102 0 122 99 221 221 221 36 0 70-8 102-25 7-3 14-4 21-3 32 8 65 12 97 12 234 0 425-191 425-425 0-32-4-65-12-97-1-7 0-14 3-21 17-32 25-66 25-102 0-122-99-221-221-221z m0 0m-220 668c86 0 159-46 159-99 0-16 14-29 30-29 16 0 29 13 29 29 0 44-24 85-68 115-41 27-94 42-150 42s-109-15-150-42c-44-30-68-71-68-115s24-85 68-115c41-27 94-42 150-42 86 0 159-45 159-99 0-53-73-98-159-98-86 0-159 45-159 98 0 16-14 29-30 29-16 0-29-13-29-29 0-44 24-85 68-115 41-27 94-42 150-42s109 15 150 42c44 30 68 71 68 115 0 44-24 85-68 115-41 27-94 42-150 42-86 0-159 45-159 99 0 53 73 99 159 99z m0 0" horiz-adv-x="1000" />

<glyph glyph-name="smartphone" unicode="&#xe86a;" d="M500 33c-31 0-55-25-55-55s24-56 55-56 56 25 56 56-25 55-56 55z m0-72c-9 0-17 7-17 17s8 17 17 17c9 0 17-8 17-17 0-10-8-17-17-17z m91 810h-98c-12 0-21-9-21-20 0-11 9-21 21-21h98c11 0 20 10 20 21 0 11-9 20-20 20z m146 79h-473c-36 0-65-29-65-64v-872c0-35 29-64 65-64h473c35 0 64 29 64 64v872c0 35-29 64-64 64z m21-936c0-12-10-21-21-21h-473c-12 0-22 9-22 21v872c0 12 10 21 22 21h473c11 0 21-9 21-21v-872z m-222 535c-8 9-22 9-30 0l-103-102c-8-9-8-22 0-30 4-5 10-7 15-7s11 2 15 7l103 102c8 8 8 22 0 30z m61-59c-9 8-22 8-30 0l-41-41c-9-8-9-22 0-30 4-4 9-6 15-6s11 2 15 6l41 41c8 8 8 22 0 30z m97 302h-388c-11 0-19-9-19-19v-589c0-10 8-19 19-19h388c11 0 19 9 19 19v589c0 10-8 19-19 19z m-19-588l0 0h-350v550h350v-550z" horiz-adv-x="1000" />

<glyph glyph-name="sms-locked" unicode="&#xe86b;" d="M971 143h-30v205c0 56-22 106-58 143v271c0 49-40 88-88 88h-707c-49 0-88-39-88-88v-472c0-49 39-88 88-88h29v-88c0-11 6-21 16-26 9-5 21-5 30 1l168 113h200v-59h-29c-16 0-29-13-29-29v-235c0-16 13-29 29-29h469c16 0 29 13 29 29v235c0 16-13 29-29 29z m-147 0v205c0 49-39 88-88 88-38 0-70-25-82-59h-61c13 67 73 118 143 118 81 0 147-66 147-147v-205z m-117 0v59h59v-59z m-385 117c-5 0-11-2-16-5l-130-87v63c0 16-13 29-29 29h-59c-16 0-29 13-29 30v472c0 16 13 29 29 29h707c16 0 29-13 29-29v-229c-26 13-56 20-88 20-113 0-205-92-205-205 0-16 13-29 30-29h117c16 0 29 13 29 29 0 16 13 29 29 29s30-13 30-29v-88z m268-58h58v-59h-58z m351-293h-410v175h410z m-146 117h-117c-16 0-30-13-30-30s14-29 30-29h117c16 0 29 13 29 29s-13 30-29 30z" horiz-adv-x="1000" />

</font>
</defs>
</svg>
